<svg id="svg" version="1.1" xmlns="http://www.w3.org/2000/svg" xmlns:xlink="http://www.w3.org/1999/xlink" width="400" height="400" viewBox="0, 0, 400,400"><g id="svgg"><path id="path0" d="M195.043 58.633 C 194.909 58.981,194.838 62.086,194.885 65.533 L 194.970 71.800 195.185 65.200 L 195.400 58.600 200.000 58.600 L 204.600 58.600 204.815 65.200 L 205.030 71.800 205.115 65.533 C 205.226 57.333,205.679 58.000,200.000 58.000 C 196.070 58.000,195.245 58.105,195.043 58.633 M173.374 80.124 C 173.263 80.413,173.230 82.708,173.301 85.224 L 173.429 89.800 173.514 84.909 L 173.600 80.019 180.500 79.899 L 187.400 79.780 180.487 79.690 C 175.090 79.620,173.531 79.715,173.374 80.124 M219.500 79.894 L 226.400 80.019 226.400 84.809 L 226.400 89.600 219.500 89.606 C 215.705 89.609,212.391 89.744,212.136 89.906 C 211.650 90.215,225.425 90.107,226.312 89.795 C 226.700 89.659,226.797 88.418,226.712 84.708 L 226.600 79.800 219.600 79.785 L 212.600 79.770 219.500 79.894 M175.600 89.865 C 179.827 90.147,188.290 90.176,187.864 89.906 C 187.609 89.744,184.340 89.642,180.600 89.678 C 176.860 89.715,174.610 89.798,175.600 89.865 M12.000 127.600 L 12.000 164.400 25.000 164.400 L 38.000 164.400 38.029 161.300 C 38.228 139.797,38.971 137.200,44.921 137.200 C 49.102 137.200,50.798 139.797,50.801 146.200 C 50.802 148.620,50.920 153.705,51.064 157.500 L 51.326 164.400 64.263 164.400 L 77.200 164.400 77.200 127.595 L 77.200 90.789 64.100 90.895 L 51.000 91.000 50.800 104.671 C 50.609 117.730,50.563 118.393,49.768 119.457 C 47.185 122.914,42.409 122.855,39.721 119.332 L 38.600 117.864 38.476 104.332 L 38.352 90.800 25.176 90.800 L 12.000 90.800 12.000 127.600 M90.001 121.295 C 90.002 138.073,90.120 154.635,90.264 158.100 L 90.525 164.400 103.218 164.400 L 115.910 164.400 116.180 155.100 C 116.328 149.985,116.393 133.470,116.324 118.400 L 116.200 91.000 103.100 90.895 L 90.000 90.789 90.001 121.295 M128.400 123.200 C 128.400 144.533,128.537 155.600,128.800 155.600 C 129.042 155.600,129.200 157.333,129.200 160.000 L 129.200 164.400 141.800 164.400 L 154.400 164.400 154.400 160.024 C 154.400 157.537,154.573 155.540,154.800 155.400 C 155.052 155.244,155.200 150.795,155.200 143.373 L 155.200 131.593 153.100 129.280 C 147.096 122.666,142.814 116.040,139.995 109.000 C 138.154 104.404,136.716 99.124,135.936 94.100 L 135.423 90.800 131.912 90.800 L 128.400 90.800 128.400 123.200 M264.400 92.023 C 264.400 92.695,264.215 94.090,263.989 95.123 C 263.762 96.155,263.386 97.900,263.151 99.000 C 260.862 109.754,255.007 120.622,246.727 129.488 L 244.777 131.577 244.973 143.288 C 245.081 149.730,245.277 157.115,245.409 159.700 L 245.648 164.400 258.224 164.400 L 270.800 164.400 270.800 160.000 C 270.800 157.333,270.958 155.600,271.200 155.600 C 271.463 155.600,271.600 144.533,271.600 123.200 L 271.600 90.800 268.000 90.800 L 264.400 90.800 264.400 92.023 M284.000 127.595 L 284.000 164.400 296.955 164.400 L 309.910 164.400 310.179 154.300 C 310.328 148.745,310.393 132.230,310.325 117.600 L 310.200 91.000 297.100 90.895 L 284.000 90.789 284.000 127.595 M322.801 120.700 C 322.802 137.145,322.920 153.705,323.064 157.500 L 323.326 164.400 335.998 164.400 L 348.670 164.400 348.934 147.300 C 349.080 137.895,349.199 121.335,349.199 110.500 L 349.200 90.800 336.000 90.800 L 322.800 90.800 322.801 120.700 M361.734 110.603 C 361.880 121.563,362.000 138.152,362.000 147.466 L 362.000 164.400 375.000 164.400 L 388.000 164.400 388.000 127.800 L 388.000 91.200 376.050 91.200 C 369.478 91.200,363.508 91.082,362.784 90.937 L 361.468 90.674 361.734 110.603 M194.885 104.220 C 194.782 112.020,194.490 111.600,200.000 111.600 C 205.510 111.600,205.218 112.020,205.115 104.220 L 205.030 97.800 204.815 104.400 L 204.600 111.000 200.000 111.000 L 195.400 111.000 195.185 104.400 L 194.970 97.800 194.885 104.220 M167.422 141.111 C 167.126 141.407,167.143 147.711,167.464 156.900 L 167.726 164.400 180.663 164.400 L 193.600 164.400 193.600 156.800 C 193.600 152.620,193.452 149.200,193.270 149.200 C 190.995 149.200,180.843 146.882,179.105 145.966 C 178.723 145.765,178.226 145.600,178.001 145.600 C 177.503 145.600,174.840 144.431,170.722 142.404 C 169.029 141.571,167.544 140.989,167.422 141.111 M229.400 142.353 C 227.860 143.166,225.520 144.246,224.200 144.754 C 222.880 145.262,221.440 145.822,221.000 145.999 C 218.083 147.168,212.808 148.413,208.240 149.011 L 206.281 149.267 206.540 154.096 C 206.683 156.752,206.800 160.157,206.800 161.663 L 206.800 164.400 219.537 164.400 L 232.274 164.400 232.536 157.500 C 232.885 148.290,232.869 140.791,232.500 140.838 C 232.335 140.858,230.940 141.540,229.400 142.353 M26.400 177.075 C 33.540 177.346,376.400 177.371,376.400 177.100 C 376.400 176.935,296.975 176.836,199.900 176.880 C 102.825 176.925,24.750 177.012,26.400 177.075 M197.200 198.018 C 196.762 198.315,196.924 198.352,197.800 198.156 C 199.271 197.827,199.590 197.598,198.567 197.606 C 198.145 197.609,197.530 197.795,197.200 198.018 M148.629 199.638 C 149.273 200.429,149.881 201.008,149.979 200.925 C 150.078 200.842,149.551 200.195,148.809 199.487 L 147.458 198.200 148.629 199.638 M192.867 200.700 L 191.365 202.200 192.782 201.001 C 193.562 200.342,194.371 199.667,194.580 199.501 C 194.789 199.335,194.827 199.200,194.665 199.200 C 194.502 199.200,193.693 199.875,192.867 200.700 M332.033 199.332 C 332.125 199.404,333.100 200.252,334.200 201.215 L 336.200 202.966 334.417 201.083 C 333.436 200.047,332.461 199.200,332.250 199.200 C 332.039 199.200,331.942 199.259,332.033 199.332 M43.067 201.067 C 42.920 201.213,42.811 201.708,42.825 202.167 C 42.849 202.933,42.882 202.923,43.234 202.042 C 43.626 201.063,43.544 200.589,43.067 201.067 M190.214 203.835 C 189.841 204.404,189.605 204.938,189.689 205.022 C 189.773 205.107,190.158 204.641,190.544 203.988 C 191.406 202.528,191.148 202.409,190.214 203.835 M150.480 271.300 C 150.436 308.865,150.535 339.600,150.700 339.600 C 150.971 339.600,150.947 213.157,150.675 206.000 C 150.612 204.350,150.525 233.735,150.480 271.300 M336.000 203.390 C 336.000 203.495,336.359 204.170,336.799 204.890 C 337.738 206.431,337.869 206.081,336.990 204.380 C 336.441 203.319,336.000 202.878,336.000 203.390 M188.886 219.076 C 188.838 225.938,188.935 231.636,189.100 231.739 C 189.265 231.841,189.354 228.207,189.298 223.662 C 189.106 208.103,188.971 206.605,188.886 219.076 M337.687 251.200 C 337.691 275.290,337.832 294.460,338.000 293.800 C 338.409 292.194,338.409 209.676,338.000 208.400 C 337.824 207.850,337.683 227.110,337.687 251.200 M54.801 281.300 C 54.802 320.735,54.920 356.105,55.064 359.900 L 55.326 366.800 96.663 366.800 L 138.000 366.800 138.000 343.400 L 138.000 320.000 134.800 320.000 L 131.600 320.000 131.600 337.776 C 131.600 349.196,131.457 355.641,131.200 355.800 C 130.980 355.936,130.800 356.397,130.800 356.824 C 130.800 357.251,130.620 357.600,130.400 357.600 C 130.180 357.600,130.000 357.870,130.000 358.200 C 130.000 358.533,129.644 358.800,129.200 358.800 C 128.760 358.800,128.400 358.980,128.400 359.200 C 128.400 359.420,128.040 359.600,127.600 359.600 C 127.160 359.600,126.800 359.780,126.800 360.000 C 126.800 360.263,116.400 360.400,96.400 360.400 C 76.400 360.400,66.000 360.263,66.000 360.000 C 66.000 359.780,65.706 359.600,65.347 359.600 C 64.510 359.600,63.200 358.098,63.200 357.139 C 63.200 356.732,63.020 356.400,62.800 356.400 C 62.535 356.400,62.400 333.557,62.400 288.672 L 62.400 220.944 63.820 219.285 C 65.993 216.747,65.196 216.805,98.022 216.802 L 127.844 216.800 129.322 218.154 C 130.135 218.899,130.800 219.788,130.800 220.130 C 130.800 220.473,130.980 220.864,131.200 221.000 C 131.457 221.159,131.600 227.737,131.600 239.424 L 131.600 257.600 134.800 257.600 L 138.000 257.600 138.000 234.000 L 138.000 210.400 125.800 210.400 C 117.933 210.400,113.600 210.258,113.600 210.000 C 113.600 209.737,103.533 209.600,84.200 209.600 L 54.800 209.600 54.801 281.300 M200.800 220.219 C 200.800 231.853,200.746 232.165,198.384 234.152 C 197.381 234.996,196.698 235.208,194.869 235.241 C 192.776 235.279,192.709 235.307,194.000 235.611 C 200.021 237.026,201.200 234.596,201.200 220.776 L 201.200 209.997 250.700 210.098 L 300.200 210.200 300.200 237.200 C 300.200 267.301,300.294 266.165,297.388 270.992 C 296.625 272.260,296.000 273.392,296.000 273.508 C 296.000 274.960,285.427 282.361,284.573 281.506 C 284.452 281.386,284.247 279.641,284.117 277.630 C 283.986 275.619,283.727 273.878,283.540 273.763 C 283.353 273.647,283.200 273.229,283.200 272.833 C 283.200 269.536,277.039 262.596,272.200 260.441 C 271.540 260.147,270.687 259.748,270.305 259.553 C 269.923 259.359,269.203 259.209,268.705 259.221 C 268.183 259.233,268.844 259.630,270.269 260.159 C 280.027 263.786,283.600 270.077,283.600 283.633 C 283.600 287.979,283.709 291.819,283.843 292.167 C 284.060 292.733,286.283 292.800,304.835 292.800 L 325.585 292.800 325.802 291.900 C 325.922 291.405,325.970 272.730,325.910 250.400 L 325.800 209.800 263.300 209.699 L 200.800 209.598 200.800 220.219 M246.600 216.492 C 242.413 217.911,235.600 223.204,235.600 225.038 C 235.600 225.347,235.420 225.600,235.200 225.600 C 234.980 225.600,234.800 225.949,234.800 226.376 C 234.800 226.803,234.620 227.264,234.400 227.400 C 234.180 227.536,234.000 228.076,234.000 228.600 C 234.000 229.124,233.820 229.664,233.600 229.800 C 233.054 230.137,233.090 237.686,233.644 239.081 C 234.884 242.203,235.770 244.000,236.068 244.000 C 236.251 244.000,236.404 244.225,236.409 244.500 C 236.432 245.710,240.781 249.434,243.600 250.659 C 244.150 250.898,245.122 251.342,245.760 251.646 C 247.280 252.371,279.309 252.466,280.839 251.751 C 281.368 251.504,282.700 250.881,283.800 250.368 C 285.755 249.455,290.105 245.485,291.100 243.705 C 291.978 242.134,291.631 241.743,290.698 243.252 C 288.373 247.012,285.385 249.335,280.400 251.260 C 278.365 252.045,248.432 252.044,246.400 251.259 C 228.747 244.435,229.692 220.832,247.774 216.949 C 251.180 216.218,275.639 216.219,279.000 216.951 C 285.567 218.380,290.392 222.753,292.428 229.119 C 292.962 230.790,293.163 231.105,293.178 230.295 C 293.190 229.687,293.020 228.832,292.800 228.395 C 292.580 227.958,292.220 227.242,292.000 226.805 C 291.780 226.368,291.600 225.738,291.600 225.405 C 291.600 225.072,291.459 224.800,291.286 224.800 C 291.114 224.800,290.651 224.255,290.257 223.589 C 288.508 220.628,284.704 217.992,279.972 216.462 C 278.134 215.868,248.362 215.894,246.600 216.492 M74.400 288.400 L 74.400 347.600 96.600 347.600 L 118.800 347.600 118.800 288.400 L 118.800 229.200 96.600 229.200 L 74.400 229.200 74.400 288.400 M101.000 275.400 C 101.000 325.177,101.112 322.689,98.674 327.155 C 94.778 334.293,89.214 337.440,79.700 337.886 L 74.800 338.116 74.800 283.853 L 74.800 229.589 87.900 229.695 L 101.000 229.800 101.000 275.400 M293.206 233.924 C 293.202 235.239,293.352 235.953,293.600 235.800 C 294.110 235.485,294.110 233.188,293.600 232.400 C 293.323 231.971,293.211 232.405,293.206 233.924 M292.352 239.377 C 291.996 240.600,291.861 241.600,292.052 241.600 C 292.244 241.600,292.400 241.276,292.400 240.880 C 292.400 240.484,292.594 239.966,292.831 239.729 C 293.068 239.492,293.203 238.815,293.131 238.226 C 293.025 237.356,292.878 237.574,292.352 239.377 M196.000 251.018 C 197.923 251.618,199.621 252.897,200.228 254.200 C 200.432 254.640,200.690 263.460,200.800 273.800 L 201.000 292.600 221.839 292.704 L 242.679 292.807 242.963 284.737 C 243.119 280.298,243.354 276.129,243.486 275.471 C 243.655 274.623,243.591 274.359,243.262 274.561 C 242.963 274.747,242.800 276.246,242.800 278.824 L 242.800 282.800 222.000 282.800 L 201.200 282.800 201.200 268.795 C 201.200 253.005,201.287 253.500,198.138 251.287 C 197.408 250.774,196.312 250.412,195.538 250.428 C 194.222 250.455,194.229 250.465,196.000 251.018 M192.200 251.267 C 191.017 251.921,189.600 253.279,189.600 253.759 C 189.600 253.989,189.894 253.758,190.253 253.246 C 190.612 252.733,191.647 251.977,192.553 251.565 C 193.459 251.154,193.930 250.819,193.600 250.821 C 193.270 250.823,192.640 251.023,192.200 251.267 M189.067 254.667 C 188.701 255.032,188.739 295.285,189.106 295.862 C 189.268 296.116,189.400 286.891,189.400 275.362 C 189.400 263.833,189.385 254.400,189.367 254.400 C 189.348 254.400,189.213 254.520,189.067 254.667 M259.845 258.727 C 259.734 258.907,261.333 259.055,263.400 259.055 C 265.467 259.055,267.066 258.907,266.955 258.727 C 266.844 258.547,265.244 258.400,263.400 258.400 C 261.556 258.400,259.956 258.547,259.845 258.727 M256.800 259.600 C 256.800 260.069,257.107 260.069,258.200 259.600 C 258.909 259.295,258.875 259.253,257.900 259.228 C 257.295 259.213,256.800 259.380,256.800 259.600 M253.600 260.867 C 249.751 263.096,245.200 267.810,245.200 269.568 C 245.200 269.806,245.020 270.000,244.800 270.000 C 244.580 270.000,244.400 270.349,244.400 270.776 C 244.400 271.203,244.220 271.664,244.000 271.800 C 243.780 271.936,243.602 272.442,243.604 272.924 C 243.606 273.432,244.269 272.444,245.185 270.567 C 247.119 266.606,250.612 262.973,254.170 261.224 C 255.506 260.567,256.240 260.036,255.800 260.043 C 255.360 260.051,254.370 260.422,253.600 260.867 M131.600 288.600 L 131.600 306.800 134.400 306.800 L 137.200 306.800 137.200 288.600 L 137.200 270.400 134.400 270.400 L 131.600 270.400 131.600 288.600 M261.137 271.168 C 256.005 272.825,254.706 275.905,254.884 286.000 L 255.000 292.600 263.400 292.600 L 271.800 292.600 271.800 285.000 C 271.800 277.832,271.747 277.292,270.860 275.492 C 269.180 272.080,264.609 270.047,261.137 271.168 M266.915 272.259 C 268.671 273.168,270.402 275.108,270.675 276.476 C 270.801 277.103,271.060 277.714,271.252 277.832 C 271.443 277.950,271.600 281.187,271.600 285.024 L 271.600 292.000 263.563 292.000 L 255.526 292.000 255.663 284.270 C 255.799 276.612,255.810 276.524,256.899 274.880 C 258.905 271.851,263.699 270.596,266.915 272.259 M335.966 298.900 C 335.712 299.395,334.941 300.430,334.252 301.199 L 333.000 302.598 334.336 301.399 C 335.547 300.311,337.104 298.000,336.624 298.000 C 336.516 298.000,336.220 298.405,335.966 298.900 M190.413 298.656 C 190.431 299.144,191.557 300.576,191.761 300.371 C 191.855 300.277,191.587 299.775,191.166 299.256 C 190.745 298.736,190.406 298.466,190.413 298.656 M193.000 301.799 C 193.660 302.373,194.740 303.126,195.400 303.472 C 197.045 304.335,196.606 303.941,194.000 302.214 C 192.590 301.280,192.231 301.131,193.000 301.799 M197.790 304.384 C 197.932 304.613,198.517 304.800,199.090 304.800 C 200.344 304.800,200.199 304.608,198.666 304.240 C 197.923 304.062,197.621 304.111,197.790 304.384 M328.000 304.400 C 327.176 304.664,327.141 304.726,327.800 304.754 C 328.240 304.773,328.870 304.613,329.200 304.400 C 329.901 303.947,329.414 303.947,328.000 304.400 M23.751 335.200 C 23.751 337.730,23.816 338.765,23.896 337.500 C 23.975 336.235,23.975 334.165,23.896 332.900 C 23.816 331.635,23.751 332.670,23.751 335.200 M175.640 340.397 C 177.148 341.193,178.288 342.618,178.818 344.365 L 179.131 345.400 179.166 344.320 C 179.207 343.007,176.167 339.591,174.981 339.618 C 174.423 339.630,174.612 339.853,175.640 340.397 M197.006 340.124 C 195.640 340.942,194.807 342.074,194.097 344.072 L 193.412 346.000 186.306 346.000 C 179.451 346.000,179.200 346.028,179.200 346.805 C 179.200 348.245,178.183 349.676,176.138 351.113 C 174.903 351.981,174.623 352.000,162.838 352.000 L 150.800 352.000 150.800 359.400 L 150.800 366.800 269.400 366.800 L 388.000 366.800 388.000 359.400 L 388.000 352.000 293.186 352.000 C 188.356 352.000,197.630 352.226,195.300 349.610 C 193.047 347.079,194.209 342.524,197.642 340.431 C 198.389 339.976,198.730 339.613,198.400 339.625 C 198.070 339.637,197.443 339.861,197.006 340.124 M12.000 359.400 L 12.000 366.800 27.400 366.800 L 42.800 366.800 42.800 359.400 L 42.800 352.000 27.400 352.000 L 12.000 352.000 12.000 359.400 " stroke="none" fill="#85c3be" fill-rule="evenodd"></path><path id="path1" d="M195.413 58.887 C 195.318 59.169,195.175 62.460,195.094 66.200 C 194.942 73.217,194.831 73.737,193.000 76.025 C 190.390 79.285,188.066 80.000,180.072 80.000 L 173.600 80.000 173.600 84.800 L 173.600 89.600 180.425 89.600 C 192.685 89.600,194.813 91.648,195.182 103.800 L 195.400 111.000 200.000 111.000 L 204.600 111.000 204.832 103.800 C 205.087 95.908,205.292 95.135,207.787 92.639 C 210.425 90.002,211.986 89.600,219.596 89.600 L 226.400 89.600 226.400 84.800 L 226.400 80.000 219.994 80.000 C 207.606 80.000,205.163 77.684,204.807 65.600 L 204.600 58.600 200.093 58.487 C 196.700 58.402,195.542 58.501,195.413 58.887 M23.600 251.736 C 23.600 292.731,23.718 329.271,23.863 332.936 L 24.126 339.600 33.463 339.600 L 42.800 339.600 42.800 270.389 L 42.800 201.179 44.589 199.389 L 46.379 197.600 96.517 197.600 L 146.656 197.600 148.277 198.988 C 150.931 201.259,150.800 197.843,150.801 264.877 C 150.802 298.385,150.920 328.905,151.064 332.700 L 151.326 339.600 163.543 339.600 L 175.761 339.600 177.481 341.420 C 178.822 342.841,179.200 343.544,179.200 344.620 L 179.200 346.000 186.306 346.000 L 193.412 346.000 194.097 344.072 C 194.828 342.013,195.666 340.905,197.099 340.100 C 197.804 339.704,216.572 339.600,287.195 339.600 L 376.400 339.600 376.400 258.665 L 376.400 177.731 357.500 177.466 C 347.105 177.320,267.725 177.201,181.100 177.200 L 23.600 177.200 23.600 251.736 M330.919 198.580 C 334.636 200.280,336.953 203.284,337.849 207.564 C 338.635 211.322,338.637 290.976,337.851 294.600 C 336.835 299.286,334.668 302.018,330.510 303.857 L 328.377 304.800 263.383 304.800 C 224.769 304.800,198.107 304.651,197.695 304.433 C 197.313 304.232,196.400 303.844,195.667 303.571 C 194.133 303.001,190.400 299.471,190.400 298.592 C 190.400 298.266,190.264 298.000,190.097 298.000 C 188.579 298.000,188.072 256.347,189.559 253.800 C 191.639 250.239,196.262 249.446,199.239 252.139 C 201.196 253.910,201.200 253.945,201.200 268.795 L 201.200 282.800 222.000 282.800 L 242.800 282.800 242.800 278.824 C 242.800 276.604,242.977 274.738,243.200 274.600 C 243.420 274.464,243.600 273.834,243.600 273.200 C 243.600 272.566,243.780 271.936,244.000 271.800 C 244.220 271.664,244.400 271.203,244.400 270.776 C 244.400 270.349,244.580 270.000,244.800 270.000 C 245.020 270.000,245.200 269.806,245.200 269.568 C 245.200 267.129,253.257 260.000,256.012 260.000 C 256.445 260.000,256.800 259.820,256.800 259.600 C 256.800 259.380,257.419 259.200,258.176 259.200 C 258.933 259.200,259.664 259.020,259.800 258.800 C 259.936 258.580,261.556 258.400,263.400 258.400 C 265.244 258.400,266.864 258.580,267.000 258.800 C 267.136 259.020,267.779 259.200,268.429 259.200 C 269.079 259.200,269.923 259.359,270.305 259.553 C 270.687 259.748,271.540 260.147,272.200 260.441 C 277.039 262.596,283.200 269.536,283.200 272.833 C 283.200 273.229,283.353 273.647,283.540 273.763 C 283.727 273.878,283.986 275.619,284.117 277.630 C 284.247 279.641,284.452 281.386,284.573 281.506 C 285.427 282.361,296.000 274.960,296.000 273.508 C 296.000 273.392,296.625 272.260,297.388 270.992 C 300.294 266.165,300.200 267.301,300.200 237.200 L 300.200 210.200 250.700 210.098 L 201.200 209.997 201.200 220.776 C 201.200 232.641,201.066 233.347,198.507 235.024 C 195.852 236.764,190.913 235.312,189.440 232.359 C 188.606 230.689,188.493 208.304,189.306 206.000 C 190.477 202.683,192.604 200.271,195.800 198.641 L 197.800 197.621 263.288 197.610 L 328.776 197.600 330.919 198.580 M279.972 216.462 C 284.704 217.992,288.508 220.628,290.257 223.589 C 290.651 224.255,291.114 224.800,291.286 224.800 C 291.459 224.800,291.600 225.072,291.600 225.405 C 291.600 225.738,291.759 226.323,291.953 226.705 C 292.767 228.306,293.164 229.491,293.391 231.000 C 293.523 231.880,293.731 233.254,293.853 234.053 C 293.984 234.911,293.896 235.617,293.638 235.777 C 293.397 235.926,293.200 236.836,293.200 237.800 C 293.200 238.764,293.020 239.664,292.800 239.800 C 292.580 239.936,292.400 240.397,292.400 240.824 C 292.400 241.251,292.220 241.600,292.000 241.600 C 291.780 241.600,291.600 241.872,291.600 242.205 C 291.600 243.937,286.787 248.973,283.800 250.368 C 282.700 250.881,281.368 251.504,280.839 251.751 C 279.309 252.466,247.280 252.371,245.760 251.646 C 245.122 251.342,244.150 250.898,243.600 250.659 C 240.781 249.434,236.432 245.710,236.409 244.500 C 236.404 244.225,236.251 244.000,236.068 244.000 C 235.770 244.000,234.884 242.203,233.644 239.081 C 233.090 237.686,233.054 230.137,233.600 229.800 C 233.820 229.664,234.000 229.124,234.000 228.600 C 234.000 228.076,234.180 227.536,234.400 227.400 C 234.620 227.264,234.800 226.803,234.800 226.376 C 234.800 225.949,234.980 225.600,235.200 225.600 C 235.420 225.600,235.600 225.347,235.600 225.038 C 235.600 223.204,242.413 217.911,246.600 216.492 C 248.362 215.894,278.134 215.868,279.972 216.462 M269.900 229.023 C 269.735 229.194,269.600 231.643,269.600 234.467 L 269.600 239.600 273.220 239.600 C 280.683 239.600,284.009 233.709,278.685 229.918 C 277.460 229.046,270.557 228.342,269.900 229.023 M74.800 283.853 L 74.800 338.116 79.700 337.886 C 89.214 337.440,94.778 334.293,98.674 327.155 C 101.112 322.689,101.000 325.177,101.000 275.400 L 101.000 229.800 87.900 229.695 L 74.800 229.589 74.800 283.853 M259.499 272.428 C 256.262 274.136,255.818 275.507,255.663 284.270 L 255.526 292.000 263.563 292.000 L 271.600 292.000 271.600 285.024 C 271.600 281.187,271.443 277.950,271.252 277.832 C 271.060 277.714,270.801 277.103,270.675 276.476 C 269.889 272.546,263.594 270.266,259.499 272.428 " stroke="none" fill="#dbc4cc" fill-rule="evenodd"></path><path id="path2" d="M189.600 20.400 C 189.600 20.620,188.700 20.800,187.600 20.800 C 186.500 20.800,185.600 20.980,185.600 21.200 C 185.600 21.420,184.880 21.600,184.000 21.600 C 183.120 21.600,182.400 21.780,182.400 22.000 C 182.400 22.220,181.781 22.400,181.024 22.400 C 180.267 22.400,179.536 22.580,179.400 22.800 C 179.264 23.020,178.713 23.200,178.176 23.200 C 177.639 23.200,177.200 23.380,177.200 23.600 C 177.200 23.820,176.840 24.000,176.400 24.000 C 175.960 24.000,175.600 24.180,175.600 24.400 C 175.600 24.620,175.203 24.800,174.718 24.800 C 173.665 24.800,167.600 27.580,167.600 28.063 C 167.600 28.248,167.240 28.400,166.800 28.400 C 166.360 28.400,166.000 28.580,166.000 28.800 C 166.000 29.020,165.764 29.200,165.475 29.200 C 165.187 29.200,164.564 29.560,164.092 30.000 C 163.620 30.440,163.073 30.800,162.876 30.800 C 162.679 30.800,161.954 31.340,161.263 32.000 C 160.572 32.660,159.913 33.200,159.797 33.200 C 159.074 33.200,146.917 46.017,146.032 47.712 C 145.720 48.311,145.315 48.800,145.132 48.800 C 144.950 48.800,144.800 49.160,144.800 49.600 C 144.800 50.040,144.665 50.400,144.499 50.400 C 144.039 50.400,141.200 56.131,141.200 57.061 C 141.200 57.358,141.020 57.600,140.800 57.600 C 140.580 57.600,140.400 57.960,140.400 58.400 C 140.400 58.840,140.220 59.200,140.000 59.200 C 139.780 59.200,139.600 59.650,139.600 60.200 C 139.600 60.750,139.420 61.200,139.200 61.200 C 138.980 61.200,138.800 61.549,138.800 61.976 C 138.800 62.403,138.620 62.864,138.400 63.000 C 138.180 63.136,138.000 63.766,138.000 64.400 C 138.000 65.034,137.820 65.664,137.600 65.800 C 137.380 65.936,137.200 66.577,137.200 67.224 C 137.200 67.871,137.020 68.400,136.800 68.400 C 136.580 68.400,136.400 69.300,136.400 70.400 C 136.400 71.500,136.220 72.400,136.000 72.400 C 135.774 72.400,135.600 73.533,135.600 75.000 L 135.600 77.600 70.624 77.600 C 27.737 77.600,5.563 77.736,5.400 78.000 C 5.264 78.220,4.702 78.400,4.150 78.400 C 2.938 78.400,1.645 79.046,0.700 80.124 C 0.042 80.875,-0.000 83.717,-0.000 127.619 L 0.000 174.315 1.160 175.558 C 1.799 176.241,2.609 176.800,2.960 176.800 C 3.312 176.800,3.600 176.980,3.600 177.200 C 3.600 177.439,5.133 177.600,7.400 177.600 L 11.200 177.600 11.200 258.600 L 11.200 339.600 6.859 339.600 C 2.579 339.600,2.501 339.617,1.259 340.803 L 0.000 342.007 0.000 359.361 L -0.000 376.715 1.160 377.958 C 1.799 378.641,2.609 379.200,2.960 379.200 C 3.312 379.200,3.600 379.380,3.600 379.600 C 3.600 379.866,69.333 380.000,200.000 380.000 C 330.667 380.000,396.400 379.866,396.400 379.600 C 396.400 379.380,396.688 379.200,397.040 379.200 C 397.391 379.200,398.201 378.641,398.840 377.958 L 400.000 376.715 400.000 359.361 L 400.000 342.007 398.741 340.803 C 397.499 339.617,397.421 339.600,393.141 339.600 L 388.800 339.600 388.800 258.600 L 388.800 177.600 392.600 177.600 C 394.867 177.600,396.400 177.439,396.400 177.200 C 396.400 176.980,396.688 176.800,397.040 176.800 C 397.391 176.800,398.201 176.241,398.840 175.558 L 400.000 174.315 400.000 127.619 C 400.000 83.717,399.958 80.875,399.300 80.124 C 398.355 79.046,397.062 78.400,395.850 78.400 C 395.298 78.400,394.736 78.220,394.600 78.000 C 394.437 77.736,372.263 77.600,329.376 77.600 L 264.400 77.600 264.400 75.000 C 264.400 73.533,264.226 72.400,264.000 72.400 C 263.780 72.400,263.600 71.500,263.600 70.400 C 263.600 69.300,263.420 68.400,263.200 68.400 C 262.980 68.400,262.800 67.860,262.800 67.200 C 262.800 66.540,262.620 66.000,262.400 66.000 C 262.180 66.000,262.000 65.370,262.000 64.600 C 262.000 63.830,261.820 63.200,261.600 63.200 C 261.380 63.200,261.200 62.750,261.200 62.200 C 261.200 61.650,261.020 61.200,260.800 61.200 C 260.580 61.200,260.400 60.750,260.400 60.200 C 260.400 59.650,260.220 59.200,260.000 59.200 C 259.780 59.200,259.600 58.840,259.600 58.400 C 259.600 57.960,259.420 57.600,259.200 57.600 C 258.980 57.600,258.800 57.293,258.800 56.918 C 258.800 56.061,255.950 50.400,255.519 50.400 C 255.343 50.400,255.200 50.080,255.200 49.688 C 255.200 49.297,254.840 48.717,254.400 48.400 C 253.960 48.083,253.600 47.596,253.600 47.319 C 253.600 46.564,240.914 33.200,240.198 33.200 C 240.085 33.200,239.428 32.660,238.737 32.000 C 238.046 31.340,237.321 30.800,237.124 30.800 C 236.927 30.800,236.380 30.440,235.908 30.000 C 235.436 29.560,234.813 29.200,234.525 29.200 C 234.236 29.200,234.000 29.020,234.000 28.800 C 234.000 28.580,233.655 28.400,233.233 28.400 C 232.812 28.400,232.407 28.242,232.333 28.049 C 232.128 27.508,226.524 24.800,225.610 24.800 C 225.164 24.800,224.800 24.620,224.800 24.400 C 224.800 24.180,224.350 24.000,223.800 24.000 C 223.250 24.000,222.800 23.820,222.800 23.600 C 222.800 23.380,222.361 23.200,221.824 23.200 C 221.287 23.200,220.736 23.020,220.600 22.800 C 220.464 22.580,219.733 22.400,218.976 22.400 C 218.219 22.400,217.600 22.220,217.600 22.000 C 217.600 21.780,216.880 21.600,216.000 21.600 C 215.120 21.600,214.400 21.420,214.400 21.200 C 214.400 20.980,213.500 20.800,212.400 20.800 C 211.300 20.800,210.400 20.620,210.400 20.400 C 210.400 20.144,206.667 20.000,200.000 20.000 C 193.333 20.000,189.600 20.144,189.600 20.400 M208.600 32.604 C 227.854 36.148,243.932 49.693,249.900 67.400 C 250.674 69.697,250.924 70.643,252.066 75.600 C 253.457 81.639,252.551 93.862,250.176 101.105 C 240.813 129.655,208.091 145.229,181.000 134.029 C 164.775 127.322,153.328 114.556,148.871 98.200 C 147.615 93.591,147.423 91.810,147.423 84.800 C 147.423 80.257,147.618 76.551,147.929 75.200 C 150.700 63.160,154.735 55.649,162.782 47.554 C 171.163 39.122,179.213 34.958,192.000 32.440 C 194.972 31.855,205.072 31.954,208.600 32.604 M190.626 46.833 C 189.103 47.206,186.736 48.717,185.692 49.984 C 183.957 52.088,183.804 52.848,183.600 60.400 L 183.400 67.800 176.400 68.034 C 167.534 68.331,165.814 68.919,163.332 72.496 L 162.200 74.129 162.073 83.765 C 161.866 99.530,163.193 101.181,176.400 101.585 L 183.400 101.800 183.600 109.200 C 183.816 117.190,183.977 117.855,186.263 120.167 C 188.683 122.616,190.206 122.974,198.865 123.130 C 214.315 123.408,216.431 121.722,216.722 108.900 L 216.888 101.600 223.425 101.600 C 227.336 101.600,230.412 101.419,231.081 101.150 C 237.604 98.528,238.400 96.750,238.400 84.800 C 238.400 70.078,236.525 68.000,223.241 68.000 C 215.676 68.000,216.413 68.874,216.405 59.896 C 216.398 51.582,215.676 49.867,211.200 47.537 C 209.205 46.498,194.101 45.981,190.626 46.833 M205.600 65.200 C 205.821 73.392,206.111 74.515,208.550 76.660 C 211.146 78.942,211.301 78.979,219.082 79.132 C 227.846 79.305,227.260 78.873,227.113 85.057 L 227.000 89.800 220.200 90.032 C 207.545 90.462,205.600 92.415,205.600 104.686 C 205.600 112.687,206.126 112.000,200.000 112.000 C 193.854 112.000,194.400 112.762,194.400 104.181 C 194.400 99.723,194.243 96.750,194.000 96.600 C 193.780 96.464,193.600 96.081,193.600 95.748 C 193.600 95.415,193.334 94.877,193.009 94.552 C 192.684 94.227,192.189 93.647,191.909 93.264 C 190.143 90.846,188.311 90.359,179.800 90.048 L 173.000 89.800 172.887 85.033 C 172.744 79.026,172.168 79.448,180.919 79.164 C 186.577 78.981,188.474 78.782,189.431 78.269 C 190.954 77.454,193.600 74.643,193.600 73.841 C 193.600 73.514,193.780 73.136,194.000 73.000 C 194.243 72.850,194.400 69.874,194.400 65.410 C 194.400 56.822,193.771 57.627,200.400 57.726 L 205.400 57.800 205.600 65.200 M39.200 104.200 C 39.336 113.427,39.549 118.059,39.863 118.604 C 41.849 122.056,46.984 122.309,49.295 119.069 C 50.182 117.825,50.204 117.528,50.400 104.200 L 50.600 90.600 64.200 90.600 L 77.800 90.600 77.800 127.800 L 77.800 165.000 64.200 165.000 L 50.600 165.000 50.400 153.200 C 50.206 141.725,50.175 141.365,49.290 140.124 C 46.923 136.806,42.760 136.808,40.227 140.129 L 39.212 141.459 39.106 153.230 L 39.000 165.000 25.400 165.000 L 11.800 165.000 11.698 127.695 L 11.596 90.389 25.298 90.495 L 39.000 90.600 39.200 104.200 M116.600 127.800 L 116.600 165.000 103.000 165.000 L 89.400 165.000 89.297 128.200 C 89.240 107.960,89.280 91.173,89.386 90.895 C 89.537 90.498,92.496 90.412,103.089 90.495 L 116.600 90.600 116.600 127.800 M136.394 93.300 C 137.405 99.584,139.077 105.664,140.878 109.600 C 141.331 110.590,141.901 111.850,142.145 112.400 C 144.105 116.818,149.175 124.204,153.126 128.400 L 155.575 131.000 155.488 148.000 L 155.400 165.000 141.800 165.000 L 128.200 165.000 128.097 128.200 C 128.040 107.960,128.079 91.175,128.184 90.900 C 128.318 90.549,129.498 90.400,132.151 90.400 L 135.927 90.400 136.394 93.300 M271.902 127.700 L 271.800 165.000 258.200 165.000 L 244.600 165.000 244.512 148.000 L 244.424 131.000 247.112 128.164 C 249.841 125.285,253.586 120.308,255.212 117.400 C 259.904 109.008,261.955 103.139,263.634 93.300 L 264.128 90.400 268.066 90.400 L 272.004 90.400 271.902 127.700 M310.702 127.700 L 310.600 165.000 297.227 165.105 C 286.794 165.188,283.783 165.100,283.533 164.705 C 283.149 164.100,283.083 91.050,283.467 90.667 C 283.613 90.520,289.824 90.400,297.269 90.400 L 310.804 90.400 310.702 127.700 M349.400 127.800 L 349.400 165.000 336.248 165.106 C 326.875 165.181,322.938 165.080,322.548 164.757 C 321.960 164.269,321.688 91.245,322.272 90.661 C 322.421 90.512,328.586 90.437,335.972 90.495 L 349.400 90.600 349.400 127.800 M388.200 127.800 L 388.200 165.000 374.600 165.000 L 361.000 165.000 360.897 128.200 C 360.840 107.960,360.880 91.173,360.986 90.895 C 361.137 90.498,364.096 90.412,374.689 90.495 L 388.200 90.600 388.200 127.800 M169.009 140.836 C 169.754 141.403,174.075 143.600,174.445 143.600 C 174.645 143.600,175.572 143.945,176.504 144.366 C 177.437 144.788,178.920 145.353,179.800 145.622 C 180.680 145.891,181.850 146.253,182.400 146.426 C 182.950 146.600,184.390 146.950,185.600 147.205 C 186.810 147.461,188.451 147.834,189.246 148.035 C 190.042 148.236,191.302 148.403,192.046 148.406 C 194.456 148.417,194.428 148.307,194.309 157.029 L 194.200 165.000 180.600 165.000 L 167.000 165.000 166.894 153.004 C 166.771 139.081,166.763 139.126,169.009 140.836 M233.106 152.826 L 233.000 165.000 219.400 165.000 L 205.800 165.000 205.691 157.252 C 205.567 148.422,205.504 148.611,208.703 148.255 C 209.966 148.114,211.810 147.829,212.800 147.621 C 213.790 147.413,215.140 147.130,215.800 146.991 C 216.460 146.853,217.360 146.598,217.800 146.425 C 218.240 146.252,219.320 145.894,220.200 145.629 C 221.080 145.364,222.250 144.955,222.800 144.720 C 223.350 144.485,224.160 144.156,224.600 143.988 C 225.770 143.543,229.585 141.689,231.185 140.789 C 233.223 139.642,233.221 139.628,233.106 152.826 M376.701 258.300 L 376.802 340.000 288.101 340.019 C 205.410 340.037,199.306 340.085,198.014 340.719 C 193.931 342.725,193.737 348.527,197.682 350.681 C 198.939 351.367,203.401 351.405,293.700 351.503 L 388.400 351.607 388.400 359.604 L 388.400 367.601 269.300 367.501 L 150.200 367.400 150.092 359.522 L 149.983 351.643 162.092 351.522 C 176.613 351.376,178.393 350.785,178.399 346.108 C 178.405 340.592,176.796 340.000,161.804 340.000 L 150.000 340.000 150.000 271.419 C 150.000 200.423,150.030 201.774,148.431 199.867 C 146.821 197.947,148.294 198.000,96.738 198.000 C 45.296 198.000,47.052 197.937,44.991 199.849 C 43.136 201.570,43.200 199.029,43.200 271.419 L 43.200 340.000 33.200 340.000 L 23.200 340.000 23.200 258.467 C 23.200 213.623,23.320 176.813,23.467 176.666 C 23.614 176.519,103.129 176.444,200.167 176.500 L 376.600 176.600 376.701 258.300 M198.000 198.549 C 195.433 199.401,191.600 202.052,191.600 202.975 C 191.600 203.114,191.285 203.708,190.900 204.295 C 189.243 206.821,188.335 226.420,189.669 230.873 C 190.716 234.367,194.761 235.918,197.874 234.020 C 200.127 232.646,200.183 232.348,200.400 220.400 L 200.600 209.400 263.400 209.400 L 326.200 209.400 326.200 251.200 L 326.200 293.000 304.919 293.103 L 283.638 293.207 283.428 291.903 C 283.313 291.187,283.154 286.910,283.076 282.400 C 282.881 271.185,281.224 267.396,274.537 262.878 C 270.283 260.003,261.546 258.409,258.495 259.951 C 258.113 260.144,257.080 260.530,256.200 260.809 C 252.389 262.017,247.919 266.068,245.921 270.124 C 243.867 274.294,243.868 274.293,243.716 283.000 C 243.635 287.620,243.483 291.805,243.377 292.300 L 243.185 293.200 222.035 293.200 C 203.119 293.200,200.860 293.133,200.643 292.567 C 200.509 292.219,200.400 283.844,200.400 273.954 C 200.400 254.085,200.380 253.907,197.924 252.410 C 194.760 250.481,190.724 252.005,189.669 255.527 C 188.922 258.022,189.028 292.318,189.792 295.190 C 190.796 298.961,193.992 302.476,197.510 303.676 C 199.481 304.349,322.669 304.659,326.938 304.002 C 331.354 303.323,334.552 301.057,336.259 297.400 L 337.192 295.400 337.196 251.096 L 337.200 206.791 336.317 204.913 C 334.803 201.692,332.405 199.721,328.440 198.440 C 326.451 197.796,199.947 197.902,198.000 198.549 M138.703 233.355 C 138.821 260.826,139.216 258.400,134.631 258.400 C 130.015 258.400,130.400 260.126,130.399 239.420 C 130.397 219.125,130.482 219.722,127.347 218.170 C 125.857 217.433,124.713 217.410,96.412 217.551 C 63.760 217.713,65.230 217.585,63.644 220.408 L 62.800 221.909 62.800 288.370 C 62.800 353.385,62.817 354.865,63.577 356.355 C 65.130 359.398,62.816 359.200,96.786 359.200 L 127.200 359.200 128.796 357.604 L 130.392 356.008 130.496 337.504 L 130.600 319.000 134.600 319.000 L 138.600 319.000 138.600 343.200 L 138.600 367.400 96.825 367.502 C 63.669 367.583,54.984 367.500,54.731 367.102 C 54.347 366.497,54.285 209.848,54.669 209.465 C 54.816 209.317,73.761 209.242,96.769 209.298 L 138.600 209.400 138.703 233.355 M246.200 217.752 C 228.728 223.387,230.910 248.471,249.112 251.225 C 254.025 251.968,278.059 251.518,280.780 250.632 C 283.539 249.733,287.232 247.239,288.679 245.298 C 289.293 244.474,289.886 243.710,289.998 243.600 C 290.609 242.996,292.000 239.790,292.000 238.986 C 292.000 238.470,292.180 237.936,292.400 237.800 C 292.620 237.664,292.800 236.044,292.800 234.200 C 292.800 232.356,292.620 230.736,292.400 230.600 C 292.180 230.464,292.000 229.995,292.000 229.557 C 292.000 228.797,291.215 226.953,289.976 224.800 C 288.864 222.869,285.374 219.875,282.800 218.644 L 280.200 217.400 264.000 217.318 C 251.679 217.256,247.417 217.360,246.200 217.752 M257.563 228.555 C 257.873 228.929,257.987 230.856,257.912 234.455 L 257.800 239.800 253.456 239.914 C 245.869 240.113,242.259 234.272,247.203 229.797 C 249.141 228.043,256.415 227.172,257.563 228.555 M278.262 228.829 C 282.648 231.194,282.729 237.283,278.405 239.597 C 277.011 240.344,270.187 240.653,269.406 240.005 C 268.680 239.403,268.521 230.069,269.214 228.774 C 269.839 227.607,276.066 227.645,278.262 228.829 M119.501 288.157 C 119.576 331.760,119.484 347.458,119.150 347.861 C 118.775 348.312,114.851 348.389,96.448 348.303 L 74.200 348.200 74.099 288.497 L 73.997 228.793 96.699 228.897 L 119.400 229.000 119.501 288.157 M138.200 288.400 L 138.200 307.000 134.400 307.000 L 130.600 307.000 130.496 288.800 C 130.438 278.790,130.480 270.368,130.589 270.085 C 130.735 269.704,131.753 269.600,134.493 269.685 L 138.200 269.800 138.200 288.400 M267.235 271.256 C 271.399 273.603,272.093 275.267,272.318 283.448 C 272.422 287.220,272.384 290.961,272.234 291.761 L 271.961 293.215 263.280 293.108 L 254.600 293.000 254.488 285.800 C 254.356 277.316,254.661 275.827,257.047 273.292 C 259.656 270.519,264.287 269.594,267.235 271.256 M43.108 359.500 L 43.000 367.400 27.400 367.400 L 11.800 367.400 11.692 359.500 L 11.583 351.600 27.400 351.600 L 43.217 351.600 43.108 359.500 " stroke="none" fill="#040404" fill-rule="evenodd"></path><path id="path3" d="M194.900 57.859 C 194.522 58.016,194.420 59.834,194.482 65.333 L 194.564 72.600 194.805 65.400 C 194.938 61.440,195.081 58.155,195.123 58.100 C 195.166 58.045,197.360 58.000,200.000 58.000 C 202.640 58.000,204.834 58.045,204.876 58.100 C 204.918 58.155,205.063 61.350,205.199 65.200 L 205.447 72.200 205.423 65.000 L 205.400 57.800 200.400 57.726 C 197.650 57.685,195.175 57.745,194.900 57.859 M205.616 72.844 C 205.596 73.637,207.368 76.346,208.537 77.313 C 210.899 79.264,211.496 79.392,219.200 79.600 L 226.600 79.800 226.600 84.862 C 226.600 87.647,226.735 89.841,226.900 89.739 C 227.438 89.405,227.254 80.142,226.700 79.687 C 226.415 79.453,223.106 79.214,219.000 79.131 C 213.550 79.022,211.560 78.842,210.815 78.393 C 209.042 77.326,207.229 75.430,206.423 73.800 C 205.988 72.920,205.625 72.490,205.616 72.844 M191.876 76.212 C 189.838 78.665,188.952 78.908,181.000 79.196 L 173.800 79.456 180.621 79.528 C 188.362 79.610,190.409 79.037,192.588 76.180 C 193.942 74.405,193.355 74.431,191.876 76.212 M172.974 80.124 C 172.468 81.443,172.999 89.735,173.600 89.898 C 174.069 90.025,174.085 89.980,173.676 89.692 C 173.280 89.413,173.182 88.131,173.276 84.461 C 173.399 79.639,173.362 79.112,172.974 80.124 M186.600 90.400 C 187.040 90.589,187.760 90.744,188.200 90.744 L 189.000 90.744 188.200 90.400 C 187.760 90.211,187.040 90.056,186.600 90.056 L 185.800 90.056 186.600 90.400 M210.841 90.816 C 209.181 91.569,206.154 94.287,206.542 94.675 C 206.640 94.774,207.414 94.111,208.261 93.203 C 209.297 92.092,210.520 91.308,212.000 90.804 C 213.210 90.393,213.840 90.047,213.400 90.037 C 212.960 90.026,211.808 90.377,210.841 90.816 M11.698 127.695 L 11.800 165.000 25.400 165.000 L 39.000 165.000 39.106 153.230 L 39.212 141.459 40.227 140.129 C 42.760 136.808,46.923 136.806,49.290 140.124 C 50.175 141.365,50.206 141.725,50.400 153.200 L 50.600 165.000 64.200 165.000 L 77.800 165.000 77.800 127.800 L 77.800 90.600 64.200 90.600 L 50.600 90.600 50.400 104.200 C 50.204 117.528,50.182 117.825,49.295 119.069 C 46.984 122.309,41.849 122.056,39.863 118.604 C 39.549 118.059,39.336 113.427,39.200 104.200 L 39.000 90.600 25.298 90.495 L 11.596 90.389 11.698 127.695 M89.386 90.895 C 89.280 91.173,89.240 107.960,89.297 128.200 L 89.400 165.000 103.000 165.000 L 116.600 165.000 116.600 127.800 L 116.600 90.600 103.089 90.495 C 92.496 90.412,89.537 90.498,89.386 90.895 M128.184 90.900 C 128.079 91.175,128.040 107.960,128.097 128.200 L 128.200 165.000 141.800 165.000 L 155.400 165.000 155.488 148.000 L 155.575 131.000 153.126 128.400 C 149.175 124.204,144.105 116.818,142.145 112.400 C 141.901 111.850,141.331 110.590,140.878 109.600 C 139.077 105.664,137.405 99.584,136.394 93.300 L 135.927 90.400 132.151 90.400 C 129.498 90.400,128.318 90.549,128.184 90.900 M263.634 93.300 C 261.955 103.139,259.904 109.008,255.212 117.400 C 253.586 120.308,249.841 125.285,247.112 128.164 L 244.424 131.000 244.512 148.000 L 244.600 165.000 258.200 165.000 L 271.800 165.000 271.902 127.700 L 272.004 90.400 268.066 90.400 L 264.128 90.400 263.634 93.300 M283.467 90.667 C 283.083 91.050,283.149 164.100,283.533 164.705 C 283.783 165.100,286.794 165.188,297.227 165.105 L 310.600 165.000 310.702 127.700 L 310.804 90.400 297.269 90.400 C 289.824 90.400,283.613 90.520,283.467 90.667 M322.272 90.661 C 321.688 91.245,321.960 164.269,322.548 164.757 C 322.938 165.080,326.875 165.181,336.248 165.106 L 349.400 165.000 349.400 127.800 L 349.400 90.600 335.972 90.495 C 328.586 90.437,322.421 90.512,322.272 90.661 M360.986 90.895 C 360.880 91.173,360.840 107.960,360.897 128.200 L 361.000 165.000 374.600 165.000 L 388.200 165.000 388.200 127.800 L 388.200 90.600 374.689 90.495 C 364.096 90.412,361.137 90.498,360.986 90.895 M38.476 104.332 L 38.600 117.864 39.721 119.332 C 42.409 122.855,47.185 122.914,49.768 119.457 C 50.563 118.393,50.609 117.730,50.800 104.671 L 51.000 91.000 64.100 90.895 L 77.200 90.789 77.200 127.595 L 77.200 164.400 64.263 164.400 L 51.326 164.400 51.064 157.500 C 50.920 153.705,50.802 148.620,50.801 146.200 C 50.798 139.797,49.102 137.200,44.921 137.200 C 38.971 137.200,38.228 139.797,38.029 161.300 L 38.000 164.400 25.000 164.400 L 12.000 164.400 12.000 127.600 L 12.000 90.800 25.176 90.800 L 38.352 90.800 38.476 104.332 M116.324 118.400 C 116.393 133.470,116.328 149.985,116.180 155.100 L 115.910 164.400 103.218 164.400 L 90.525 164.400 90.264 158.100 C 90.120 154.635,90.002 138.073,90.001 121.295 L 90.000 90.789 103.100 90.895 L 116.200 91.000 116.324 118.400 M135.936 94.100 C 136.716 99.124,138.154 104.404,139.995 109.000 C 142.814 116.040,147.096 122.666,153.100 129.280 L 155.200 131.593 155.200 143.373 C 155.200 150.795,155.052 155.244,154.800 155.400 C 154.573 155.540,154.400 157.537,154.400 160.024 L 154.400 164.400 141.800 164.400 L 129.200 164.400 129.200 160.000 C 129.200 157.333,129.042 155.600,128.800 155.600 C 128.537 155.600,128.400 144.533,128.400 123.200 L 128.400 90.800 131.912 90.800 L 135.423 90.800 135.936 94.100 M189.800 91.420 C 191.293 92.531,191.872 93.082,192.527 94.018 C 192.887 94.531,193.307 94.827,193.460 94.673 C 193.804 94.329,190.173 90.795,189.493 90.813 C 189.222 90.820,189.360 91.093,189.800 91.420 M271.600 123.200 C 271.600 144.533,271.463 155.600,271.200 155.600 C 270.958 155.600,270.800 157.333,270.800 160.000 L 270.800 164.400 258.224 164.400 L 245.648 164.400 245.409 159.700 C 245.277 157.115,245.081 149.730,244.973 143.288 L 244.777 131.577 246.727 129.488 C 252.925 122.852,257.609 115.374,260.813 107.000 C 261.623 104.884,262.639 101.409,263.151 99.000 C 263.386 97.900,263.762 96.155,263.989 95.123 C 264.215 94.090,264.400 92.695,264.400 92.023 L 264.400 90.800 268.000 90.800 L 271.600 90.800 271.600 123.200 M310.325 117.600 C 310.393 132.230,310.328 148.745,310.179 154.300 L 309.910 164.400 296.955 164.400 L 284.000 164.400 284.000 127.595 L 284.000 90.789 297.100 90.895 L 310.200 91.000 310.325 117.600 M349.199 110.500 C 349.199 121.335,349.080 137.895,348.934 147.300 L 348.670 164.400 335.998 164.400 L 323.326 164.400 323.064 157.500 C 322.920 153.705,322.802 137.145,322.801 120.700 L 322.800 90.800 336.000 90.800 L 349.200 90.800 349.199 110.500 M376.050 91.200 L 388.000 91.200 388.000 127.800 L 388.000 164.400 375.000 164.400 L 362.000 164.400 362.000 147.466 C 362.000 138.152,361.880 121.563,361.734 110.603 L 361.468 90.674 362.784 90.937 C 363.508 91.082,369.478 91.200,376.050 91.200 M205.800 96.000 C 205.650 96.473,205.617 96.950,205.727 97.060 C 205.837 97.170,206.050 96.873,206.200 96.400 C 206.350 95.927,206.383 95.450,206.273 95.340 C 206.163 95.230,205.950 95.527,205.800 96.000 M194.490 104.257 C 194.385 112.757,193.846 112.000,200.000 112.000 C 206.147 112.000,205.615 112.727,205.511 104.457 L 205.421 97.400 205.300 103.971 C 205.152 112.027,205.449 111.600,200.000 111.600 C 194.540 111.600,194.847 112.053,194.700 103.771 L 194.579 97.000 194.490 104.257 M166.979 140.511 C 166.874 140.785,166.836 146.407,166.894 153.004 L 167.000 165.000 180.600 165.000 L 194.200 165.000 194.309 157.029 C 194.428 148.307,194.456 148.417,192.046 148.406 C 191.302 148.403,190.042 148.236,189.246 148.035 C 188.451 147.834,186.810 147.461,185.600 147.205 C 184.390 146.950,182.950 146.600,182.400 146.426 C 181.850 146.253,180.680 145.891,179.800 145.622 C 178.920 145.353,177.437 144.788,176.504 144.366 C 175.572 143.945,174.645 143.600,174.445 143.600 C 174.075 143.600,169.754 141.403,169.009 140.836 C 168.154 140.184,167.165 140.026,166.979 140.511 M231.185 140.789 C 229.585 141.689,225.770 143.543,224.600 143.988 C 224.160 144.156,223.350 144.485,222.800 144.720 C 222.250 144.955,221.080 145.364,220.200 145.629 C 219.320 145.894,218.240 146.252,217.800 146.425 C 217.360 146.598,216.460 146.853,215.800 146.991 C 215.140 147.130,213.790 147.413,212.800 147.621 C 211.810 147.829,209.966 148.114,208.703 148.255 C 205.504 148.611,205.567 148.422,205.691 157.252 L 205.800 165.000 219.400 165.000 L 233.000 165.000 233.106 152.826 C 233.221 139.628,233.223 139.642,231.185 140.789 M175.696 144.760 C 176.738 145.222,177.776 145.600,178.001 145.600 C 178.226 145.600,178.723 145.765,179.105 145.966 C 180.843 146.882,190.995 149.200,193.270 149.200 C 193.452 149.200,193.600 152.620,193.600 156.800 L 193.600 164.400 180.663 164.400 L 167.726 164.400 167.464 156.900 C 167.143 147.711,167.126 141.407,167.422 141.111 C 167.544 140.989,169.029 141.571,170.722 142.404 C 172.415 143.238,174.653 144.297,175.696 144.760 M232.799 145.700 C 232.798 148.395,232.680 153.705,232.536 157.500 L 232.274 164.400 219.537 164.400 L 206.800 164.400 206.800 161.663 C 206.800 160.157,206.683 156.752,206.540 154.096 L 206.281 149.267 208.240 149.011 C 212.808 148.413,218.083 147.168,221.000 145.999 C 221.440 145.822,222.880 145.262,224.200 144.754 C 225.520 144.246,227.860 143.166,229.400 142.353 C 230.940 141.540,232.335 140.858,232.500 140.838 C 232.665 140.817,232.799 143.005,232.799 145.700 M23.467 176.666 C 23.320 176.813,23.200 213.623,23.200 258.467 L 23.200 340.000 33.200 340.000 L 43.200 340.000 43.101 271.300 L 43.002 202.600 42.900 271.100 L 42.798 339.600 33.199 339.600 L 23.600 339.600 23.600 258.200 L 23.600 176.800 200.000 176.800 L 376.400 176.800 376.400 258.200 L 376.400 339.600 287.700 339.601 L 199.000 339.603 197.642 340.431 C 194.787 342.171,194.191 343.474,194.360 347.600 C 194.405 348.708,195.625 350.255,197.286 351.310 C 198.306 351.958,204.104 352.000,293.186 352.000 L 388.000 352.000 388.000 359.400 L 388.000 366.800 269.400 366.800 L 150.800 366.800 150.800 359.400 L 150.800 352.000 162.838 352.000 C 175.762 352.000,175.670 352.013,177.800 349.813 C 180.256 347.276,179.048 342.159,175.576 340.388 C 174.143 339.657,173.180 339.600,162.217 339.600 L 150.402 339.600 150.300 271.100 L 150.198 202.600 150.099 271.300 L 150.000 340.000 161.804 340.000 C 176.796 340.000,178.405 340.592,178.399 346.108 C 178.393 350.785,176.613 351.376,162.092 351.522 L 149.983 351.643 150.092 359.522 L 150.200 367.400 269.300 367.501 L 388.400 367.601 388.400 359.604 L 388.400 351.607 293.700 351.503 C 203.401 351.405,198.939 351.367,197.682 350.681 C 193.737 348.527,193.931 342.725,198.014 340.719 C 199.306 340.085,205.410 340.037,288.101 340.019 L 376.802 340.000 376.701 258.300 L 376.600 176.600 200.167 176.500 C 103.129 176.444,23.614 176.519,23.467 176.666 M46.600 198.165 C 45.109 198.827,43.770 200.284,43.444 201.600 L 43.196 202.600 43.686 201.600 C 44.335 200.277,45.511 199.222,47.087 198.549 C 49.058 197.708,144.467 197.735,146.483 198.577 C 147.995 199.209,148.753 199.966,149.468 201.558 C 149.777 202.248,149.946 202.374,149.968 201.931 C 150.015 200.952,148.040 198.776,146.532 198.146 C 144.617 197.346,48.401 197.364,46.600 198.165 M197.730 198.176 C 193.432 199.520,189.113 204.294,189.241 207.560 C 189.277 208.475,189.329 208.431,189.675 207.200 C 190.255 205.133,191.361 203.104,192.637 201.767 C 193.852 200.494,196.352 199.028,198.246 198.478 C 200.509 197.821,326.412 197.784,328.440 198.440 C 332.405 199.721,334.803 201.692,336.317 204.913 L 337.200 206.791 337.196 251.096 L 337.192 295.400 336.259 297.400 C 334.552 301.057,331.354 303.323,326.938 304.002 C 322.669 304.659,199.481 304.349,197.510 303.676 C 194.084 302.507,190.798 298.963,189.814 295.377 C 189.510 294.271,189.256 293.802,189.236 294.313 C 189.086 298.148,193.938 303.266,198.731 304.328 C 201.577 304.959,325.791 305.007,328.200 304.378 C 332.228 303.327,334.803 301.286,336.572 297.742 L 337.600 295.684 337.600 251.035 L 337.600 206.385 336.555 204.387 C 335.215 201.824,332.503 199.446,329.744 198.413 C 326.991 197.383,200.989 197.157,197.730 198.176 M54.669 209.465 C 54.285 209.848,54.347 366.497,54.731 367.102 C 54.984 367.500,63.669 367.583,96.825 367.502 L 138.600 367.400 138.600 343.200 L 138.600 319.000 134.600 319.000 L 130.600 319.000 130.496 337.504 L 130.392 356.008 128.796 357.604 L 127.200 359.200 96.786 359.200 C 62.816 359.200,65.130 359.398,63.577 356.355 C 62.817 354.865,62.800 353.385,62.800 288.370 L 62.800 221.909 63.644 220.408 C 65.230 217.585,63.760 217.713,96.412 217.551 C 124.713 217.410,125.857 217.433,127.347 218.170 C 130.482 219.722,130.397 219.125,130.399 239.420 C 130.400 260.126,130.015 258.400,134.631 258.400 C 139.216 258.400,138.821 260.826,138.703 233.355 L 138.600 209.400 96.769 209.298 C 73.761 209.242,54.816 209.317,54.669 209.465 M200.668 209.465 C 200.521 209.613,200.400 214.389,200.400 220.080 C 200.400 231.610,200.226 232.586,197.924 233.990 C 194.869 235.852,190.760 234.414,189.702 231.113 C 189.471 230.391,189.263 230.124,189.241 230.520 C 189.025 234.321,195.246 236.793,198.384 234.152 C 200.746 232.165,200.800 231.853,200.800 220.219 L 200.800 209.598 263.300 209.699 L 325.800 209.800 325.910 250.400 C 325.970 272.730,325.922 291.405,325.802 291.900 L 325.585 292.800 304.835 292.800 C 286.283 292.800,284.060 292.733,283.843 292.167 C 283.709 291.819,283.587 287.904,283.572 283.467 C 283.556 279.030,283.421 275.091,283.272 274.714 C 282.962 273.933,283.107 289.910,283.428 291.903 L 283.638 293.207 304.919 293.103 L 326.200 293.000 326.200 251.200 L 326.200 209.400 263.568 209.299 C 229.120 209.243,200.815 209.318,200.668 209.465 M113.600 210.000 C 113.600 210.258,117.933 210.400,125.800 210.400 L 138.000 210.400 138.000 234.000 L 138.000 257.600 134.800 257.600 L 131.600 257.600 131.600 239.424 C 131.600 227.737,131.457 221.159,131.200 221.000 C 130.980 220.864,130.800 220.473,130.800 220.130 C 130.800 219.788,130.135 218.899,129.322 218.154 L 127.844 216.800 98.022 216.802 C 65.196 216.805,65.993 216.747,63.820 219.285 L 62.400 220.944 62.400 288.672 C 62.400 333.557,62.535 356.400,62.800 356.400 C 63.020 356.400,63.200 356.732,63.200 357.139 C 63.200 358.098,64.510 359.600,65.347 359.600 C 65.706 359.600,66.000 359.780,66.000 360.000 C 66.000 360.263,76.400 360.400,96.400 360.400 C 116.400 360.400,126.800 360.263,126.800 360.000 C 126.800 359.780,127.160 359.600,127.600 359.600 C 128.040 359.600,128.400 359.420,128.400 359.200 C 128.400 358.980,128.760 358.800,129.200 358.800 C 129.644 358.800,130.000 358.533,130.000 358.200 C 130.000 357.870,130.180 357.600,130.400 357.600 C 130.620 357.600,130.800 357.251,130.800 356.824 C 130.800 356.397,130.980 355.936,131.200 355.800 C 131.457 355.641,131.600 349.196,131.600 337.776 L 131.600 320.000 134.800 320.000 L 138.000 320.000 138.000 343.400 L 138.000 366.800 96.663 366.800 L 55.326 366.800 55.064 359.900 C 54.920 356.105,54.802 320.735,54.801 281.300 L 54.800 209.600 84.200 209.600 C 103.533 209.600,113.600 209.737,113.600 210.000 M247.592 216.967 C 229.678 220.901,228.858 244.478,246.400 251.259 C 248.266 251.980,278.351 252.050,280.200 251.337 C 280.860 251.083,281.741 250.764,282.157 250.628 C 282.574 250.492,282.835 250.302,282.739 250.205 C 282.642 250.108,281.671 250.325,280.581 250.687 C 278.064 251.523,253.819 251.937,249.112 251.225 C 232.190 248.664,228.555 225.948,243.904 218.677 L 246.600 217.400 263.400 217.400 L 280.200 217.400 282.800 218.644 C 285.374 219.875,288.864 222.869,289.976 224.800 C 291.215 226.953,292.000 228.797,292.000 229.557 C 292.000 229.995,292.206 230.480,292.458 230.636 C 292.785 230.838,292.835 230.585,292.633 229.760 C 291.117 223.558,285.597 218.360,279.028 216.949 C 275.773 216.250,250.791 216.264,247.592 216.967 M74.099 288.497 L 74.200 348.200 96.448 348.303 C 114.851 348.389,118.775 348.312,119.150 347.861 C 119.484 347.458,119.576 331.760,119.501 288.157 L 119.400 229.000 96.699 228.897 L 73.997 228.793 74.099 288.497 M118.800 288.400 L 118.800 347.600 96.600 347.600 L 74.400 347.600 74.400 288.400 L 74.400 229.200 96.600 229.200 L 118.800 229.200 118.800 288.400 M292.937 234.200 C 292.939 235.960,293.009 236.630,293.093 235.689 C 293.178 234.749,293.177 233.309,293.091 232.489 C 293.005 231.670,292.936 232.440,292.937 234.200 M292.292 237.842 C 292.131 238.002,292.011 238.598,292.025 239.167 L 292.051 240.200 292.437 239.234 C 292.853 238.194,292.767 237.367,292.292 237.842 M290.955 241.868 C 290.563 242.710,290.141 243.490,290.019 243.600 C 289.896 243.710,289.286 244.484,288.663 245.319 C 288.040 246.155,286.553 247.487,285.359 248.280 C 284.165 249.073,283.268 249.801,283.366 249.899 C 283.658 250.192,287.165 247.625,288.615 246.058 C 290.078 244.477,292.206 240.873,291.874 240.541 C 291.761 240.427,291.347 241.025,290.955 241.868 M192.508 251.586 C 190.734 252.391,189.174 254.404,189.242 255.800 C 189.268 256.332,189.422 256.161,189.702 255.287 C 190.760 251.986,194.869 250.548,197.924 252.410 C 200.380 253.907,200.400 254.085,200.400 273.954 C 200.400 283.844,200.509 292.219,200.643 292.567 C 200.860 293.133,203.119 293.200,222.035 293.200 L 243.185 293.200 243.377 292.300 C 243.483 291.805,243.635 287.620,243.716 283.000 C 243.868 274.293,243.867 274.294,245.921 270.124 C 247.919 266.068,252.389 262.017,256.200 260.809 C 257.080 260.530,258.113 260.144,258.495 259.951 C 258.877 259.758,261.025 259.600,263.268 259.600 C 270.707 259.600,275.759 262.341,280.594 269.000 C 280.913 269.440,281.180 269.617,281.187 269.394 C 281.216 268.463,276.919 263.801,274.723 262.382 C 264.188 255.572,250.615 259.366,245.155 270.646 C 243.436 274.197,242.832 278.950,242.809 289.104 L 242.800 292.807 221.900 292.704 L 201.000 292.600 200.800 273.800 C 200.598 254.844,200.528 254.010,199.028 252.649 C 196.967 250.780,194.992 250.458,192.508 251.586 M130.589 270.085 C 130.480 270.368,130.438 278.790,130.496 288.800 L 130.600 307.000 134.400 307.000 L 138.200 307.000 138.200 288.400 L 138.200 269.800 134.493 269.685 C 131.753 269.600,130.735 269.704,130.589 270.085 M281.230 270.300 C 281.290 270.911,282.742 273.784,282.770 273.349 C 282.807 272.790,281.661 270.000,281.395 270.000 C 281.288 270.000,281.213 270.135,281.230 270.300 M137.200 288.600 L 137.200 306.800 134.400 306.800 L 131.600 306.800 131.600 288.600 L 131.600 270.400 134.400 270.400 L 137.200 270.400 137.200 288.600 M260.247 270.964 C 255.604 272.692,254.335 275.961,254.488 285.800 L 254.600 293.000 263.300 293.108 C 268.085 293.167,272.000 293.077,272.000 292.908 C 272.000 292.739,268.175 292.600,263.500 292.600 L 255.000 292.600 254.884 286.000 C 254.817 282.216,254.951 278.663,255.197 277.672 C 257.319 269.122,268.371 268.485,271.406 276.738 C 271.820 277.863,271.950 277.990,271.972 277.292 C 272.024 275.615,269.689 272.639,267.235 271.256 C 265.797 270.445,262.061 270.289,260.247 270.964 M272.163 285.600 C 272.163 289.230,272.223 290.715,272.298 288.900 C 272.372 287.085,272.372 284.115,272.298 282.300 C 272.223 280.485,272.163 281.970,272.163 285.600 M11.692 359.500 L 11.800 367.400 27.400 367.400 L 43.000 367.400 43.108 359.500 L 43.217 351.600 27.400 351.600 L 11.583 351.600 11.692 359.500 M42.800 359.400 L 42.800 366.800 27.400 366.800 L 12.000 366.800 12.000 359.400 L 12.000 352.000 27.400 352.000 L 42.800 352.000 42.800 359.400 " stroke="none" fill="#355b57" fill-rule="evenodd"></path><path id="path4" d="M192.000 32.440 C 179.213 34.958,171.163 39.122,162.782 47.554 C 154.735 55.649,150.700 63.160,147.929 75.200 C 147.618 76.551,147.423 80.257,147.423 84.800 C 147.423 91.810,147.615 93.591,148.871 98.200 C 153.328 114.556,164.775 127.322,181.000 134.029 C 208.091 145.229,240.813 129.655,250.176 101.105 C 252.551 93.862,253.457 81.639,252.066 75.600 C 251.787 74.390,251.368 72.590,251.134 71.600 C 246.948 53.876,231.526 38.412,213.200 33.563 C 207.612 32.085,196.733 31.508,192.000 32.440 M211.200 47.537 C 215.676 49.867,216.398 51.582,216.405 59.896 C 216.413 68.874,215.676 68.000,223.241 68.000 C 236.525 68.000,238.400 70.078,238.400 84.800 C 238.400 96.750,237.604 98.528,231.081 101.150 C 230.412 101.419,227.336 101.600,223.425 101.600 L 216.888 101.600 216.722 108.900 C 216.431 121.722,214.315 123.408,198.865 123.130 C 190.206 122.974,188.683 122.616,186.263 120.167 C 183.977 117.855,183.816 117.190,183.600 109.200 L 183.400 101.800 176.400 101.585 C 163.193 101.181,161.866 99.530,162.073 83.765 L 162.200 74.129 163.332 72.496 C 165.814 68.919,167.534 68.331,176.400 68.034 L 183.400 67.800 183.600 60.400 C 183.833 51.762,184.104 50.947,187.626 48.293 C 190.535 46.100,207.401 45.559,211.200 47.537 M249.136 228.538 C 241.644 231.867,244.786 240.141,253.456 239.914 L 257.800 239.800 257.912 234.455 C 257.987 230.856,257.873 228.929,257.563 228.555 C 256.982 227.855,250.701 227.842,249.136 228.538 M269.214 228.774 C 268.521 230.069,268.680 239.403,269.406 240.005 C 270.187 240.653,277.011 240.344,278.405 239.597 C 282.729 237.283,282.648 231.194,278.262 228.829 C 276.066 227.645,269.839 227.607,269.214 228.774 M278.685 229.918 C 284.009 233.709,280.683 239.600,273.220 239.600 L 269.600 239.600 269.600 234.467 C 269.600 231.643,269.735 229.194,269.900 229.023 C 270.557 228.342,277.460 229.046,278.685 229.918 " stroke="none" fill="#8e272f" fill-rule="evenodd"></path></g></svg>