<svg id="svg" version="1.1" xmlns="http://www.w3.org/2000/svg" xmlns:xlink="http://www.w3.org/1999/xlink" width="400" height="400" viewBox="0, 0, 400,400"><g id="svgg"><path id="path0" d="M157.600 12.400 C 157.600 12.620,156.880 12.800,156.000 12.800 C 155.120 12.800,154.400 12.980,154.400 13.200 C 154.400 13.420,153.995 13.604,153.500 13.609 C 153.005 13.614,152.150 13.970,151.600 14.400 C 151.050 14.830,150.375 15.186,150.100 15.191 C 149.825 15.196,149.600 15.380,149.600 15.600 C 149.600 15.820,149.364 16.000,149.075 16.000 C 148.787 16.000,148.164 16.360,147.692 16.800 C 147.220 17.240,146.673 17.600,146.476 17.600 C 146.279 17.600,145.554 18.140,144.863 18.800 C 144.172 19.460,143.498 20.000,143.364 20.000 C 143.230 20.000,142.617 20.540,142.000 21.200 C 141.383 21.860,140.688 22.400,140.455 22.400 C 140.026 22.400,138.285 23.924,133.967 28.078 L 131.600 30.356 131.600 33.378 C 131.600 35.126,131.769 36.400,132.000 36.400 C 132.220 36.400,132.400 36.754,132.400 37.187 C 132.400 37.721,132.592 37.901,132.997 37.746 C 133.325 37.620,134.235 37.896,135.019 38.358 C 138.021 40.129,139.937 39.569,144.400 35.615 C 154.035 27.079,158.556 24.394,162.423 24.912 C 166.622 25.476,180.080 36.636,187.218 45.475 C 191.909 51.283,200.000 65.000,200.000 67.145 C 200.000 67.401,200.176 67.923,200.391 68.305 C 201.303 69.926,203.143 76.365,204.362 82.200 C 205.950 89.804,206.048 102.653,204.572 109.887 C 204.438 110.546,203.340 111.303,200.308 112.827 C 188.125 118.950,175.683 130.219,168.650 141.500 C 168.067 142.435,167.502 143.200,167.395 143.200 C 167.288 143.200,167.200 136.401,167.200 128.092 L 167.200 112.984 179.100 106.992 C 193.400 99.791,194.490 98.681,192.132 93.713 C 190.108 89.448,187.505 89.695,176.552 95.194 C 171.738 97.611,167.665 99.591,167.500 99.594 C 167.335 99.598,167.200 88.377,167.200 74.660 C 167.200 57.106,167.065 49.317,166.746 48.360 C 165.229 43.822,159.944 42.680,156.837 46.219 L 155.600 47.628 155.600 60.426 C 155.600 70.957,155.502 73.263,155.046 73.438 C 154.742 73.554,150.514 71.659,145.650 69.225 C 134.949 63.870,134.240 63.739,131.389 66.589 C 129.715 68.264,129.600 68.517,129.600 70.523 C 129.600 74.041,130.429 74.682,143.400 81.198 C 149.560 84.292,154.825 87.122,155.100 87.488 C 155.723 88.316,155.840 142.604,155.220 142.988 C 155.011 143.117,153.900 141.823,152.751 140.111 C 145.132 128.760,134.759 119.466,122.894 113.356 C 117.479 110.569,117.656 110.860,116.948 103.528 C 115.440 87.881,119.174 70.862,127.157 57.000 C 129.541 52.861,129.677 50.525,127.679 48.039 C 126.976 47.163,126.400 46.256,126.400 46.023 C 126.400 45.791,125.950 45.600,125.400 45.600 C 124.850 45.600,124.400 45.420,124.400 45.200 C 124.400 44.980,123.961 44.800,123.424 44.800 C 122.887 44.800,122.336 44.980,122.200 45.200 C 122.064 45.420,121.513 45.600,120.976 45.600 C 120.439 45.600,120.000 45.780,120.000 46.000 C 120.000 46.220,119.655 46.400,119.234 46.400 C 118.767 46.400,118.259 46.869,117.936 47.600 C 117.644 48.260,117.269 48.800,117.102 48.800 C 116.936 48.800,116.800 49.078,116.800 49.417 C 116.800 49.756,116.440 50.420,116.000 50.892 C 115.560 51.364,115.200 51.987,115.200 52.275 C 115.200 52.564,115.020 52.800,114.800 52.800 C 114.580 52.800,114.400 53.160,114.400 53.600 C 114.400 54.040,114.220 54.400,114.000 54.400 C 113.780 54.400,113.600 54.760,113.600 55.200 C 113.600 55.640,113.420 56.000,113.200 56.000 C 112.980 56.000,112.800 56.253,112.800 56.562 C 112.800 56.871,112.414 57.906,111.943 58.862 C 111.472 59.818,110.932 61.005,110.743 61.500 C 110.554 61.995,110.229 62.805,110.020 63.300 C 109.208 65.225,108.400 68.074,108.400 69.014 C 108.400 69.556,108.220 70.000,108.000 70.000 C 107.780 70.000,107.600 70.720,107.600 71.600 C 107.600 72.480,107.420 73.200,107.200 73.200 C 106.980 73.200,106.800 73.819,106.800 74.576 C 106.800 75.333,106.620 76.064,106.400 76.200 C 106.180 76.336,106.000 77.236,106.000 78.200 C 106.000 79.164,105.820 80.064,105.600 80.200 C 105.380 80.336,105.200 81.607,105.200 83.024 C 105.200 84.475,105.025 85.600,104.800 85.600 C 104.544 85.600,104.400 89.133,104.400 95.400 L 104.400 105.200 103.224 105.200 C 102.577 105.200,101.936 105.020,101.800 104.800 C 101.664 104.580,100.573 104.400,99.376 104.400 C 98.179 104.400,97.200 104.220,97.200 104.000 C 97.200 103.767,95.867 103.600,94.000 103.600 C 92.133 103.600,90.800 103.433,90.800 103.200 C 90.800 102.947,87.867 102.800,82.800 102.800 C 77.733 102.800,74.800 102.947,74.800 103.200 C 74.800 103.437,73.333 103.600,71.200 103.600 C 69.067 103.600,67.600 103.763,67.600 104.000 C 67.600 104.220,66.700 104.400,65.600 104.400 C 64.500 104.400,63.600 104.580,63.600 104.800 C 63.600 105.020,62.790 105.200,61.800 105.200 C 60.810 105.200,60.000 105.380,60.000 105.600 C 60.000 105.820,59.640 106.000,59.200 106.000 C 58.760 106.000,58.400 106.180,58.400 106.400 C 58.400 106.620,58.040 106.800,57.600 106.800 C 57.160 106.800,56.800 106.980,56.800 107.200 C 56.800 107.420,56.522 107.600,56.183 107.600 C 55.489 107.600,55.182 107.833,52.385 110.474 C 51.293 111.505,50.400 112.547,50.400 112.791 C 50.400 113.034,50.040 113.620,49.600 114.092 C 49.160 114.564,48.800 115.367,48.800 115.875 C 48.800 116.384,48.620 116.800,48.400 116.800 C 48.180 116.800,48.000 117.419,48.000 118.176 C 48.000 118.933,47.820 119.664,47.600 119.800 C 47.380 119.936,47.200 120.836,47.200 121.800 C 47.200 122.764,47.020 123.664,46.800 123.800 C 46.580 123.936,46.400 125.196,46.400 126.600 C 46.400 128.004,46.220 129.264,46.000 129.400 C 45.457 129.736,45.457 149.864,46.000 150.200 C 46.220 150.336,46.400 151.596,46.400 153.000 C 46.400 154.404,46.580 155.664,46.800 155.800 C 47.020 155.936,47.200 156.847,47.200 157.824 C 47.200 158.801,47.380 159.600,47.600 159.600 C 47.820 159.600,48.000 160.320,48.000 161.200 C 48.000 162.080,48.180 162.800,48.400 162.800 C 48.620 162.800,48.800 163.520,48.800 164.400 C 48.800 165.280,48.980 166.000,49.200 166.000 C 49.420 166.000,49.600 166.540,49.600 167.200 C 49.600 167.860,49.780 168.400,50.000 168.400 C 50.220 168.400,50.400 168.940,50.400 169.600 C 50.400 170.260,50.580 170.800,50.800 170.800 C 51.020 170.800,51.200 171.160,51.200 171.600 C 51.200 172.040,51.380 172.400,51.600 172.400 C 51.820 172.400,52.000 172.724,52.000 173.120 C 52.000 174.014,52.894 175.993,53.300 175.997 C 53.465 175.999,53.600 176.234,53.600 176.520 C 53.600 177.256,54.541 179.193,54.900 179.197 C 55.065 179.199,55.200 179.560,55.200 180.000 C 55.200 180.440,55.380 180.800,55.600 180.800 C 55.820 180.800,56.000 181.160,56.000 181.600 C 56.000 182.040,56.180 182.400,56.400 182.400 C 56.620 182.400,56.800 182.760,56.800 183.200 C 56.800 183.640,56.980 184.000,57.200 184.000 C 57.420 184.000,57.600 184.360,57.600 184.800 C 57.600 185.240,57.747 185.600,57.926 185.600 C 58.105 185.600,58.554 186.185,58.923 186.900 C 59.682 188.368,60.495 189.702,60.814 190.000 C 61.415 190.563,62.800 192.552,62.800 192.854 C 62.800 193.044,61.450 193.200,59.800 193.200 C 58.067 193.200,56.800 193.369,56.800 193.600 C 56.800 193.820,56.080 194.000,55.200 194.000 C 54.320 194.000,53.600 194.180,53.600 194.400 C 53.600 194.620,53.240 194.800,52.800 194.800 C 52.360 194.800,52.000 194.980,52.000 195.200 C 52.000 195.420,51.640 195.600,51.200 195.600 C 50.760 195.600,50.400 195.780,50.400 196.000 C 50.400 196.220,50.040 196.400,49.600 196.400 C 49.160 196.400,48.800 196.580,48.800 196.800 C 48.800 197.020,48.440 197.200,48.000 197.200 C 47.560 197.200,47.200 197.380,47.200 197.600 C 47.200 197.820,46.840 198.000,46.400 198.000 C 45.960 198.000,45.600 198.180,45.600 198.400 C 45.600 198.620,45.240 198.800,44.800 198.800 C 44.360 198.800,44.000 198.946,44.000 199.125 C 44.000 199.304,43.370 199.698,42.600 200.000 C 41.830 200.302,41.200 200.696,41.200 200.875 C 41.200 201.054,40.840 201.200,40.400 201.200 C 39.960 201.200,39.600 201.380,39.600 201.600 C 39.600 201.820,39.240 202.000,38.800 202.000 C 38.360 202.000,38.000 202.180,38.000 202.400 C 38.000 202.620,37.640 202.800,37.200 202.800 C 36.760 202.800,36.400 202.980,36.400 203.200 C 36.400 203.420,36.040 203.600,35.600 203.600 C 35.160 203.600,34.800 203.780,34.800 204.000 C 34.800 204.220,34.440 204.400,34.000 204.400 C 33.560 204.400,33.200 204.580,33.200 204.800 C 33.200 205.020,32.840 205.200,32.400 205.200 C 31.960 205.200,31.600 205.380,31.600 205.600 C 31.600 205.820,31.240 206.000,30.800 206.000 C 30.360 206.000,30.000 206.180,30.000 206.400 C 30.000 206.620,29.640 206.800,29.200 206.800 C 28.760 206.800,28.400 206.980,28.400 207.200 C 28.400 207.420,28.040 207.600,27.600 207.600 C 27.160 207.600,26.800 207.772,26.800 207.982 C 26.800 208.192,26.170 208.482,25.400 208.626 C 24.630 208.771,24.000 209.049,24.000 209.245 C 24.000 209.440,23.640 209.600,23.200 209.600 C 22.760 209.600,22.400 209.780,22.400 210.000 C 22.400 210.220,22.040 210.400,21.600 210.400 C 21.160 210.400,20.800 210.580,20.800 210.800 C 20.800 211.020,20.440 211.200,20.000 211.200 C 19.560 211.200,19.200 211.380,19.200 211.600 C 19.200 211.820,18.840 212.000,18.400 212.000 C 17.960 212.000,17.600 212.180,17.600 212.400 C 17.600 212.620,17.240 212.800,16.800 212.800 C 16.360 212.800,16.000 212.980,16.000 213.200 C 16.000 213.420,15.640 213.600,15.200 213.600 C 14.760 213.600,14.400 213.780,14.400 214.000 C 14.400 214.220,14.040 214.400,13.600 214.400 C 13.160 214.400,12.800 214.580,12.800 214.800 C 12.800 215.020,12.440 215.200,12.000 215.200 C 11.560 215.200,11.200 215.380,11.200 215.600 C 11.200 215.820,10.840 216.000,10.400 216.000 C 9.960 216.000,9.600 216.180,9.600 216.400 C 9.600 216.620,9.330 216.800,9.000 216.800 C 8.670 216.800,8.400 216.980,8.400 217.200 C 8.400 217.420,8.040 217.600,7.600 217.600 C 7.160 217.600,6.800 217.780,6.800 218.000 C 6.800 218.220,6.440 218.400,6.000 218.400 C 5.560 218.400,5.200 218.580,5.200 218.800 C 5.200 219.020,4.906 219.200,4.547 219.200 C 4.188 219.200,3.063 220.032,2.047 221.049 L 0.200 222.898 0.204 231.317 C 0.207 237.658,0.330 239.777,0.704 239.901 C 0.977 239.992,1.200 240.671,1.200 241.410 C 1.200 242.148,1.380 242.864,1.600 243.000 C 1.820 243.136,2.000 243.777,2.000 244.424 C 2.000 245.071,2.180 245.600,2.400 245.600 C 2.620 245.600,2.800 245.960,2.800 246.400 C 2.800 246.840,2.980 247.200,3.200 247.200 C 3.420 247.200,3.600 247.740,3.600 248.400 C 3.600 249.060,3.780 249.600,4.000 249.600 C 4.220 249.600,4.400 249.960,4.400 250.400 C 4.400 250.840,4.580 251.200,4.800 251.200 C 5.020 251.200,5.200 251.560,5.200 252.000 C 5.200 252.440,5.380 252.800,5.600 252.800 C 5.820 252.800,6.000 253.160,6.000 253.600 C 6.000 254.040,6.180 254.400,6.400 254.400 C 6.620 254.400,6.800 254.636,6.800 254.925 C 6.800 255.213,7.160 255.836,7.600 256.308 C 8.040 256.780,8.400 257.450,8.400 257.796 C 8.400 258.142,8.670 258.529,9.000 258.655 C 9.330 258.782,9.600 259.091,9.600 259.343 C 9.601 259.594,10.051 260.323,10.600 260.962 C 11.150 261.601,11.600 262.264,11.600 262.434 C 11.600 262.894,20.349 271.600,20.811 271.600 C 21.029 271.600,21.772 272.140,22.463 272.800 C 23.154 273.460,23.962 274.000,24.259 274.000 C 24.557 274.000,24.800 274.177,24.800 274.392 C 24.800 274.608,25.250 274.898,25.800 275.036 C 26.350 275.174,26.800 275.447,26.800 275.643 C 26.800 275.840,27.070 276.000,27.400 276.000 C 27.730 276.000,28.000 276.180,28.000 276.400 C 28.000 276.620,28.270 276.800,28.600 276.800 C 28.930 276.800,29.200 276.980,29.200 277.200 C 29.200 277.420,29.560 277.600,30.000 277.600 C 30.440 277.600,30.800 277.780,30.800 278.000 C 30.800 278.220,31.160 278.400,31.600 278.400 C 32.040 278.400,32.400 278.580,32.400 278.800 C 32.400 279.020,32.839 279.200,33.376 279.200 C 33.913 279.200,34.464 279.380,34.600 279.600 C 34.736 279.820,35.197 280.000,35.624 280.000 C 36.051 280.000,36.400 280.180,36.400 280.400 C 36.400 280.620,36.940 280.800,37.600 280.800 C 38.260 280.800,38.800 280.980,38.800 281.200 C 38.800 281.420,39.340 281.600,40.000 281.600 C 40.660 281.600,41.200 281.780,41.200 282.000 C 41.200 282.220,41.819 282.400,42.576 282.400 C 43.333 282.400,44.064 282.580,44.200 282.800 C 44.336 283.020,45.236 283.200,46.200 283.200 C 47.164 283.200,48.064 283.380,48.200 283.600 C 48.336 283.820,49.067 284.000,49.824 284.000 L 51.200 284.000 51.200 292.200 C 51.200 297.400,51.346 300.400,51.600 300.400 C 51.822 300.400,52.000 301.467,52.000 302.800 C 52.000 304.133,52.178 305.200,52.400 305.200 C 52.620 305.200,52.800 305.909,52.800 306.776 C 52.800 307.643,52.980 308.464,53.200 308.600 C 53.420 308.736,53.600 309.377,53.600 310.024 C 53.600 310.671,53.780 311.200,54.000 311.200 C 54.220 311.200,54.400 311.740,54.400 312.400 C 54.400 313.060,54.580 313.600,54.800 313.600 C 55.020 313.600,55.200 314.140,55.200 314.800 C 55.200 315.460,55.380 316.000,55.600 316.000 C 55.820 316.000,56.000 316.439,56.000 316.976 C 56.000 317.513,56.180 318.064,56.400 318.200 C 56.620 318.336,56.800 318.797,56.800 319.224 C 56.800 319.651,56.980 320.000,57.200 320.000 C 57.420 320.000,57.600 320.360,57.600 320.800 C 57.600 321.240,57.780 321.600,58.000 321.600 C 58.220 321.600,58.400 321.926,58.400 322.324 C 58.400 322.721,59.030 324.093,59.800 325.372 C 60.570 326.651,61.200 327.855,61.200 328.048 C 61.200 328.242,61.380 328.400,61.600 328.400 C 61.820 328.400,62.000 328.636,62.000 328.925 C 62.000 329.213,62.360 329.836,62.800 330.308 C 63.240 330.780,63.600 331.327,63.600 331.524 C 63.600 331.721,64.140 332.446,64.800 333.137 C 65.460 333.828,66.000 334.562,66.000 334.769 C 66.000 335.105,70.094 339.280,73.741 342.663 C 74.490 343.357,75.349 344.265,75.651 344.679 C 75.953 345.094,76.830 345.867,77.600 346.397 C 78.370 346.928,79.270 347.642,79.600 347.984 C 79.930 348.326,80.695 348.860,81.300 349.170 C 81.905 349.481,82.400 349.885,82.400 350.068 C 82.400 350.250,82.636 350.400,82.925 350.400 C 83.213 350.400,83.836 350.760,84.308 351.200 C 84.780 351.640,85.444 352.000,85.783 352.000 C 86.122 352.000,86.400 352.180,86.400 352.400 C 86.400 352.620,86.745 352.800,87.167 352.800 C 87.588 352.800,87.993 352.965,88.067 353.168 C 88.234 353.630,96.560 357.600,97.361 357.600 C 97.687 357.600,98.056 357.767,98.183 357.972 C 98.309 358.177,99.400 358.467,100.606 358.618 C 101.813 358.769,102.800 359.051,102.800 359.246 C 102.800 359.441,103.520 359.600,104.400 359.600 C 105.280 359.600,106.000 359.780,106.000 360.000 C 106.000 360.220,106.900 360.400,108.000 360.400 C 109.100 360.400,110.000 360.580,110.000 360.800 C 110.000 361.031,111.267 361.200,113.000 361.200 L 116.000 361.200 116.000 369.951 C 116.000 378.832,116.231 380.489,117.689 382.077 C 117.970 382.383,118.392 382.974,118.627 383.390 C 118.861 383.806,119.399 384.339,119.821 384.573 C 120.243 384.808,120.882 385.315,121.241 385.700 C 121.600 386.085,122.188 386.400,122.547 386.400 C 122.906 386.400,123.200 386.580,123.200 386.800 C 123.200 387.020,123.740 387.200,124.400 387.200 C 125.060 387.200,125.600 387.380,125.600 387.600 C 125.600 388.509,144.853 388.095,146.822 387.144 C 148.856 386.161,149.569 385.376,149.587 384.100 C 149.594 383.605,149.780 383.200,150.000 383.200 C 150.635 383.200,150.464 381.710,149.800 381.455 C 149.470 381.329,149.199 380.814,149.199 380.313 C 149.192 376.545,146.740 375.601,136.940 375.594 C 127.016 375.586,127.958 376.397,128.090 367.970 L 128.200 361.000 212.600 360.897 C 291.596 360.801,297.032 360.838,297.500 361.474 C 298.424 362.729,298.186 374.672,297.226 375.186 C 296.702 375.467,275.411 375.600,231.187 375.600 C 171.682 375.600,165.800 375.658,164.547 376.252 C 162.923 377.023,162.128 378.051,161.575 380.100 C 161.352 380.925,160.996 381.600,160.785 381.600 C 160.573 381.600,160.400 382.140,160.400 382.800 C 160.400 383.460,160.580 384.000,160.800 384.000 C 161.020 384.000,161.200 384.283,161.200 384.629 C 161.200 385.428,161.920 386.144,163.763 387.179 C 165.415 388.107,300.400 388.523,300.400 387.600 C 300.400 387.380,300.940 387.200,301.600 387.200 C 302.260 387.200,302.800 387.020,302.800 386.800 C 302.800 386.580,303.120 386.400,303.512 386.400 C 303.903 386.400,304.483 386.040,304.800 385.600 C 305.117 385.160,305.567 384.800,305.800 384.800 C 306.033 384.800,306.488 384.423,306.812 383.963 C 307.135 383.502,307.715 382.755,308.100 382.301 C 308.485 381.848,308.800 381.145,308.800 380.739 C 308.800 380.332,308.980 380.000,309.200 380.000 C 309.420 380.000,309.600 379.021,309.600 377.824 C 309.600 376.627,309.780 375.536,310.000 375.400 C 310.242 375.250,310.400 372.396,310.400 368.176 L 310.400 361.200 313.200 361.200 C 314.800 361.200,316.000 361.029,316.000 360.800 C 316.000 360.580,316.900 360.400,318.000 360.400 C 319.100 360.400,320.000 360.220,320.000 360.000 C 320.000 359.780,320.619 359.600,321.376 359.600 C 322.133 359.600,322.851 359.441,322.971 359.246 C 323.092 359.052,324.047 358.765,325.095 358.609 C 326.143 358.453,327.180 358.188,327.400 358.021 C 327.620 357.853,328.655 357.471,329.700 357.171 C 330.745 356.871,331.600 356.485,331.600 356.313 C 331.600 356.141,331.872 356.000,332.205 356.000 C 332.843 356.000,333.437 355.749,335.400 354.648 C 336.060 354.278,337.275 353.669,338.100 353.294 C 338.925 352.918,339.600 352.474,339.600 352.306 C 339.600 352.138,339.787 352.000,340.016 352.000 C 340.433 352.000,342.504 350.639,343.518 349.700 C 343.814 349.425,344.216 349.200,344.410 349.200 C 344.605 349.200,345.214 348.750,345.764 348.200 C 346.314 347.650,346.936 347.200,347.147 347.200 C 347.358 347.200,348.627 346.120,349.968 344.800 C 351.308 343.480,352.525 342.400,352.671 342.400 C 353.181 342.400,359.600 335.424,359.600 334.870 C 359.600 334.677,360.140 333.954,360.800 333.263 C 361.460 332.572,362.000 331.775,362.000 331.492 C 362.000 331.209,362.360 330.717,362.800 330.400 C 363.240 330.083,363.600 329.543,363.600 329.200 C 363.600 328.857,363.960 328.317,364.400 328.000 C 364.840 327.683,365.200 327.103,365.200 326.712 C 365.200 326.320,365.346 326.000,365.525 326.000 C 365.704 326.000,366.098 325.370,366.400 324.600 C 366.702 323.830,367.096 323.200,367.275 323.200 C 367.454 323.200,367.600 322.840,367.600 322.400 C 367.600 321.960,367.780 321.600,368.000 321.600 C 368.220 321.600,368.400 321.240,368.400 320.800 C 368.400 320.360,368.580 320.000,368.800 320.000 C 369.020 320.000,369.200 319.651,369.200 319.224 C 369.200 318.797,369.380 318.336,369.600 318.200 C 369.820 318.064,370.000 317.513,370.000 316.976 C 370.000 316.439,370.180 316.000,370.400 316.000 C 370.620 316.000,370.800 315.561,370.800 315.024 C 370.800 314.487,370.980 313.936,371.200 313.800 C 371.420 313.664,371.600 313.023,371.600 312.376 C 371.600 311.729,371.760 311.200,371.956 311.200 C 372.291 311.200,372.517 310.278,373.058 306.697 C 373.182 305.871,373.445 305.095,373.642 304.974 C 373.839 304.852,374.000 303.784,374.000 302.600 C 374.000 301.416,374.180 300.336,374.400 300.200 C 374.663 300.038,374.800 284.372,374.800 254.505 C 374.800 209.639,374.755 207.890,373.551 205.505 C 373.358 205.123,373.200 204.538,373.200 204.205 C 373.200 203.872,373.020 203.600,372.800 203.600 C 372.580 203.600,372.397 203.375,372.393 203.100 C 372.364 201.093,365.073 194.800,362.777 194.800 C 362.350 194.800,362.000 194.620,362.000 194.400 C 362.000 194.180,361.471 194.000,360.824 194.000 C 360.177 194.000,359.536 193.820,359.400 193.600 C 359.250 193.357,356.329 193.200,351.976 193.200 C 345.171 193.200,344.800 193.160,344.800 192.433 C 344.800 192.012,344.935 191.607,345.100 191.533 C 345.532 191.341,347.200 188.028,347.200 187.362 C 347.200 187.053,347.380 186.800,347.600 186.800 C 347.820 186.800,348.000 186.535,348.000 186.212 C 348.000 185.889,348.360 184.983,348.800 184.200 C 349.240 183.417,349.600 182.511,349.600 182.188 C 349.600 181.865,349.780 181.600,350.000 181.600 C 350.220 181.600,350.400 181.240,350.400 180.800 C 350.400 180.360,350.580 180.000,350.800 180.000 C 351.020 180.000,351.200 179.640,351.200 179.200 C 351.200 178.760,351.335 178.399,351.500 178.397 C 351.665 178.395,351.987 177.990,352.217 177.497 C 352.803 176.235,354.560 173.040,354.800 172.800 C 354.910 172.690,355.368 171.880,355.818 171.000 L 356.637 169.400 360.118 169.284 C 362.033 169.221,363.600 168.996,363.600 168.784 C 363.600 168.573,364.320 168.400,365.200 168.400 C 366.080 168.400,366.800 168.220,366.800 168.000 C 366.800 167.780,367.053 167.600,367.362 167.600 C 368.156 167.600,371.274 165.936,372.047 165.100 C 372.403 164.715,372.832 164.400,373.000 164.400 C 373.382 164.400,374.800 162.791,374.800 162.357 C 374.800 162.181,375.250 161.586,375.800 161.036 C 376.350 160.486,376.800 159.758,376.800 159.418 C 376.800 159.078,376.935 158.799,377.100 158.797 C 377.506 158.793,378.400 156.814,378.400 155.920 C 378.400 155.524,378.580 155.200,378.800 155.200 C 379.044 155.200,379.201 153.365,379.203 150.500 L 379.206 145.800 380.283 145.300 C 380.875 145.025,381.594 144.800,381.880 144.800 C 382.166 144.800,382.400 144.620,382.400 144.400 C 382.400 144.180,382.631 144.000,382.914 144.000 C 383.892 144.000,389.600 138.666,389.600 137.752 C 389.600 137.448,389.747 137.200,389.926 137.200 C 390.274 137.200,391.600 134.642,391.600 133.970 C 391.600 133.748,391.960 133.180,392.400 132.708 C 392.840 132.236,393.200 131.613,393.200 131.325 C 393.200 131.036,393.380 130.800,393.600 130.800 C 393.820 130.800,394.000 130.440,394.000 130.000 C 394.000 129.560,394.180 129.200,394.400 129.200 C 394.620 129.200,394.800 128.880,394.800 128.488 C 394.800 128.097,395.160 127.517,395.600 127.200 C 396.040 126.883,396.400 126.303,396.400 125.912 C 396.400 125.520,396.580 125.200,396.800 125.200 C 397.020 125.200,397.200 124.840,397.200 124.400 C 397.200 123.960,397.380 123.600,397.600 123.600 C 397.820 123.600,398.000 123.328,398.000 122.995 C 398.000 122.662,398.159 122.077,398.353 121.695 C 399.769 118.911,399.800 118.651,399.800 109.400 C 399.800 103.410,399.642 99.781,399.354 99.161 C 398.883 98.149,398.412 97.045,397.536 94.900 C 397.244 94.185,396.869 93.600,396.702 93.600 C 396.536 93.600,396.400 93.280,396.400 92.888 C 396.400 92.497,396.040 91.917,395.600 91.600 C 395.160 91.283,394.800 90.822,394.800 90.575 C 394.800 89.785,388.586 83.200,387.840 83.200 C 387.585 83.200,387.117 82.840,386.800 82.400 C 386.483 81.960,385.903 81.600,385.512 81.600 C 385.120 81.600,384.800 81.420,384.800 81.200 C 384.800 80.980,384.564 80.800,384.275 80.800 C 383.987 80.800,383.364 80.440,382.892 80.000 C 382.420 79.560,381.756 79.200,381.417 79.200 C 381.078 79.200,380.800 79.020,380.800 78.800 C 380.800 78.580,380.455 78.400,380.033 78.400 C 379.612 78.400,379.207 78.251,379.133 78.068 C 379.013 77.767,374.720 75.280,372.503 74.226 C 372.010 73.992,371.605 73.665,371.603 73.500 C 371.601 73.335,371.240 73.200,370.800 73.200 C 370.360 73.200,370.000 73.020,370.000 72.800 C 370.000 72.580,369.730 72.400,369.400 72.400 C 369.070 72.400,368.800 72.220,368.800 72.000 C 368.800 71.780,368.530 71.600,368.200 71.600 C 367.870 71.600,367.600 71.420,367.600 71.200 C 367.600 70.980,367.240 70.800,366.800 70.800 C 366.360 70.800,366.000 70.620,366.000 70.400 C 366.000 70.180,365.722 70.000,365.383 70.000 C 365.044 70.000,364.380 69.640,363.908 69.200 C 363.436 68.760,362.813 68.400,362.525 68.400 C 362.236 68.400,362.000 68.220,362.000 68.000 C 362.000 67.780,361.640 67.600,361.200 67.600 C 360.760 67.600,360.400 67.420,360.400 67.200 C 360.400 66.980,360.040 66.800,359.600 66.800 C 359.160 66.800,358.800 66.620,358.800 66.400 C 358.800 66.180,358.361 66.000,357.824 66.000 C 357.287 66.000,356.736 65.820,356.600 65.600 C 356.464 65.380,355.834 65.200,355.200 65.200 C 354.566 65.200,353.936 65.020,353.800 64.800 C 353.664 64.580,352.483 64.400,351.176 64.400 C 349.859 64.400,348.800 64.222,348.800 64.000 C 348.800 63.769,347.533 63.600,345.800 63.600 C 344.067 63.600,342.800 63.769,342.800 64.000 C 342.800 64.222,341.733 64.400,340.400 64.400 C 339.067 64.400,338.000 64.578,338.000 64.800 C 338.000 65.020,337.381 65.200,336.624 65.200 C 335.867 65.200,335.136 65.380,335.000 65.600 C 334.864 65.820,334.403 66.000,333.976 66.000 C 333.549 66.000,333.200 66.180,333.200 66.400 C 333.200 66.620,332.795 66.804,332.300 66.809 C 331.805 66.814,330.950 67.170,330.400 67.600 C 329.850 68.030,329.175 68.386,328.900 68.391 C 328.625 68.396,328.400 68.580,328.400 68.800 C 328.400 69.020,328.157 69.200,327.859 69.200 C 327.562 69.200,326.754 69.740,326.063 70.400 C 325.372 71.060,324.711 71.600,324.593 71.600 C 324.249 71.600,320.800 75.147,320.800 75.501 C 320.800 75.678,320.440 76.083,320.000 76.400 C 319.560 76.717,319.200 77.207,319.200 77.488 C 319.200 77.770,319.020 78.000,318.800 78.000 C 318.580 78.000,318.400 78.270,318.400 78.600 C 318.400 78.930,318.220 79.200,318.000 79.200 C 317.780 79.200,317.600 79.478,317.600 79.817 C 317.600 80.156,317.240 80.820,316.800 81.292 C 316.360 81.764,316.000 82.387,316.000 82.675 C 316.000 82.964,315.820 83.200,315.600 83.200 C 315.380 83.200,315.200 83.560,315.200 84.000 C 315.200 84.440,315.020 84.800,314.800 84.800 C 314.580 84.800,314.400 85.036,314.400 85.325 C 314.400 85.613,314.040 86.236,313.600 86.708 C 313.160 87.180,312.800 87.844,312.800 88.183 C 312.800 88.522,312.620 88.800,312.400 88.800 C 312.180 88.800,312.000 89.160,312.000 89.600 C 312.000 90.040,311.852 90.400,311.671 90.400 C 311.365 90.400,310.399 92.397,309.185 95.544 C 308.880 96.335,308.667 98.598,308.667 101.044 C 308.667 104.241,308.544 105.200,308.133 105.200 C 307.840 105.200,307.600 105.380,307.600 105.600 C 307.600 105.820,307.240 106.000,306.800 106.000 C 306.360 106.000,306.000 106.180,306.000 106.400 C 306.000 106.620,305.680 106.800,305.288 106.800 C 304.897 106.800,304.317 107.160,304.000 107.600 C 303.683 108.040,303.187 108.400,302.898 108.400 C 302.389 108.400,299.600 110.940,299.600 111.403 C 299.600 111.530,299.240 112.020,298.800 112.492 C 298.360 112.964,298.000 113.587,298.000 113.875 C 298.000 114.164,297.820 114.400,297.600 114.400 C 297.380 114.400,297.200 114.749,297.200 115.176 C 297.200 115.603,297.020 116.064,296.800 116.200 C 296.580 116.336,296.400 116.966,296.400 117.600 C 296.400 118.234,296.220 118.864,296.000 119.000 C 295.775 119.139,295.600 121.063,295.600 123.400 C 295.600 125.737,295.775 127.661,296.000 127.800 C 296.220 127.936,296.400 128.667,296.400 129.424 C 296.400 130.181,296.580 130.800,296.800 130.800 C 297.020 130.800,297.200 131.160,297.200 131.600 C 297.200 132.040,297.380 132.400,297.600 132.400 C 297.820 132.400,298.000 132.760,298.000 133.200 C 298.000 133.640,298.135 134.001,298.300 134.003 C 298.659 134.007,299.600 135.944,299.600 136.680 C 299.600 136.966,299.420 137.200,299.200 137.200 C 298.980 137.200,298.800 137.560,298.800 138.000 C 298.800 138.440,298.620 138.800,298.400 138.800 C 298.180 138.800,298.000 139.036,298.000 139.325 C 298.000 139.613,297.685 140.198,297.300 140.625 C 296.915 141.051,296.345 141.895,296.032 142.500 C 295.720 143.105,295.315 143.600,295.132 143.600 C 294.950 143.600,294.800 143.804,294.800 144.052 C 294.800 144.301,294.170 145.381,293.400 146.453 C 292.630 147.525,292.000 148.632,292.000 148.913 C 292.000 149.194,291.640 149.683,291.200 150.000 C 290.760 150.317,290.400 150.857,290.400 151.200 C 290.400 151.543,290.040 152.083,289.600 152.400 C 289.160 152.717,288.800 153.257,288.800 153.600 C 288.800 153.943,288.440 154.483,288.000 154.800 C 287.560 155.117,287.200 155.580,287.200 155.829 C 287.200 156.078,286.660 156.846,286.000 157.537 C 285.340 158.228,284.800 158.935,284.800 159.108 C 284.800 159.281,284.440 159.683,284.000 160.000 C 283.560 160.317,283.200 160.807,283.200 161.088 C 283.200 161.370,283.020 161.600,282.800 161.600 C 282.580 161.600,282.400 161.782,282.400 162.004 C 282.400 162.226,281.860 162.972,281.200 163.663 C 280.540 164.354,280.000 165.090,280.000 165.299 C 280.000 165.508,279.490 166.156,278.867 166.740 C 278.243 167.323,277.499 168.239,277.212 168.775 C 276.640 169.846,276.248 170.360,274.900 171.801 C 274.405 172.330,274.000 172.962,274.000 173.204 C 274.000 173.447,273.100 174.508,272.000 175.563 C 270.900 176.617,270.000 177.605,270.000 177.758 C 270.000 178.198,267.974 180.108,267.748 179.881 C 267.636 179.769,267.737 179.300,267.972 178.839 C 268.208 178.378,268.580 177.642,268.800 177.205 C 269.020 176.768,269.200 176.138,269.200 175.805 C 269.200 175.472,269.380 175.200,269.600 175.200 C 269.820 175.200,270.000 174.840,270.000 174.400 C 270.000 173.960,270.180 173.600,270.400 173.600 C 270.620 173.600,270.800 173.150,270.800 172.600 C 270.800 172.050,270.980 171.600,271.200 171.600 C 271.420 171.600,271.600 171.180,271.600 170.667 C 271.600 170.153,271.723 169.610,271.874 169.459 C 272.274 169.059,273.187 166.317,273.194 165.495 C 273.197 165.107,273.358 164.477,273.551 164.095 C 274.317 162.579,274.784 160.449,275.044 157.287 C 275.194 155.465,275.471 153.880,275.659 153.764 C 275.846 153.648,276.000 151.943,276.000 149.976 C 276.000 147.859,276.163 146.400,276.400 146.400 C 276.651 146.400,276.800 143.867,276.800 139.600 C 276.800 135.333,276.651 132.800,276.400 132.800 C 276.163 132.800,276.000 131.333,276.000 129.200 C 276.000 127.220,275.846 125.600,275.658 125.600 C 275.469 125.600,275.191 124.116,275.040 122.301 C 274.740 118.708,273.462 114.432,272.321 113.207 C 271.924 112.782,271.600 112.283,271.600 112.100 C 271.600 111.584,268.231 108.400,267.685 108.400 C 267.418 108.400,267.200 108.220,267.200 108.000 C 267.200 107.780,266.930 107.600,266.600 107.600 C 266.270 107.600,266.000 107.420,266.000 107.200 C 266.000 106.980,265.640 106.800,265.200 106.800 C 264.760 106.800,264.400 106.620,264.400 106.400 C 264.400 106.180,263.860 106.000,263.200 106.000 C 262.540 106.000,262.000 105.820,262.000 105.600 C 262.000 105.380,261.280 105.200,260.400 105.200 C 259.520 105.200,258.800 105.020,258.800 104.800 C 258.800 104.580,257.911 104.400,256.824 104.400 C 255.737 104.400,254.736 104.220,254.600 104.000 C 254.464 103.780,252.923 103.600,251.176 103.600 C 249.325 103.600,248.000 103.433,248.000 103.200 C 248.000 102.946,245.000 102.800,239.800 102.800 C 234.600 102.800,231.600 102.946,231.600 103.200 C 231.600 103.431,230.341 103.600,228.624 103.600 C 226.987 103.600,225.536 103.780,225.400 104.000 C 225.264 104.220,224.173 104.400,222.976 104.400 C 221.779 104.400,220.800 104.580,220.800 104.800 C 220.800 105.020,220.080 105.200,219.200 105.200 C 217.643 105.200,216.982 104.429,218.000 103.800 C 218.243 103.650,218.400 100.737,218.400 96.400 C 218.400 92.063,218.243 89.150,218.000 89.000 C 217.780 88.864,217.600 87.323,217.600 85.576 C 217.600 83.725,217.433 82.400,217.200 82.400 C 216.980 82.400,216.800 81.421,216.800 80.224 C 216.800 79.027,216.620 77.936,216.400 77.800 C 216.180 77.664,216.000 76.933,216.000 76.176 C 216.000 75.419,215.820 74.800,215.600 74.800 C 215.380 74.800,215.200 74.080,215.200 73.200 C 215.200 72.320,215.020 71.600,214.800 71.600 C 214.580 71.600,214.400 70.981,214.400 70.224 C 214.400 69.467,214.220 68.736,214.000 68.600 C 213.780 68.464,213.600 67.823,213.600 67.176 C 213.600 66.529,213.420 66.000,213.200 66.000 C 212.980 66.000,212.800 65.640,212.800 65.200 C 212.800 64.760,212.620 64.400,212.400 64.400 C 212.180 64.400,212.000 63.860,212.000 63.200 C 212.000 62.540,211.820 62.000,211.600 62.000 C 211.380 62.000,211.200 61.651,211.200 61.224 C 211.200 60.797,211.020 60.336,210.800 60.200 C 210.580 60.064,210.400 59.603,210.400 59.176 C 210.400 58.749,210.220 58.400,210.000 58.400 C 209.780 58.400,209.600 58.040,209.600 57.600 C 209.600 57.160,209.420 56.800,209.200 56.800 C 208.980 56.800,208.800 56.497,208.800 56.126 C 208.800 55.329,206.044 49.860,205.545 49.667 C 205.355 49.593,205.200 49.271,205.200 48.950 C 205.200 48.629,204.840 47.980,204.400 47.508 C 203.960 47.036,203.600 46.413,203.600 46.125 C 203.600 45.836,203.420 45.600,203.200 45.600 C 202.980 45.600,202.800 45.375,202.800 45.100 C 202.799 44.620,201.931 43.461,199.797 41.093 C 199.249 40.484,198.800 39.795,198.800 39.562 C 198.800 39.328,198.080 38.446,197.200 37.600 C 196.320 36.754,195.600 35.879,195.600 35.655 C 195.600 35.072,185.530 24.800,184.958 24.800 C 184.695 24.800,183.562 23.900,182.439 22.800 C 181.315 21.700,180.199 20.800,179.958 20.800 C 179.718 20.800,179.017 20.260,178.400 19.600 C 177.783 18.940,177.031 18.400,176.728 18.400 C 176.425 18.400,175.917 18.040,175.600 17.600 C 175.283 17.160,174.876 16.800,174.695 16.800 C 174.514 16.800,173.980 16.440,173.508 16.000 C 173.036 15.560,172.413 15.200,172.125 15.200 C 171.836 15.200,171.600 15.020,171.600 14.800 C 171.600 14.580,171.240 14.400,170.800 14.400 C 170.360 14.400,170.000 14.220,170.000 14.000 C 170.000 13.780,169.651 13.600,169.224 13.600 C 168.797 13.600,168.336 13.420,168.200 13.200 C 168.064 12.980,167.344 12.800,166.600 12.800 C 165.856 12.800,165.136 12.620,165.000 12.400 C 164.864 12.180,163.143 12.000,161.176 12.000 C 159.059 12.000,157.600 12.163,157.600 12.400 M350.617 76.947 C 353.095 77.607,355.038 78.494,358.341 80.476 C 359.738 81.314,360.947 82.000,361.027 82.000 C 361.107 82.000,363.114 83.139,365.486 84.532 C 367.859 85.924,372.136 88.399,374.990 90.032 C 384.436 95.434,388.414 101.213,388.395 109.506 C 388.383 114.346,388.317 114.368,382.968 111.259 C 380.753 109.972,377.964 108.376,376.770 107.712 C 375.577 107.048,372.350 105.199,369.600 103.603 C 366.850 102.007,364.048 100.385,363.374 99.999 C 362.700 99.613,359.730 97.889,356.774 96.167 C 348.937 91.603,347.300 90.800,345.838 90.800 C 340.766 90.800,338.287 97.263,342.065 100.634 C 342.900 101.379,353.017 107.351,358.800 110.513 C 360.010 111.174,361.180 111.850,361.400 112.015 C 361.620 112.180,362.475 112.694,363.300 113.157 C 365.416 114.346,366.888 115.197,371.000 117.609 C 372.980 118.770,376.040 120.533,377.800 121.527 C 379.560 122.520,381.389 123.632,381.865 123.997 L 382.731 124.661 380.914 127.830 C 376.097 136.230,374.031 136.302,361.000 128.528 C 358.800 127.215,356.010 125.594,354.800 124.925 C 353.590 124.256,350.980 122.761,349.000 121.603 C 347.020 120.445,344.860 119.187,344.200 118.807 C 343.540 118.428,339.940 116.353,336.200 114.197 C 327.780 109.343,326.803 108.784,325.787 108.237 C 320.341 105.307,319.702 101.497,323.535 94.800 C 324.605 92.930,326.356 89.870,327.425 88.000 C 332.633 78.894,341.700 74.572,350.617 76.947 M93.600 116.070 C 96.205 116.449,101.532 117.672,105.400 118.779 C 119.956 122.944,134.220 133.582,143.189 146.962 C 145.368 150.214,149.993 159.005,149.997 159.905 C 149.999 160.183,150.171 160.723,150.381 161.105 C 150.789 161.849,152.020 165.580,152.721 168.200 C 154.399 174.466,154.962 179.103,154.982 186.800 L 155.000 193.800 150.033 193.913 L 145.066 194.026 135.904 184.913 C 130.866 179.901,126.600 175.530,126.425 175.200 C 126.223 174.819,127.615 170.075,130.239 162.200 C 135.103 147.604,135.207 146.469,131.882 144.290 C 126.726 140.912,124.224 143.292,120.197 155.400 C 118.515 160.460,116.970 164.773,116.764 164.985 C 116.529 165.227,109.781 158.780,98.495 147.528 C 79.497 128.587,79.739 128.800,77.206 128.800 C 74.366 128.800,72.490 130.189,71.603 132.950 C 70.677 135.833,71.250 136.657,80.848 146.248 C 85.662 151.058,89.600 155.196,89.600 155.443 C 89.600 155.690,85.325 157.304,80.100 159.029 C 68.267 162.935,67.602 163.448,67.955 168.376 C 68.163 171.280,71.085 173.489,74.158 173.067 C 75.580 172.872,89.160 168.575,91.400 167.613 C 92.831 166.997,98.673 165.200,99.242 165.200 C 99.803 165.200,128.000 193.141,128.000 193.698 C 128.000 193.864,117.496 194.000,104.658 194.000 L 81.317 194.000 78.305 190.900 C 71.961 184.370,67.801 178.126,63.846 169.200 C 58.767 157.739,56.846 141.184,59.015 127.583 C 60.552 117.952,60.827 117.710,72.200 116.000 C 77.718 115.170,87.638 115.203,93.600 116.070 M250.000 115.996 C 250.990 116.179,253.150 116.551,254.800 116.824 C 260.297 117.733,261.867 119.303,262.776 124.800 C 263.049 126.450,263.436 128.664,263.636 129.720 C 264.106 132.197,264.109 147.375,263.641 149.880 C 263.443 150.936,263.066 153.060,262.802 154.600 C 260.589 167.520,253.823 180.682,244.245 190.700 L 241.090 194.000 218.012 194.000 C 205.319 194.000,194.805 193.872,194.648 193.715 C 194.492 193.558,200.778 187.021,208.618 179.188 L 222.872 164.945 235.336 169.102 C 250.436 174.138,251.964 174.208,254.081 169.965 C 256.589 164.938,254.561 163.065,242.206 158.998 C 237.033 157.295,232.800 155.707,232.800 155.469 C 232.800 155.232,236.850 150.963,241.800 145.983 L 250.800 136.928 250.800 134.626 C 250.800 130.962,248.719 128.800,245.194 128.800 C 242.658 128.800,242.894 128.592,223.909 147.531 C 212.438 158.974,205.882 165.239,205.637 164.989 C 205.428 164.775,203.886 160.460,202.212 155.400 C 199.565 147.400,198.991 146.034,197.816 144.924 C 194.399 141.699,189.224 143.508,188.216 148.280 C 188.002 149.293,188.788 152.100,191.973 161.698 C 194.188 168.373,196.000 174.192,196.000 174.629 C 196.000 175.132,192.585 178.826,186.668 184.724 L 177.335 194.026 172.368 193.913 L 167.400 193.800 167.267 187.800 C 167.097 180.152,167.890 174.438,170.375 165.400 C 176.063 144.714,196.418 124.185,216.600 118.777 C 224.715 116.602,227.628 116.055,233.600 115.584 C 237.840 115.249,247.233 115.485,250.000 115.996 M318.319 117.132 C 319.134 117.535,320.430 118.233,321.200 118.682 C 321.970 119.132,324.400 120.532,326.600 121.795 C 328.800 123.058,331.185 124.430,331.900 124.845 C 332.615 125.260,333.806 125.943,334.547 126.363 C 335.287 126.783,337.106 127.863,338.588 128.763 C 340.069 129.663,341.338 130.400,341.406 130.400 C 341.512 130.400,350.828 135.763,361.600 142.024 C 363.250 142.983,364.812 143.974,365.071 144.226 C 369.639 148.673,366.606 156.511,360.299 156.562 C 357.525 156.584,358.421 156.998,347.000 150.413 C 343.480 148.383,339.880 146.315,339.000 145.818 C 338.120 145.320,336.410 144.322,335.200 143.600 C 333.990 142.879,332.415 141.953,331.700 141.544 C 328.046 139.453,324.799 137.600,323.000 136.580 C 309.097 128.696,308.200 127.911,308.200 123.632 C 308.200 118.158,313.505 114.751,318.319 117.132 M312.488 143.544 C 313.210 143.953,314.790 144.879,316.000 145.600 C 317.210 146.321,318.785 147.247,319.500 147.656 C 320.215 148.065,321.385 148.735,322.100 149.145 C 322.815 149.554,326.280 151.553,329.800 153.588 C 333.320 155.622,337.923 158.276,340.028 159.487 C 342.134 160.698,344.265 161.997,344.765 162.374 L 345.674 163.059 343.328 167.430 C 339.602 174.370,335.432 183.054,331.633 191.786 C 331.158 192.878,330.551 193.911,330.284 194.080 C 329.549 194.548,272.800 194.479,272.800 194.010 C 272.800 193.796,274.735 191.410,277.100 188.707 C 279.465 186.005,282.120 182.895,283.000 181.797 C 283.880 180.699,284.700 179.710,284.822 179.600 C 285.216 179.245,293.400 168.646,294.397 167.200 C 294.927 166.430,295.477 165.710,295.617 165.600 C 295.975 165.321,306.174 150.109,308.691 146.100 C 311.037 142.366,310.750 142.559,312.488 143.544 M357.288 206.018 C 361.397 207.159,363.771 212.897,362.637 218.945 L 362.364 220.401 212.882 220.301 L 63.400 220.200 63.290 213.415 C 63.229 209.683,63.269 206.398,63.377 206.115 C 63.634 205.445,354.879 205.349,357.288 206.018 M51.800 240.633 L 51.800 271.400 50.000 271.272 C 49.010 271.201,47.615 270.976,46.900 270.772 C 46.185 270.567,44.925 270.208,44.100 269.974 C 32.679 266.727,20.984 256.682,16.029 245.863 C 13.153 239.583,10.967 230.462,12.073 229.355 C 12.859 228.569,50.918 209.586,51.400 209.739 C 51.662 209.823,51.800 220.474,51.800 240.633 M362.557 232.233 C 362.974 233.318,362.815 288.285,362.377 294.400 C 361.253 310.134,354.432 324.300,343.187 334.258 C 341.984 335.323,340.910 336.295,340.800 336.417 C 340.690 336.539,339.970 337.074,339.200 337.606 C 338.430 338.138,337.565 338.802,337.277 339.081 C 334.212 342.056,322.448 347.021,314.600 348.652 C 309.083 349.798,116.576 349.821,111.200 348.676 C 97.090 345.670,86.610 339.408,76.690 328.055 C 70.202 320.629,65.564 309.805,63.620 297.554 C 63.156 294.628,63.010 232.323,63.467 231.867 C 64.126 231.207,362.304 231.572,362.557 232.233 M204.361 246.383 C 197.063 247.706,194.700 251.747,194.409 263.400 L 194.200 271.800 186.000 272.030 C 177.051 272.282,176.643 272.354,174.000 274.148 C 171.789 275.648,171.085 276.441,169.690 279.000 L 168.600 281.000 168.600 290.600 L 168.600 300.200 169.672 302.200 C 171.332 305.296,173.946 307.644,176.800 308.603 C 177.350 308.788,181.490 309.043,186.000 309.170 L 194.200 309.400 194.414 317.800 C 194.659 327.436,194.980 328.589,198.265 331.617 C 201.623 334.713,202.682 334.983,212.041 335.128 C 222.980 335.299,225.701 334.502,229.043 330.151 C 231.197 327.348,231.316 326.768,231.566 317.800 L 231.800 309.400 240.000 309.200 C 254.746 308.840,257.600 305.832,257.600 290.647 C 257.600 280.626,256.619 277.643,252.240 274.346 C 249.605 272.362,249.398 272.324,240.000 272.044 L 231.800 271.800 231.551 263.400 C 231.230 252.553,230.227 250.264,224.528 247.381 C 222.065 246.135,209.232 245.500,204.361 246.383 M220.022 267.400 C 220.280 278.616,220.475 279.288,224.200 281.852 C 226.183 283.218,227.029 283.335,236.600 283.572 L 245.800 283.800 245.909 290.668 L 246.019 297.536 236.509 297.668 C 225.987 297.814,225.219 297.977,222.761 300.583 C 220.328 303.161,220.282 303.385,220.031 313.800 L 219.800 323.400 213.202 323.510 C 204.853 323.650,205.600 324.652,205.600 313.308 C 205.600 298.728,204.363 297.600,188.369 297.600 L 180.000 297.600 180.000 290.600 L 180.000 283.600 188.594 283.600 C 204.346 283.600,205.600 282.449,205.600 267.990 C 205.600 256.545,204.863 257.555,213.119 257.690 L 219.800 257.800 220.022 267.400 " stroke="none" fill="#050504" fill-rule="evenodd"></path><path id="path1" d="M158.165 25.347 C 155.538 26.538,149.893 30.748,144.400 35.615 C 139.945 39.562,138.019 40.128,135.037 38.369 C 133.677 37.566,132.000 37.593,132.000 38.416 C 132.000 38.616,131.190 39.589,130.200 40.579 C 129.210 41.569,128.400 42.564,128.400 42.789 C 128.400 43.015,128.265 43.201,128.100 43.203 C 127.753 43.205,126.400 45.476,126.400 46.056 C 126.400 46.271,126.976 47.163,127.679 48.039 C 129.677 50.525,129.541 52.861,127.157 57.000 C 119.174 70.862,115.440 87.881,116.948 103.528 C 117.656 110.860,117.479 110.569,122.894 113.356 C 134.759 119.466,145.132 128.760,152.751 140.111 C 153.900 141.823,155.011 143.117,155.220 142.988 C 155.840 142.604,155.723 88.316,155.100 87.488 C 154.825 87.122,149.560 84.292,143.400 81.198 C 130.429 74.682,129.600 74.041,129.600 70.523 C 129.600 68.517,129.715 68.264,131.389 66.589 C 134.240 63.739,134.949 63.870,145.650 69.225 C 150.514 71.659,154.742 73.554,155.046 73.438 C 155.502 73.263,155.600 70.957,155.600 60.426 L 155.600 47.628 156.837 46.219 C 159.944 42.680,165.229 43.822,166.746 48.360 C 167.065 49.317,167.200 57.106,167.200 74.660 C 167.200 88.377,167.335 99.598,167.500 99.594 C 167.665 99.591,171.738 97.611,176.552 95.194 C 187.505 89.695,190.108 89.448,192.132 93.713 C 194.490 98.681,193.400 99.791,179.100 106.992 L 167.200 112.984 167.200 128.092 C 167.200 136.401,167.288 143.200,167.395 143.200 C 167.502 143.200,168.067 142.435,168.650 141.500 C 175.683 130.219,188.125 118.950,200.308 112.827 C 203.340 111.303,204.438 110.546,204.572 109.887 C 206.048 102.653,205.950 89.804,204.362 82.200 C 203.143 76.365,201.303 69.926,200.391 68.305 C 200.176 67.923,200.000 67.401,200.000 67.145 C 200.000 63.326,188.741 46.419,181.041 38.675 C 170.552 28.126,162.449 23.405,158.165 25.347 M77.200 115.441 C 65.978 116.148,61.312 117.888,60.196 121.784 C 56.384 135.097,57.992 155.990,63.846 169.200 C 67.801 178.126,71.961 184.370,78.305 190.900 L 81.317 194.000 104.658 194.000 C 117.496 194.000,128.000 193.864,128.000 193.698 C 128.000 193.141,99.803 165.200,99.242 165.200 C 98.673 165.200,92.831 166.997,91.400 167.613 C 89.160 168.575,75.580 172.872,74.158 173.067 C 71.085 173.489,68.163 171.280,67.955 168.376 C 67.602 163.448,68.267 162.935,80.100 159.029 C 85.325 157.304,89.600 155.690,89.600 155.443 C 89.600 155.196,85.662 151.058,80.848 146.248 C 71.250 136.657,70.677 135.833,71.603 132.950 C 72.490 130.189,74.366 128.800,77.206 128.800 C 79.739 128.800,79.497 128.587,98.495 147.528 C 109.781 158.780,116.529 165.227,116.764 164.985 C 116.970 164.773,118.515 160.460,120.197 155.400 C 124.224 143.292,126.726 140.912,131.882 144.290 C 135.207 146.469,135.103 147.604,130.239 162.200 C 127.615 170.075,126.223 174.819,126.425 175.200 C 126.600 175.530,130.866 179.901,135.904 184.913 L 145.066 194.026 150.033 193.913 L 155.000 193.800 154.982 186.800 C 154.962 179.103,154.399 174.466,152.721 168.200 C 152.020 165.580,150.789 161.849,150.381 161.105 C 150.171 160.723,149.999 160.183,149.997 159.905 C 149.993 159.005,145.368 150.214,143.189 146.962 C 135.030 134.790,122.865 125.107,109.600 120.226 C 99.477 116.501,87.785 114.774,77.200 115.441 M233.600 115.584 C 227.628 116.055,224.715 116.602,216.600 118.777 C 196.418 124.185,176.063 144.714,170.375 165.400 C 167.890 174.438,167.097 180.152,167.267 187.800 L 167.400 193.800 172.368 193.913 L 177.335 194.026 186.668 184.724 C 192.585 178.826,196.000 175.132,196.000 174.629 C 196.000 174.192,194.188 168.373,191.973 161.698 C 188.788 152.100,188.002 149.293,188.216 148.280 C 189.224 143.508,194.399 141.699,197.816 144.924 C 198.991 146.034,199.565 147.400,202.212 155.400 C 203.886 160.460,205.428 164.775,205.637 164.989 C 205.882 165.239,212.438 158.974,223.909 147.531 C 242.894 128.592,242.658 128.800,245.194 128.800 C 248.719 128.800,250.800 130.962,250.800 134.626 L 250.800 136.928 241.800 145.983 C 236.850 150.963,232.800 155.232,232.800 155.469 C 232.800 155.707,237.033 157.295,242.206 158.998 C 254.561 163.065,256.589 164.938,254.081 169.965 C 251.964 174.208,250.436 174.138,235.336 169.102 L 222.872 164.945 208.618 179.188 C 200.778 187.021,194.492 193.558,194.648 193.715 C 194.805 193.872,205.319 194.000,218.012 194.000 L 241.090 194.000 244.245 190.700 C 253.823 180.682,260.589 167.520,262.802 154.600 C 263.066 153.060,263.443 150.936,263.641 149.880 C 264.109 147.375,264.106 132.197,263.636 129.720 C 263.436 128.664,263.049 126.450,262.776 124.800 C 261.867 119.303,260.297 117.733,254.800 116.824 C 253.150 116.551,250.990 116.179,250.000 115.996 C 247.233 115.485,237.840 115.249,233.600 115.584 " stroke="none" fill="#8bf01d" fill-rule="evenodd"></path><path id="path2" d="M206.019 258.364 C 205.763 258.842,205.600 262.590,205.600 267.990 C 205.600 282.449,204.346 283.600,188.594 283.600 L 180.000 283.600 180.000 290.600 L 180.000 297.600 188.369 297.600 C 204.363 297.600,205.600 298.728,205.600 313.308 C 205.600 324.652,204.853 323.650,213.202 323.510 L 219.800 323.400 220.031 313.800 C 220.282 303.385,220.328 303.161,222.761 300.583 C 225.219 297.977,225.987 297.814,236.509 297.668 L 246.019 297.536 245.909 290.668 L 245.800 283.800 236.600 283.572 C 227.029 283.335,226.183 283.218,224.200 281.852 C 220.475 279.288,220.280 278.616,220.022 267.400 L 219.800 257.800 213.119 257.690 C 206.835 257.587,206.414 257.627,206.019 258.364 " stroke="none" fill="#d0451b" fill-rule="evenodd"></path><path id="path3" d="M343.000 77.200 C 342.864 77.420,342.221 77.600,341.571 77.600 C 340.921 77.600,340.077 77.760,339.695 77.956 C 339.313 78.152,338.100 78.732,337.000 79.246 C 334.837 80.254,329.200 85.561,329.200 86.587 C 329.200 86.924,329.020 87.200,328.800 87.200 C 328.580 87.200,328.400 87.470,328.400 87.800 C 328.400 88.130,328.220 88.400,328.000 88.400 C 327.780 88.400,327.600 88.760,327.600 89.200 C 327.600 89.640,327.420 90.000,327.200 90.000 C 326.980 90.000,326.800 90.236,326.800 90.525 C 326.800 90.813,326.440 91.436,326.000 91.908 C 325.560 92.380,325.200 93.029,325.200 93.350 C 325.200 93.671,325.051 93.993,324.869 94.067 C 324.396 94.257,321.600 99.981,321.602 100.754 C 321.611 103.211,324.589 107.600,326.248 107.600 C 326.552 107.600,326.800 107.780,326.800 108.000 C 326.800 108.220,327.160 108.400,327.600 108.400 C 328.040 108.400,328.400 108.559,328.400 108.753 C 328.400 108.948,328.715 109.207,329.100 109.329 C 329.787 109.546,332.006 110.805,332.400 111.201 C 332.510 111.311,333.140 111.669,333.800 111.997 C 334.460 112.324,336.598 113.539,338.551 114.696 C 340.504 115.853,342.161 116.800,342.234 116.800 C 342.306 116.800,343.318 117.365,344.482 118.056 C 346.447 119.221,347.597 119.884,350.045 121.262 C 350.570 121.558,351.090 121.890,351.200 122.001 C 351.310 122.111,351.940 122.471,352.600 122.800 C 353.260 123.129,353.890 123.489,354.000 123.599 C 354.110 123.710,354.605 124.025,355.100 124.300 C 355.595 124.575,356.405 125.025,356.900 125.300 C 357.395 125.575,357.890 125.890,358.000 126.000 C 358.110 126.110,358.740 126.491,359.400 126.848 C 363.448 129.032,365.495 130.181,366.189 130.658 C 367.379 131.476,367.846 131.326,368.558 129.900 C 368.915 129.185,369.748 127.700,370.408 126.600 C 371.068 125.500,372.135 123.593,372.778 122.362 L 373.949 120.124 372.674 119.471 C 371.974 119.112,370.500 118.266,369.400 117.592 C 368.300 116.917,367.085 116.262,366.700 116.136 C 366.315 116.010,366.000 115.781,366.000 115.628 C 366.000 115.475,365.370 115.102,364.600 114.800 C 363.830 114.498,363.200 114.125,363.200 113.972 C 363.200 113.819,362.885 113.593,362.500 113.471 C 361.753 113.234,359.533 111.954,359.200 111.568 C 359.090 111.440,358.415 111.081,357.700 110.770 C 356.985 110.459,356.400 110.069,356.400 109.902 C 356.400 109.736,356.130 109.600,355.800 109.600 C 355.470 109.600,355.200 109.420,355.200 109.200 C 355.200 108.980,354.855 108.800,354.433 108.800 C 354.012 108.800,353.607 108.665,353.533 108.500 C 353.460 108.335,352.590 107.767,351.600 107.238 C 344.771 103.589,340.400 100.615,340.400 99.618 C 340.400 99.388,340.220 99.200,340.000 99.200 C 338.635 99.200,339.613 94.027,341.319 92.220 L 343.039 90.400 345.919 90.400 C 347.504 90.400,348.800 90.536,348.800 90.702 C 348.800 90.869,349.364 91.254,350.053 91.559 C 350.742 91.864,352.448 92.808,353.845 93.657 C 355.243 94.506,356.569 95.200,356.793 95.200 C 357.017 95.200,357.200 95.380,357.200 95.600 C 357.200 95.820,357.395 96.000,357.633 96.000 C 357.871 96.000,359.176 96.656,360.533 97.457 C 361.890 98.259,363.990 99.456,365.200 100.118 C 366.410 100.780,367.878 101.655,368.462 102.061 C 369.046 102.467,369.643 102.800,369.790 102.800 C 369.936 102.800,370.808 103.301,371.728 103.912 C 375.840 106.647,376.398 106.587,375.625 103.493 C 373.419 94.669,369.066 89.955,356.800 83.108 C 355.810 82.556,353.380 81.154,351.400 79.994 C 349.420 78.833,347.350 77.641,346.800 77.344 C 345.627 76.712,343.355 76.625,343.000 77.200 M313.800 117.168 C 307.398 118.733,306.732 126.997,312.761 130.057 C 313.332 130.347,315.690 131.681,318.000 133.021 C 324.869 137.005,325.490 137.363,329.300 139.544 C 330.015 139.953,331.590 140.879,332.800 141.600 C 335.709 143.335,337.347 144.271,340.000 145.717 C 341.210 146.376,342.380 147.050,342.600 147.215 C 342.820 147.380,343.630 147.874,344.400 148.312 C 345.170 148.751,347.510 150.086,349.600 151.279 C 357.530 155.807,357.954 156.000,359.963 156.000 C 367.658 156.000,369.109 146.840,362.045 142.862 C 361.520 142.567,360.440 141.955,359.645 141.503 C 358.850 141.052,357.210 140.141,356.000 139.480 C 354.790 138.819,353.322 137.945,352.738 137.539 C 352.154 137.133,351.584 136.800,351.471 136.800 C 351.358 136.800,349.856 135.964,348.133 134.942 C 346.410 133.921,344.415 132.751,343.700 132.342 C 342.985 131.934,341.770 131.240,341.000 130.800 C 340.230 130.360,338.925 129.619,338.100 129.153 C 337.275 128.687,336.150 128.006,335.600 127.639 C 335.050 127.272,334.060 126.708,333.400 126.386 C 332.740 126.065,332.110 125.711,332.000 125.601 C 331.890 125.490,331.440 125.203,331.000 124.962 C 329.095 123.921,328.187 123.387,328.000 123.199 C 327.890 123.089,327.260 122.734,326.600 122.410 C 325.940 122.085,324.140 121.075,322.600 120.163 C 317.417 117.096,316.027 116.623,313.800 117.168 M310.400 144.525 C 310.400 144.813,310.083 145.398,309.696 145.825 C 309.309 146.251,308.544 147.455,307.997 148.500 C 307.449 149.545,306.866 150.400,306.701 150.400 C 306.535 150.400,306.400 150.582,306.400 150.805 C 306.400 151.234,302.947 156.633,302.100 157.529 C 301.825 157.819,301.600 158.211,301.600 158.400 C 301.600 158.589,301.365 158.981,301.078 159.271 C 300.791 159.562,299.766 160.970,298.800 162.400 C 297.834 163.830,296.815 165.232,296.536 165.515 C 296.257 165.798,295.713 166.563,295.328 167.215 C 294.943 167.867,294.486 168.400,294.314 168.400 C 294.141 168.400,294.000 168.578,294.000 168.795 C 294.000 169.167,293.240 170.215,292.100 171.416 C 291.825 171.706,291.600 172.121,291.600 172.338 C 291.600 172.555,291.459 172.793,291.287 172.867 C 291.114 172.940,290.088 174.170,289.005 175.600 C 287.923 177.030,286.939 178.290,286.819 178.400 C 286.623 178.579,283.963 181.801,282.401 183.750 C 280.744 185.819,276.805 190.307,275.289 191.854 L 273.579 193.600 296.509 193.600 L 319.439 193.600 319.970 192.100 C 321.156 188.750,329.850 171.194,333.159 165.468 C 334.282 163.526,335.200 161.844,335.200 161.730 C 335.200 161.617,335.577 160.994,336.037 160.348 C 337.031 158.952,336.890 158.389,335.348 157.596 C 334.717 157.272,332.255 155.880,329.877 154.503 C 327.499 153.126,325.384 152.000,325.177 152.000 C 324.970 152.000,324.800 151.820,324.800 151.600 C 324.800 151.380,324.630 151.200,324.421 151.200 C 324.091 151.200,322.335 150.218,317.800 147.498 C 317.140 147.102,316.285 146.672,315.900 146.542 C 315.515 146.413,315.200 146.181,315.200 146.028 C 315.200 145.875,314.570 145.502,313.800 145.200 C 313.030 144.898,312.400 144.504,312.400 144.325 C 312.400 144.146,311.950 144.000,311.400 144.000 C 310.842 144.000,310.400 144.232,310.400 144.525 M63.690 212.900 L 63.800 219.400 212.800 219.400 L 361.800 219.400 361.787 214.952 C 361.773 210.032,361.069 208.380,358.399 207.000 C 357.375 206.470,340.097 206.400,210.410 206.400 L 63.580 206.400 63.690 212.900 M31.280 219.958 L 12.360 229.400 12.604 232.200 C 13.507 242.562,22.031 257.392,29.680 261.911 C 30.296 262.275,30.800 262.714,30.800 262.886 C 30.800 263.059,30.967 263.200,31.172 263.200 C 31.376 263.200,32.591 263.890,33.872 264.733 C 38.020 267.463,47.202 270.800,50.567 270.800 L 51.600 270.800 51.600 240.600 C 51.600 212.082,51.561 210.403,50.900 210.458 C 50.515 210.491,41.686 214.766,31.280 219.958 M64.100 232.265 C 63.327 232.577,63.407 288.083,64.191 296.000 C 66.364 317.916,79.024 335.318,99.400 344.396 C 100.500 344.887,101.713 345.448,102.095 345.644 C 102.477 345.840,103.064 346.000,103.400 346.000 C 103.736 346.000,104.323 346.162,104.705 346.361 C 105.954 347.010,109.447 347.781,115.646 348.775 C 119.321 349.365,306.639 349.370,310.354 348.780 C 315.598 347.948,319.615 347.026,320.895 346.361 C 321.277 346.162,321.864 346.000,322.200 346.000 C 322.536 346.000,323.123 345.841,323.505 345.647 C 323.887 345.452,324.650 345.114,325.200 344.896 C 339.700 339.129,352.474 326.204,358.108 311.600 C 358.320 311.050,358.652 310.287,358.847 309.905 C 359.041 309.523,359.200 308.859,359.200 308.429 C 359.200 307.999,359.360 307.548,359.556 307.427 C 359.751 307.306,360.014 306.621,360.139 305.904 C 360.264 305.187,360.565 303.610,360.808 302.400 C 361.759 297.661,361.926 291.927,361.962 262.764 L 362.000 232.527 353.300 232.265 C 343.252 231.961,64.852 231.961,64.100 232.265 M224.800 246.829 C 230.630 249.975,232.000 253.091,232.000 263.213 C 232.000 272.598,231.014 271.600,240.286 271.600 L 248.086 271.600 250.591 272.796 C 252.056 273.495,253.704 274.685,254.561 275.663 C 255.920 277.213,256.320 277.918,257.544 280.919 C 258.166 282.444,258.166 298.756,257.544 300.281 C 256.344 303.223,255.964 303.913,254.778 305.302 C 251.624 308.994,249.571 309.587,239.900 309.594 L 232.000 309.600 232.000 317.354 C 232.000 328.205,230.635 331.454,224.891 334.275 L 222.600 335.400 212.800 335.400 C 203.284 335.400,202.948 335.373,201.200 334.458 C 199.175 333.398,196.000 330.504,196.000 329.717 C 196.000 329.433,195.841 329.200,195.647 329.200 C 195.452 329.200,195.161 328.795,194.999 328.300 C 193.772 324.550,193.634 323.391,193.618 316.700 L 193.600 309.600 185.595 309.600 C 181.192 309.600,177.277 309.441,176.895 309.247 C 176.513 309.052,175.660 308.647,175.000 308.347 C 172.822 307.355,169.793 303.962,168.862 301.473 C 167.589 298.072,167.562 283.201,168.822 279.834 C 171.213 273.443,174.456 271.838,185.300 271.678 L 193.600 271.555 193.600 264.524 C 193.600 253.776,195.293 249.742,200.943 247.029 C 204.753 245.200,221.521 245.059,224.800 246.829 M128.400 368.400 L 128.400 374.800 137.000 374.800 C 142.467 374.800,145.600 374.946,145.600 375.200 C 145.600 375.420,145.902 375.600,146.272 375.600 C 147.285 375.600,149.478 378.221,149.877 379.909 L 150.230 381.400 155.410 381.400 C 160.278 381.400,160.597 381.352,160.722 380.600 C 161.083 378.422,162.506 376.523,164.695 375.300 C 165.400 374.906,179.494 374.800,231.395 374.800 L 297.200 374.800 297.200 368.400 L 297.200 362.000 212.800 362.000 L 128.400 362.000 128.400 368.400 " stroke="none" fill="#f6f7f8" fill-rule="evenodd"></path><path id="path4" d="M340.480 77.020 C 334.858 78.788,330.688 82.295,327.425 88.000 C 326.356 89.870,324.605 92.930,323.535 94.800 C 319.702 101.497,320.341 105.307,325.787 108.237 C 326.803 108.784,327.780 109.343,336.200 114.197 C 339.940 116.353,343.540 118.428,344.200 118.807 C 344.860 119.187,347.020 120.445,349.000 121.603 C 350.980 122.761,353.590 124.256,354.800 124.925 C 356.010 125.594,358.800 127.215,361.000 128.528 C 374.031 136.302,376.097 136.230,380.914 127.830 L 382.731 124.661 381.865 123.997 C 381.389 123.632,379.560 122.520,377.800 121.527 C 376.040 120.533,372.980 118.770,371.000 117.609 C 366.888 115.197,365.416 114.346,363.300 113.157 C 362.475 112.694,361.620 112.180,361.400 112.015 C 361.180 111.850,360.010 111.174,358.800 110.513 C 353.017 107.351,342.900 101.379,342.065 100.634 C 338.287 97.263,340.766 90.800,345.838 90.800 C 347.300 90.800,348.937 91.603,356.774 96.167 C 359.730 97.889,362.700 99.613,363.374 99.999 C 364.048 100.385,366.850 102.007,369.600 103.603 C 372.350 105.199,375.577 107.048,376.770 107.712 C 377.964 108.376,380.753 109.972,382.968 111.259 C 388.317 114.368,388.383 114.346,388.395 109.506 C 388.414 101.213,384.436 95.434,374.990 90.032 C 372.136 88.399,367.859 85.924,365.486 84.532 C 363.114 83.139,361.107 82.000,361.027 82.000 C 360.947 82.000,359.738 81.314,358.341 80.476 C 351.841 76.577,345.680 75.385,340.480 77.020 M346.800 77.344 C 347.350 77.641,349.420 78.833,351.400 79.994 C 353.380 81.154,355.810 82.556,356.800 83.108 C 369.066 89.955,373.419 94.669,375.625 103.493 C 376.398 106.587,375.840 106.647,371.728 103.912 C 370.808 103.301,369.936 102.800,369.790 102.800 C 369.643 102.800,369.046 102.467,368.462 102.061 C 367.878 101.655,366.410 100.780,365.200 100.118 C 363.990 99.456,361.890 98.259,360.533 97.457 C 359.176 96.656,357.871 96.000,357.633 96.000 C 357.395 96.000,357.200 95.820,357.200 95.600 C 357.200 95.380,357.017 95.200,356.793 95.200 C 356.569 95.200,355.243 94.506,353.845 93.657 C 352.448 92.808,350.742 91.864,350.053 91.559 C 349.364 91.254,348.800 90.869,348.800 90.702 C 348.800 90.536,347.504 90.400,345.919 90.400 L 343.039 90.400 341.319 92.220 C 339.613 94.027,338.635 99.200,340.000 99.200 C 340.220 99.200,340.400 99.388,340.400 99.618 C 340.400 100.615,344.771 103.589,351.600 107.238 C 352.590 107.767,353.460 108.335,353.533 108.500 C 353.607 108.665,354.012 108.800,354.433 108.800 C 354.855 108.800,355.200 108.980,355.200 109.200 C 355.200 109.420,355.470 109.600,355.800 109.600 C 356.130 109.600,356.400 109.736,356.400 109.902 C 356.400 110.069,356.985 110.459,357.700 110.770 C 358.415 111.081,359.090 111.440,359.200 111.568 C 359.533 111.954,361.753 113.234,362.500 113.471 C 362.885 113.593,363.200 113.819,363.200 113.972 C 363.200 114.125,363.830 114.498,364.600 114.800 C 365.370 115.102,366.000 115.475,366.000 115.628 C 366.000 115.781,366.315 116.010,366.700 116.136 C 367.085 116.262,368.300 116.917,369.400 117.592 C 370.500 118.266,371.974 119.112,372.674 119.471 L 373.949 120.124 372.778 122.362 C 372.135 123.593,371.068 125.500,370.408 126.600 C 369.748 127.700,368.915 129.185,368.558 129.900 C 367.846 131.326,367.379 131.476,366.189 130.658 C 365.495 130.181,363.448 129.032,359.400 126.848 C 358.740 126.491,358.110 126.110,358.000 126.000 C 357.890 125.890,357.395 125.575,356.900 125.300 C 356.405 125.025,355.595 124.575,355.100 124.300 C 354.605 124.025,354.110 123.710,354.000 123.599 C 353.890 123.489,353.260 123.129,352.600 122.800 C 351.940 122.471,351.310 122.111,351.200 122.001 C 351.090 121.890,350.570 121.558,350.045 121.262 C 347.597 119.884,346.447 119.221,344.482 118.056 C 343.318 117.365,342.306 116.800,342.234 116.800 C 342.161 116.800,340.504 115.853,338.551 114.696 C 336.598 113.539,334.460 112.324,333.800 111.997 C 333.140 111.669,332.510 111.311,332.400 111.201 C 332.006 110.805,329.787 109.546,329.100 109.329 C 328.715 109.207,328.400 108.948,328.400 108.753 C 328.400 108.559,328.040 108.400,327.600 108.400 C 327.160 108.400,326.800 108.220,326.800 108.000 C 326.800 107.780,326.552 107.600,326.248 107.600 C 324.589 107.600,321.611 103.211,321.602 100.754 C 321.600 99.981,324.396 94.257,324.869 94.067 C 325.051 93.993,325.200 93.671,325.200 93.350 C 325.200 93.029,325.560 92.380,326.000 91.908 C 326.440 91.436,326.800 90.813,326.800 90.525 C 326.800 90.236,326.980 90.000,327.200 90.000 C 327.420 90.000,327.600 89.640,327.600 89.200 C 327.600 88.760,327.780 88.400,328.000 88.400 C 328.220 88.400,328.400 88.130,328.400 87.800 C 328.400 87.470,328.580 87.200,328.800 87.200 C 329.020 87.200,329.200 86.924,329.200 86.587 C 329.200 85.561,334.837 80.254,337.000 79.246 C 338.100 78.732,339.313 78.152,339.695 77.956 C 340.077 77.760,340.921 77.600,341.571 77.600 C 342.221 77.600,342.864 77.420,343.000 77.200 C 343.355 76.625,345.627 76.712,346.800 77.344 M311.921 117.216 C 309.309 118.596,308.200 120.508,308.200 123.632 C 308.200 127.911,309.097 128.696,323.000 136.580 C 324.799 137.600,328.046 139.453,331.700 141.544 C 332.415 141.953,333.990 142.879,335.200 143.600 C 336.410 144.322,338.120 145.320,339.000 145.818 C 339.880 146.315,343.480 148.383,347.000 150.413 C 358.421 156.998,357.525 156.584,360.299 156.562 C 366.606 156.511,369.639 148.673,365.071 144.226 C 364.812 143.974,363.250 142.983,361.600 142.024 C 350.828 135.763,341.512 130.400,341.406 130.400 C 341.338 130.400,340.069 129.663,338.588 128.763 C 337.106 127.863,335.287 126.783,334.547 126.363 C 333.806 125.943,332.615 125.260,331.900 124.845 C 331.185 124.430,328.800 123.058,326.600 121.795 C 324.400 120.532,321.970 119.132,321.200 118.682 C 316.891 116.167,314.595 115.804,311.921 117.216 M318.600 117.901 C 319.260 118.234,321.060 119.252,322.600 120.163 C 324.140 121.075,325.940 122.085,326.600 122.410 C 327.260 122.734,327.890 123.089,328.000 123.199 C 328.187 123.387,329.095 123.921,331.000 124.962 C 331.440 125.203,331.890 125.490,332.000 125.601 C 332.110 125.711,332.740 126.065,333.400 126.386 C 334.060 126.708,335.050 127.272,335.600 127.639 C 336.150 128.006,337.275 128.687,338.100 129.153 C 338.925 129.619,340.230 130.360,341.000 130.800 C 341.770 131.240,342.985 131.934,343.700 132.342 C 344.415 132.751,346.410 133.921,348.133 134.942 C 349.856 135.964,351.358 136.800,351.471 136.800 C 351.584 136.800,352.154 137.133,352.738 137.539 C 353.322 137.945,354.790 138.819,356.000 139.480 C 357.210 140.141,358.850 141.052,359.645 141.503 C 360.440 141.955,361.520 142.567,362.045 142.862 C 369.109 146.840,367.658 156.000,359.963 156.000 C 357.954 156.000,357.530 155.807,349.600 151.279 C 347.510 150.086,345.170 148.751,344.400 148.312 C 343.630 147.874,342.820 147.380,342.600 147.215 C 342.380 147.050,341.210 146.376,340.000 145.717 C 337.347 144.271,335.709 143.335,332.800 141.600 C 331.590 140.879,330.015 139.953,329.300 139.544 C 325.490 137.363,324.869 137.005,318.000 133.021 C 315.690 131.681,313.332 130.347,312.761 130.057 C 309.902 128.606,308.732 126.701,308.747 123.519 C 308.772 118.282,313.739 115.451,318.600 117.901 M308.691 146.100 C 306.174 150.109,295.975 165.321,295.617 165.600 C 295.477 165.710,294.927 166.430,294.397 167.200 C 293.400 168.646,285.216 179.245,284.822 179.600 C 284.700 179.710,283.880 180.699,283.000 181.797 C 282.120 182.895,279.465 186.005,277.100 188.707 C 274.735 191.410,272.800 193.796,272.800 194.010 C 272.800 194.479,329.549 194.548,330.284 194.080 C 330.551 193.911,331.158 192.878,331.633 191.786 C 335.432 183.054,339.602 174.370,343.328 167.430 L 345.674 163.059 344.765 162.374 C 344.265 161.997,342.134 160.698,340.028 159.487 C 337.923 158.276,333.320 155.622,329.800 153.588 C 326.280 151.553,322.815 149.554,322.100 149.145 C 321.385 148.735,320.215 148.065,319.500 147.656 C 318.785 147.247,317.210 146.321,316.000 145.600 C 312.751 143.663,311.201 142.800,310.970 142.800 C 310.857 142.800,309.831 144.285,308.691 146.100 M312.400 144.325 C 312.400 144.504,313.030 144.898,313.800 145.200 C 314.570 145.502,315.200 145.875,315.200 146.028 C 315.200 146.181,315.515 146.413,315.900 146.542 C 316.285 146.672,317.140 147.102,317.800 147.498 C 322.335 150.218,324.091 151.200,324.421 151.200 C 324.630 151.200,324.800 151.380,324.800 151.600 C 324.800 151.820,324.970 152.000,325.177 152.000 C 325.384 152.000,327.499 153.126,329.877 154.503 C 332.255 155.880,334.717 157.272,335.348 157.596 C 336.890 158.389,337.031 158.952,336.037 160.348 C 335.577 160.994,335.200 161.617,335.200 161.730 C 335.200 161.844,334.282 163.526,333.159 165.468 C 329.850 171.194,321.156 188.750,319.970 192.100 L 319.439 193.600 296.509 193.600 L 273.579 193.600 275.289 191.854 C 276.805 190.307,280.744 185.819,282.401 183.750 C 283.963 181.801,286.623 178.579,286.819 178.400 C 286.939 178.290,287.923 177.030,289.005 175.600 C 290.088 174.170,291.114 172.940,291.287 172.867 C 291.459 172.793,291.600 172.555,291.600 172.338 C 291.600 172.121,291.825 171.706,292.100 171.416 C 293.240 170.215,294.000 169.167,294.000 168.795 C 294.000 168.578,294.141 168.400,294.314 168.400 C 294.486 168.400,294.943 167.867,295.328 167.215 C 295.713 166.563,296.257 165.798,296.536 165.515 C 296.815 165.232,297.834 163.830,298.800 162.400 C 299.766 160.970,300.791 159.562,301.078 159.271 C 301.365 158.981,301.600 158.589,301.600 158.400 C 301.600 158.211,301.825 157.819,302.100 157.529 C 302.947 156.633,306.400 151.234,306.400 150.805 C 306.400 150.582,306.535 150.400,306.701 150.400 C 306.866 150.400,307.449 149.545,307.997 148.500 C 308.544 147.455,309.309 146.251,309.696 145.825 C 310.083 145.398,310.400 144.813,310.400 144.525 C 310.400 144.232,310.842 144.000,311.400 144.000 C 311.950 144.000,312.400 144.146,312.400 144.325 M63.377 206.115 C 63.269 206.398,63.229 209.683,63.290 213.415 L 63.400 220.200 212.882 220.301 L 362.364 220.401 362.637 218.945 C 363.771 212.897,361.397 207.159,357.288 206.018 C 354.879 205.349,63.634 205.445,63.377 206.115 M358.399 207.000 C 361.069 208.380,361.773 210.032,361.787 214.952 L 361.800 219.400 212.800 219.400 L 63.800 219.400 63.690 212.900 L 63.580 206.400 210.410 206.400 C 340.097 206.400,357.375 206.470,358.399 207.000 M31.812 219.208 C 21.259 224.486,12.376 229.052,12.073 229.355 C 10.967 230.462,13.153 239.583,16.029 245.863 C 20.984 256.682,32.679 266.727,44.100 269.974 C 44.925 270.208,46.185 270.567,46.900 270.772 C 47.615 270.976,49.010 271.201,50.000 271.272 L 51.800 271.400 51.800 240.633 C 51.800 220.474,51.662 209.823,51.400 209.739 C 51.180 209.669,42.365 213.930,31.812 219.208 M51.600 240.600 L 51.600 270.800 50.567 270.800 C 47.202 270.800,38.020 267.463,33.872 264.733 C 32.591 263.890,31.376 263.200,31.172 263.200 C 30.967 263.200,30.800 263.059,30.800 262.886 C 30.800 262.714,30.296 262.275,29.680 261.911 C 22.031 257.392,13.507 242.562,12.604 232.200 L 12.360 229.400 31.280 219.958 C 41.686 214.766,50.515 210.491,50.900 210.458 C 51.561 210.403,51.600 212.082,51.600 240.600 M63.467 231.867 C 63.010 232.323,63.156 294.628,63.620 297.554 C 65.564 309.805,70.202 320.629,76.690 328.055 C 86.610 339.408,97.090 345.670,111.200 348.676 C 116.576 349.821,309.083 349.798,314.600 348.652 C 322.448 347.021,334.212 342.056,337.277 339.081 C 337.565 338.802,338.430 338.138,339.200 337.606 C 339.970 337.074,340.690 336.539,340.800 336.417 C 340.910 336.295,341.984 335.323,343.187 334.258 C 354.432 324.300,361.253 310.134,362.377 294.400 C 362.815 288.285,362.974 233.318,362.557 232.233 C 362.304 231.572,64.126 231.207,63.467 231.867 M353.300 232.265 L 362.000 232.527 361.962 262.764 C 361.926 291.927,361.759 297.661,360.808 302.400 C 360.565 303.610,360.264 305.187,360.139 305.904 C 360.014 306.621,359.751 307.306,359.556 307.427 C 359.360 307.548,359.200 307.999,359.200 308.429 C 359.200 308.859,359.041 309.523,358.847 309.905 C 358.652 310.287,358.320 311.050,358.108 311.600 C 352.474 326.204,339.700 339.129,325.200 344.896 C 324.650 345.114,323.887 345.452,323.505 345.647 C 323.123 345.841,322.536 346.000,322.200 346.000 C 321.864 346.000,321.277 346.162,320.895 346.361 C 319.615 347.026,315.598 347.948,310.354 348.780 C 306.639 349.370,119.321 349.365,115.646 348.775 C 109.447 347.781,105.954 347.010,104.705 346.361 C 104.323 346.162,103.736 346.000,103.400 346.000 C 103.064 346.000,102.477 345.840,102.095 345.644 C 101.713 345.448,100.500 344.887,99.400 344.396 C 79.024 335.318,66.364 317.916,64.191 296.000 C 63.407 288.083,63.327 232.577,64.100 232.265 C 64.852 231.961,343.252 231.961,353.300 232.265 M204.200 245.860 C 196.776 246.985,193.600 252.578,193.600 264.524 L 193.600 271.555 185.300 271.678 C 174.456 271.838,171.213 273.443,168.822 279.834 C 167.562 283.201,167.589 298.072,168.862 301.473 C 169.793 303.962,172.822 307.355,175.000 308.347 C 175.660 308.647,176.513 309.052,176.895 309.247 C 177.277 309.441,181.192 309.600,185.595 309.600 L 193.600 309.600 193.618 316.700 C 193.634 323.391,193.772 324.550,194.999 328.300 C 195.161 328.795,195.452 329.200,195.647 329.200 C 195.841 329.200,196.000 329.433,196.000 329.717 C 196.000 330.504,199.175 333.398,201.200 334.458 C 202.948 335.373,203.284 335.400,212.800 335.400 L 222.600 335.400 224.891 334.275 C 230.635 331.454,232.000 328.205,232.000 317.354 L 232.000 309.600 239.900 309.594 C 249.571 309.587,251.624 308.994,254.778 305.302 C 255.964 303.913,256.344 303.223,257.544 300.281 C 258.166 298.756,258.166 282.444,257.544 280.919 C 256.320 277.918,255.920 277.213,254.561 275.663 C 253.704 274.685,252.056 273.495,250.591 272.796 L 248.086 271.600 240.286 271.600 C 231.014 271.600,232.000 272.598,232.000 263.213 C 232.000 253.091,230.630 249.975,224.800 246.829 C 223.033 245.875,208.583 245.195,204.200 245.860 M224.528 247.381 C 230.227 250.264,231.230 252.553,231.551 263.400 L 231.800 271.800 240.000 272.044 C 249.398 272.324,249.605 272.362,252.240 274.346 C 256.619 277.643,257.600 280.626,257.600 290.647 C 257.600 305.832,254.746 308.840,240.000 309.200 L 231.800 309.400 231.566 317.800 C 231.316 326.768,231.197 327.348,229.043 330.151 C 225.701 334.502,222.980 335.299,212.041 335.128 C 202.682 334.983,201.623 334.713,198.265 331.617 C 194.980 328.589,194.659 327.436,194.414 317.800 L 194.200 309.400 186.000 309.170 C 181.490 309.043,177.350 308.788,176.800 308.603 C 173.946 307.644,171.332 305.296,169.672 302.200 L 168.600 300.200 168.600 290.600 L 168.600 281.000 169.690 279.000 C 171.085 276.441,171.789 275.648,174.000 274.148 C 176.643 272.354,177.051 272.282,186.000 272.030 L 194.200 271.800 194.409 263.400 C 194.671 252.910,195.837 250.173,201.237 247.381 C 204.875 245.500,220.810 245.500,224.528 247.381 M128.267 361.067 C 127.631 361.702,127.974 375.105,128.633 375.357 C 128.981 375.491,132.779 375.600,137.072 375.600 C 146.869 375.600,148.360 376.152,149.163 380.080 C 149.305 380.773,149.624 381.408,149.873 381.491 C 150.205 381.602,150.216 381.209,149.913 380.017 C 149.453 378.204,147.306 375.600,146.272 375.600 C 145.902 375.600,145.600 375.420,145.600 375.200 C 145.600 374.946,142.467 374.800,137.000 374.800 L 128.400 374.800 128.400 368.400 L 128.400 362.000 212.800 362.000 L 297.200 362.000 297.200 368.400 L 297.200 374.800 231.395 374.800 C 179.494 374.800,165.400 374.906,164.695 375.300 C 162.493 376.530,161.234 378.223,160.677 380.700 C 160.333 382.232,161.145 381.689,161.575 380.100 C 162.128 378.051,162.923 377.023,164.547 376.252 C 165.800 375.658,171.682 375.600,231.187 375.600 C 275.411 375.600,296.702 375.467,297.226 375.186 C 298.113 374.711,298.419 363.130,297.586 361.574 C 297.166 360.789,129.048 360.285,128.267 361.067 " stroke="none" fill="#8a8f91" fill-rule="evenodd"></path></g></svg>