<svg id="svg" version="1.1" xmlns="http://www.w3.org/2000/svg" xmlns:xlink="http://www.w3.org/1999/xlink" width="400" height="400" viewBox="0, 0, 400,400"><g id="svgg"><path id="path0" d="M249.600 6.246 C 249.600 7.750,248.130 10.148,246.662 11.036 C 245.431 11.781,242.980 11.805,148.400 12.000 C 40.328 12.223,50.248 11.947,47.254 14.808 C 44.619 17.327,44.600 17.461,44.600 33.600 L 44.600 48.200 182.200 48.420 C 281.036 48.577,320.251 48.764,321.400 49.082 C 325.765 50.292,327.199 50.970,330.226 53.254 C 333.404 55.654,335.907 59.081,337.637 63.400 L 338.597 65.800 338.704 187.100 L 338.811 308.400 343.677 308.400 C 350.509 308.400,353.461 307.187,355.787 303.425 L 357.000 301.463 357.200 240.432 C 357.384 184.357,357.454 179.324,358.065 178.460 C 361.050 174.246,367.211 174.697,369.190 179.274 C 370.135 181.460,370.493 295.901,369.572 301.567 C 368.982 305.201,367.409 309.354,366.102 310.729 C 365.826 311.019,365.600 311.400,365.600 311.574 C 365.600 312.817,359.439 317.773,356.400 318.975 C 352.347 320.577,351.018 320.791,345.100 320.796 L 339.200 320.800 339.200 344.423 C 339.200 360.029,339.348 368.683,339.635 369.923 C 340.161 372.193,342.296 376.682,343.399 377.840 C 343.840 378.302,344.560 379.122,345.000 379.661 C 346.364 381.331,350.160 384.173,352.400 385.200 C 352.730 385.351,353.403 385.683,353.895 385.938 C 354.387 386.192,355.141 386.400,355.571 386.400 C 356.001 386.400,356.448 386.554,356.565 386.743 C 356.827 387.167,360.712 387.725,363.400 387.725 C 366.088 387.725,369.973 387.167,370.235 386.743 C 370.352 386.554,370.765 386.400,371.153 386.400 C 372.259 386.400,376.811 384.059,378.825 382.455 C 381.513 380.313,385.600 375.226,385.600 374.023 C 385.600 373.784,385.759 373.277,385.953 372.895 C 386.740 371.349,387.165 370.121,387.440 368.600 C 387.984 365.593,388.083 22.015,387.540 20.000 C 385.463 12.287,377.930 9.786,372.538 15.019 C 369.804 17.672,370.001 12.108,369.991 87.149 C 369.983 152.553,369.955 155.059,369.235 156.646 C 367.565 160.323,363.362 161.577,360.052 159.387 C 357.177 157.485,357.400 163.576,357.400 86.839 C 357.400 15.467,357.392 15.890,358.839 13.105 C 359.038 12.723,359.200 12.318,359.200 12.205 C 359.200 12.092,338.941 12.000,314.180 12.000 C 265.067 12.000,267.907 12.133,266.024 9.739 C 265.558 9.147,264.981 7.884,264.741 6.931 L 264.305 5.200 256.953 5.200 L 249.600 5.200 249.600 6.246 M17.241 62.092 C 15.418 62.975,13.386 65.406,12.530 67.726 C 12.177 68.686,12.053 90.678,12.030 156.920 C 11.997 253.487,12.199 245.952,9.583 248.153 C 8.898 248.729,7.632 249.313,6.769 249.451 L 5.200 249.702 5.200 257.033 L 5.200 264.364 6.700 264.632 C 7.525 264.779,8.785 265.336,9.500 265.870 C 12.176 267.868,11.999 264.195,12.014 317.880 C 12.030 371.614,11.923 369.263,14.581 374.641 C 17.309 380.160,22.330 384.470,28.600 386.675 L 31.800 387.800 183.781 387.903 L 335.763 388.006 334.550 386.703 C 332.322 384.311,328.800 378.139,328.800 376.628 C 328.800 376.309,328.641 375.949,328.446 375.829 C 328.251 375.708,327.975 375.023,327.831 374.305 C 327.687 373.587,327.365 372.100,327.115 371.000 C 326.781 369.531,326.625 329.106,326.528 218.618 C 326.442 119.470,326.261 68.101,325.998 67.838 C 325.779 67.619,325.600 67.148,325.600 66.792 C 325.600 65.709,322.933 62.951,321.015 62.049 L 319.209 61.200 169.104 61.220 L 19.000 61.240 17.241 62.092 M310.433 74.066 C 313.859 75.992,313.600 71.242,313.600 132.147 C 313.600 191.748,313.787 187.702,310.936 189.876 L 309.462 191.000 169.231 191.000 L 29.000 191.000 27.796 190.141 C 27.134 189.669,26.189 188.527,25.696 187.604 L 24.800 185.924 24.800 132.211 C 24.800 74.242,24.704 76.909,26.865 74.955 C 27.379 74.490,28.160 73.910,28.600 73.667 C 29.180 73.346,67.810 73.221,169.146 73.212 L 308.891 73.200 310.433 74.066 M142.915 210.659 C 144.817 210.973,146.885 212.971,147.527 215.113 C 148.205 217.378,148.209 342.209,147.531 344.473 C 146.960 346.377,144.958 348.219,142.837 348.790 C 141.756 349.081,123.759 349.180,85.303 349.107 L 29.341 349.000 27.872 348.000 C 24.525 345.723,24.800 351.836,24.800 279.617 L 24.800 215.624 25.645 214.120 C 26.700 212.241,28.250 210.886,29.580 210.679 C 31.299 210.411,141.297 210.392,142.915 210.659 M310.936 211.724 C 314.066 214.112,314.361 217.857,311.660 220.933 C 309.952 222.878,312.957 222.800,240.086 222.800 L 171.870 222.800 170.137 221.784 C 166.333 219.555,166.059 214.796,169.557 211.719 C 171.006 210.444,166.932 210.511,241.031 210.557 L 309.462 210.600 310.936 211.724 M310.014 236.500 C 314.766 238.899,314.606 245.037,309.726 247.550 C 309.089 247.878,290.273 248.000,240.218 248.000 L 171.584 248.000 170.003 247.002 C 165.922 244.426,166.252 238.565,170.600 236.398 C 172.179 235.611,173.076 235.601,240.215 235.600 L 308.230 235.600 310.014 236.500 M310.000 261.741 C 314.166 263.866,314.701 268.605,311.135 271.802 L 309.800 273.000 240.400 273.000 L 171.000 273.000 169.694 272.068 C 165.948 269.396,166.445 263.659,170.600 261.624 C 172.170 260.855,173.487 260.840,240.200 260.831 L 308.200 260.823 310.000 261.741 M310.508 287.193 C 314.244 289.753,314.431 294.793,310.888 297.400 C 309.173 298.661,172.151 298.860,170.096 297.604 C 166.672 295.511,166.180 290.533,169.133 287.861 C 171.233 285.960,168.625 286.024,241.029 286.115 L 309.059 286.200 310.508 287.193 M310.609 312.500 C 312.093 313.455,313.600 316.025,313.600 317.600 C 313.600 319.175,312.093 321.745,310.609 322.700 L 309.211 323.600 240.143 323.600 L 171.076 323.600 169.737 322.579 C 166.183 319.868,166.366 314.672,170.096 312.398 C 171.384 311.613,172.254 311.603,240.306 311.601 L 309.211 311.600 310.609 312.500 M309.726 337.250 C 313.284 339.082,314.468 342.649,312.584 345.863 C 310.564 349.310,317.728 349.000,240.169 349.000 L 171.338 349.000 169.868 347.879 C 166.059 344.974,166.341 339.544,170.408 337.501 C 172.132 336.634,308.056 336.390,309.726 337.250 M311.135 363.398 C 314.653 366.552,314.172 371.177,310.089 373.448 L 308.379 374.400 169.200 374.400 L 30.021 374.400 28.312 373.440 C 25.838 372.050,23.762 367.488,25.200 366.600 C 25.420 366.464,25.600 366.061,25.600 365.705 C 25.600 364.874,28.177 362.502,29.323 362.278 C 29.805 362.183,93.110 362.127,170.000 362.153 L 309.800 362.200 311.135 363.398 " stroke="none" fill="#d8e2f1" fill-rule="evenodd"></path><path id="path1" d="M46.400 0.288 C 45.850 0.387,45.229 0.632,45.020 0.834 C 44.811 1.035,44.316 1.200,43.920 1.200 C 43.524 1.200,43.200 1.380,43.200 1.600 C 43.200 1.820,42.970 2.000,42.688 2.000 C 42.407 2.000,41.917 2.360,41.600 2.800 C 41.283 3.240,40.789 3.600,40.503 3.600 C 39.829 3.600,35.969 7.486,35.232 8.906 C 34.920 9.508,34.515 10.000,34.332 10.000 C 34.150 10.000,34.000 10.360,34.000 10.800 C 34.000 11.240,33.820 11.600,33.600 11.600 C 33.380 11.600,33.200 12.050,33.200 12.600 C 33.200 13.150,33.020 13.600,32.800 13.600 C 32.580 13.600,32.400 14.129,32.400 14.776 C 32.400 15.423,32.220 16.064,32.000 16.200 C 31.744 16.358,31.600 22.137,31.600 32.224 L 31.600 48.000 24.824 48.000 C 20.737 48.000,17.949 48.159,17.800 48.400 C 17.664 48.620,16.843 48.800,15.976 48.800 C 15.109 48.800,14.400 48.980,14.400 49.200 C 14.400 49.420,14.057 49.600,13.638 49.600 C 12.495 49.600,9.685 51.215,8.019 52.830 C 7.208 53.616,6.242 54.375,5.872 54.517 C 5.502 54.659,5.200 54.978,5.200 55.227 C 5.200 55.476,4.693 56.156,4.073 56.740 C 3.453 57.323,2.689 58.385,2.375 59.100 C 2.062 59.815,1.669 60.400,1.502 60.400 C 1.336 60.400,1.200 60.745,1.200 61.167 C 1.200 61.588,0.975 62.008,0.700 62.100 C -0.217 62.405,-0.221 246.835,0.695 247.836 C 3.188 250.558,8.752 249.558,10.734 246.033 L 11.600 244.491 11.606 156.746 C 11.611 82.844,11.700 68.748,12.169 67.401 C 12.916 65.253,14.828 63.052,17.117 61.707 L 19.000 60.600 169.200 60.600 L 319.400 60.600 321.539 61.785 C 323.611 62.932,325.238 64.817,326.317 67.319 C 326.691 68.186,326.800 101.879,326.800 216.990 C 326.800 317.028,326.935 366.564,327.214 368.671 C 328.015 374.734,330.025 379.725,333.757 384.924 C 334.991 386.643,336.000 388.128,336.000 388.224 C 336.000 388.572,32.905 388.395,31.760 388.047 C 31.122 387.852,29.790 387.451,28.800 387.156 C 22.447 385.258,16.678 380.357,13.910 374.507 C 11.539 369.493,11.630 371.719,11.614 318.454 L 11.600 269.509 10.749 267.995 C 9.845 266.386,9.236 265.962,6.450 265.003 C 3.835 264.102,2.690 264.237,1.250 265.613 L -0.019 266.826 0.090 320.880 C 0.177 363.689,0.304 374.968,0.700 375.100 C 0.975 375.192,1.200 375.792,1.200 376.433 C 1.200 377.075,1.380 377.600,1.600 377.600 C 1.820 377.600,2.000 377.960,2.000 378.400 C 2.000 378.840,2.180 379.200,2.400 379.200 C 2.620 379.200,2.800 379.560,2.800 380.000 C 2.800 380.440,2.980 380.800,3.200 380.800 C 3.420 380.800,3.600 381.160,3.600 381.600 C 3.600 382.040,3.780 382.400,4.000 382.400 C 4.220 382.400,4.400 382.720,4.400 383.112 C 4.400 383.503,4.760 384.083,5.200 384.400 C 5.640 384.717,6.000 385.203,6.000 385.480 C 6.000 386.193,12.933 393.200,13.639 393.200 C 13.960 393.200,14.483 393.560,14.800 394.000 C 15.117 394.440,15.657 394.800,16.000 394.800 C 16.343 394.800,16.883 395.160,17.200 395.600 C 17.517 396.040,18.097 396.400,18.488 396.400 C 18.880 396.400,19.200 396.580,19.200 396.800 C 19.200 397.020,19.549 397.200,19.976 397.200 C 20.403 397.200,20.864 397.380,21.000 397.600 C 21.136 397.820,21.687 398.000,22.224 398.000 C 22.761 398.000,23.200 398.180,23.200 398.400 C 23.200 398.620,23.725 398.800,24.367 398.800 C 25.008 398.800,25.608 399.025,25.700 399.300 C 25.945 400.036,373.724 400.036,374.460 399.300 C 374.735 399.025,375.374 398.800,375.880 398.800 C 376.386 398.800,376.800 398.620,376.800 398.400 C 376.800 398.180,377.239 398.000,377.776 398.000 C 378.313 398.000,378.864 397.820,379.000 397.600 C 379.136 397.380,379.597 397.200,380.024 397.200 C 380.451 397.200,380.800 397.020,380.800 396.800 C 380.800 396.580,381.120 396.400,381.512 396.400 C 381.903 396.400,382.483 396.040,382.800 395.600 C 383.117 395.160,383.657 394.800,384.000 394.800 C 384.343 394.800,384.883 394.440,385.200 394.000 C 385.517 393.560,386.040 393.200,386.361 393.200 C 387.067 393.200,394.000 386.193,394.000 385.480 C 394.000 385.203,394.360 384.717,394.800 384.400 C 395.240 384.083,395.600 383.503,395.600 383.112 C 395.600 382.720,395.780 382.400,396.000 382.400 C 396.220 382.400,396.400 382.040,396.400 381.600 C 396.400 381.160,396.580 380.800,396.800 380.800 C 397.020 380.800,397.200 380.440,397.200 380.000 C 397.200 379.560,397.380 379.200,397.600 379.200 C 397.820 379.200,398.000 378.840,398.000 378.400 C 398.000 377.960,398.180 377.600,398.400 377.600 C 398.620 377.600,398.800 377.075,398.800 376.433 C 398.800 375.792,399.025 375.192,399.300 375.100 C 399.699 374.967,399.800 338.391,399.800 194.000 C 399.800 49.609,399.699 13.033,399.300 12.900 C 399.025 12.808,398.800 12.388,398.800 11.967 C 398.800 11.545,398.620 11.200,398.400 11.200 C 398.180 11.200,398.000 10.840,398.000 10.400 C 398.000 9.960,397.820 9.600,397.600 9.600 C 397.380 9.600,397.200 9.417,397.200 9.194 C 397.200 8.663,391.337 2.800,390.806 2.800 C 390.583 2.800,390.400 2.620,390.400 2.400 C 390.400 2.180,390.040 2.000,389.600 2.000 C 389.160 2.000,388.800 1.820,388.800 1.600 C 388.800 1.380,388.455 1.200,388.033 1.200 C 387.612 1.200,387.192 0.975,387.100 0.700 C 386.805 -0.185,266.758 -0.015,265.871 0.871 C 265.502 1.241,265.200 1.826,265.200 2.171 C 265.200 2.517,264.996 2.800,264.747 2.800 C 263.207 2.800,265.851 9.302,267.959 10.699 L 269.318 11.600 314.459 11.600 C 350.305 11.600,359.600 11.703,359.600 12.100 C 359.600 12.375,359.195 13.590,358.700 14.800 L 357.800 17.000 357.800 86.600 L 357.800 156.200 358.732 157.506 C 361.137 160.879,366.014 160.793,368.278 157.337 C 368.965 156.289,369.010 152.884,369.200 87.418 C 369.392 21.280,369.429 18.545,370.145 17.200 C 374.390 9.221,384.847 10.163,387.894 18.800 C 388.660 20.971,388.596 366.089,387.829 369.200 C 381.869 393.370,347.971 395.054,339.535 371.600 L 338.600 369.000 338.485 344.700 L 338.371 320.400 343.685 320.390 C 356.628 320.366,364.258 315.668,368.123 305.342 L 369.000 303.000 369.000 241.382 C 369.000 182.666,368.966 179.713,368.278 178.663 C 366.014 175.207,361.138 175.121,358.732 178.494 L 357.800 179.800 357.600 240.800 L 357.400 301.800 356.400 303.571 C 354.177 307.508,350.820 308.868,343.709 308.712 L 338.600 308.600 338.397 187.600 C 338.232 88.922,338.097 66.305,337.667 65.000 C 335.274 57.743,330.538 52.813,323.400 50.147 C 321.465 49.424,316.877 49.393,182.800 49.200 L 44.200 49.000 44.200 33.800 C 44.200 16.588,44.141 16.952,47.381 14.100 C 50.419 11.426,43.374 11.600,148.485 11.600 C 232.975 11.600,244.823 11.527,245.874 11.003 C 247.468 10.208,248.194 9.323,248.832 7.400 C 249.124 6.520,249.492 5.644,249.649 5.453 C 250.244 4.729,249.450 2.186,248.290 1.100 L 247.115 0.000 147.258 0.054 C 92.336 0.084,46.950 0.190,46.400 0.288 M28.311 74.481 C 25.172 76.301,25.412 71.787,25.300 131.200 C 25.190 189.949,25.075 187.214,27.737 189.360 L 29.274 190.600 169.137 190.600 C 307.303 190.600,309.016 190.590,310.295 189.817 C 313.415 187.929,313.200 192.191,313.200 132.333 C 313.200 76.682,313.219 77.331,311.532 75.459 C 309.753 73.485,318.537 73.599,169.254 73.609 L 29.800 73.618 28.311 74.481 M301.600 132.201 L 301.600 179.201 169.300 179.101 L 37.000 179.000 36.898 132.100 L 36.797 85.200 169.198 85.200 L 301.600 85.200 301.600 132.201 M53.000 99.182 C 51.102 99.626,50.039 100.475,49.189 102.226 C 47.934 104.812,47.961 159.641,49.219 162.238 C 50.561 165.011,53.935 166.263,56.520 164.949 C 60.039 163.160,60.000 163.410,60.000 142.605 C 60.000 131.889,60.152 124.353,60.371 124.218 C 60.575 124.092,61.757 125.476,62.998 127.295 C 65.159 130.460,69.270 136.421,81.303 153.836 C 88.024 163.565,87.520 162.920,89.207 163.948 C 92.179 165.759,96.007 164.586,97.900 161.283 C 98.569 160.116,98.628 106.060,97.963 103.420 C 96.697 98.390,90.554 97.303,87.679 101.600 L 86.743 103.000 86.837 121.702 C 86.888 131.987,86.809 140.524,86.661 140.672 C 86.273 141.060,87.322 142.529,71.190 119.000 C 68.324 114.820,65.726 111.097,65.417 110.727 C 65.108 110.357,63.591 108.197,62.046 105.927 C 57.511 99.261,56.354 98.398,53.000 99.182 M116.200 99.083 C 111.842 100.229,111.963 99.237,112.090 132.682 C 112.214 165.514,111.972 163.141,115.359 164.780 C 117.525 165.829,140.560 166.055,142.913 165.051 C 147.025 163.296,148.032 158.831,145.001 155.799 C 143.350 154.148,142.343 154.000,132.781 154.000 L 123.600 154.000 123.600 146.000 L 123.600 138.000 131.300 137.990 C 143.078 137.976,146.402 136.162,144.717 130.670 C 143.575 126.949,141.890 126.405,131.500 126.402 L 123.600 126.400 123.600 118.447 C 123.600 108.931,122.233 110.013,134.269 110.005 L 143.139 110.000 144.384 108.952 C 147.538 106.298,147.504 102.213,144.309 99.933 C 143.034 99.024,119.168 98.302,116.200 99.083 M164.503 99.082 C 159.890 99.972,160.017 105.504,165.177 128.400 C 165.400 129.390,165.952 132.180,166.403 134.600 C 166.855 137.020,167.384 139.720,167.579 140.600 C 167.775 141.480,168.124 143.190,168.356 144.400 C 169.106 148.328,169.634 150.968,169.994 152.600 C 170.188 153.480,170.555 155.370,170.810 156.800 C 172.129 164.196,175.932 167.140,181.057 164.731 C 182.781 163.921,185.200 161.054,185.200 159.822 C 185.200 159.590,185.906 157.150,186.768 154.400 C 189.013 147.242,191.775 138.289,192.813 134.800 C 195.695 125.121,196.322 123.980,197.159 126.889 C 198.057 130.006,200.046 136.584,200.399 137.600 C 200.589 138.150,201.141 139.950,201.625 141.600 C 202.108 143.250,202.994 146.130,203.593 148.000 C 204.192 149.870,205.094 152.750,205.597 154.400 C 208.180 162.877,208.462 163.377,211.446 164.780 C 214.205 166.077,216.769 165.595,219.005 163.359 C 220.648 161.715,220.676 161.605,224.572 141.600 C 225.579 136.430,226.570 131.480,226.775 130.600 C 226.979 129.720,227.357 127.830,227.613 126.400 C 227.870 124.970,228.222 123.260,228.396 122.600 C 228.570 121.940,228.932 120.050,229.200 118.400 C 229.468 116.750,229.827 114.860,229.998 114.200 C 230.169 113.540,230.509 111.965,230.754 110.700 C 230.999 109.435,231.394 107.455,231.631 106.300 C 232.323 102.931,230.087 99.269,227.269 99.158 C 221.910 98.945,221.189 99.932,219.200 110.200 C 218.944 111.520,218.584 113.320,218.400 114.200 C 218.216 115.080,217.868 116.790,217.628 118.000 C 217.388 119.210,216.722 122.540,216.148 125.400 C 215.574 128.260,214.798 132.224,214.423 134.209 C 214.049 136.193,213.542 138.173,213.298 138.609 C 212.831 139.441,212.768 139.366,212.268 137.400 C 212.156 136.960,211.690 135.385,211.232 133.900 C 209.550 128.441,208.783 125.943,208.039 123.500 C 204.570 112.106,202.000 103.973,201.495 102.800 C 200.210 99.808,197.581 98.428,194.687 99.227 C 191.888 100.000,191.306 100.983,188.788 109.200 C 188.080 111.510,187.185 114.390,186.799 115.600 C 186.413 116.810,185.703 119.150,185.222 120.800 C 184.740 122.450,184.190 124.250,184.000 124.800 C 183.673 125.749,182.384 129.851,180.381 136.318 C 179.131 140.354,179.232 140.586,176.766 128.000 C 176.529 126.790,176.171 125.080,175.970 124.200 C 175.769 123.320,174.967 119.270,174.188 115.200 C 171.513 101.241,171.331 100.723,168.647 99.449 C 167.313 98.816,166.332 98.729,164.503 99.082 M263.400 99.024 C 262.960 99.126,261.610 99.426,260.400 99.690 C 248.967 102.189,242.642 114.301,247.519 124.357 C 248.510 126.401,252.791 131.200,253.623 131.200 C 253.817 131.200,254.953 131.647,256.147 132.193 C 257.341 132.739,261.528 134.456,265.452 136.009 C 273.897 139.352,275.642 140.312,277.217 142.487 C 281.918 148.976,272.547 156.008,262.637 153.426 C 258.674 152.394,257.090 151.507,252.416 147.700 C 246.580 142.947,239.651 149.472,244.200 155.436 C 253.099 167.103,274.637 168.673,284.717 158.390 C 295.433 147.457,289.945 133.332,272.287 126.401 C 269.379 125.259,266.550 124.138,266.000 123.909 C 265.450 123.680,264.640 123.343,264.200 123.160 C 258.312 120.709,257.597 120.122,257.328 117.516 C 256.879 113.161,260.389 110.600,266.809 110.600 C 269.158 110.600,271.512 110.802,272.040 111.049 C 272.568 111.296,273.900 111.919,275.000 112.434 C 276.100 112.948,277.783 113.892,278.739 114.531 C 285.078 118.765,291.557 110.880,285.905 105.810 C 280.913 101.332,268.972 97.731,263.400 99.024 M29.895 211.144 C 27.747 211.641,26.099 213.397,25.624 215.693 C 24.731 220.007,25.249 343.497,26.168 345.347 C 27.823 348.682,22.187 348.397,86.400 348.397 C 150.406 348.397,145.027 348.657,146.532 345.487 C 147.227 344.023,147.536 216.885,146.851 214.436 C 146.702 213.907,145.894 212.917,145.054 212.236 L 143.526 211.000 87.263 210.944 C 56.318 210.913,30.503 211.003,29.895 211.144 M171.900 211.084 C 167.563 211.752,166.240 218.312,169.882 221.089 L 171.338 222.200 240.169 222.200 C 318.169 222.200,310.694 222.539,312.395 218.921 C 313.654 216.243,312.785 213.289,310.295 211.783 C 309.080 211.048,176.480 210.378,171.900 211.084 M135.501 222.731 C 135.900 222.984,135.982 234.668,135.901 279.824 L 135.800 336.600 86.400 336.600 L 37.000 336.600 36.899 279.824 C 36.818 234.668,36.900 222.984,37.299 222.731 C 37.574 222.556,59.670 222.412,86.400 222.412 C 113.130 222.412,135.226 222.556,135.501 222.731 M170.931 236.775 C 166.731 238.682,166.459 244.602,170.474 246.745 L 172.076 247.600 240.283 247.600 L 308.491 247.600 310.033 246.734 C 314.093 244.452,313.945 238.790,309.774 236.830 C 307.116 235.581,173.678 235.528,170.931 236.775 M172.110 261.585 C 166.439 262.945,166.056 270.832,171.583 272.427 C 174.708 273.328,309.235 272.721,310.488 271.800 C 314.032 269.193,313.679 264.187,309.801 262.059 C 308.500 261.345,175.027 260.886,172.110 261.585 M170.606 287.324 C 167.167 289.386,166.609 293.694,169.426 296.426 L 170.844 297.800 240.122 297.800 L 309.400 297.800 310.640 296.916 C 314.011 294.511,313.617 289.271,309.921 287.359 C 308.442 286.594,171.879 286.560,170.606 287.324 M171.000 312.377 C 166.537 314.198,166.621 321.130,171.126 322.847 C 171.648 323.046,201.942 323.200,240.567 323.200 L 309.082 323.200 310.441 322.285 C 313.819 320.011,313.819 315.189,310.441 312.915 L 309.082 312.000 240.441 312.025 C 202.688 312.039,171.440 312.198,171.000 312.377 M171.359 337.472 C 167.268 338.289,166.439 345.372,170.168 347.646 C 171.823 348.655,307.979 348.845,309.921 347.841 C 313.662 345.906,313.966 340.500,310.468 338.125 C 309.465 337.444,174.667 336.812,171.359 337.472 M29.000 362.963 C 24.811 364.829,24.460 370.697,28.400 372.986 C 30.049 373.945,303.827 374.551,308.240 373.606 C 313.297 372.524,314.634 366.450,310.488 363.400 C 309.084 362.367,31.305 361.937,29.000 362.963 " stroke="none" fill="#050505" fill-rule="evenodd"></path><path id="path2" d="M370.064 18.219 C 369.717 18.982,369.625 36.324,369.698 87.319 L 369.795 155.400 369.998 87.000 C 370.109 49.380,370.354 18.285,370.543 17.900 C 370.731 17.515,370.805 17.200,370.707 17.200 C 370.609 17.200,370.320 17.658,370.064 18.219 M44.741 48.501 C 44.906 48.666,106.502 48.756,181.621 48.701 L 318.200 48.600 181.320 48.400 C 106.036 48.290,44.575 48.335,44.741 48.501 M94.867 61.100 C 135.715 61.156,202.675 61.156,243.667 61.100 C 284.660 61.044,251.240 60.998,169.400 60.998 C 87.560 60.998,54.020 61.044,94.867 61.100 M338.597 188.600 C 338.597 254.600,338.644 281.540,338.700 248.468 C 338.756 215.395,338.756 161.395,338.700 128.468 C 338.644 95.540,338.597 122.600,338.597 188.600 M313.394 132.200 C 313.394 162.120,313.442 174.301,313.500 159.269 C 313.558 144.237,313.558 119.757,313.500 104.869 C 313.442 89.981,313.394 102.280,313.394 132.200 M369.795 240.400 C 369.795 273.290,369.842 286.745,369.900 270.300 C 369.958 253.855,369.958 226.945,369.900 210.500 C 369.842 194.055,369.795 207.510,369.795 240.400 M58.300 210.700 C 73.755 210.758,99.045 210.758,114.500 210.700 C 129.955 210.642,117.310 210.595,86.400 210.595 C 55.490 210.595,42.845 210.642,58.300 210.700 M206.332 210.700 C 225.104 210.757,255.704 210.757,274.332 210.700 C 292.959 210.642,277.600 210.595,240.200 210.595 C 202.800 210.595,187.559 210.642,206.332 210.700 M313.301 216.600 C 313.305 217.480,313.387 217.793,313.483 217.295 C 313.579 216.798,313.575 216.078,313.475 215.695 C 313.375 215.313,313.296 215.720,313.301 216.600 M147.795 279.800 C 147.795 315.000,147.842 329.341,147.900 311.668 C 147.958 293.996,147.958 265.196,147.900 247.668 C 147.842 230.141,147.795 244.600,147.795 279.800 M37.299 279.700 L 37.400 336.600 86.400 336.600 L 135.400 336.600 135.501 279.700 L 135.603 222.800 86.400 222.800 L 37.197 222.800 37.299 279.700 M206.132 235.900 C 225.014 235.957,255.794 235.957,274.532 235.900 C 293.269 235.842,277.820 235.795,240.200 235.795 C 202.580 235.795,187.249 235.842,206.132 235.900 M313.301 241.800 C 313.305 242.680,313.387 242.993,313.483 242.495 C 313.579 241.998,313.575 241.278,313.475 240.895 C 313.375 240.513,313.296 240.920,313.301 241.800 M313.301 267.000 C 313.305 267.880,313.387 268.193,313.483 267.695 C 313.579 267.198,313.575 266.478,313.475 266.095 C 313.375 265.713,313.296 266.120,313.301 267.000 M206.268 286.300 C 224.786 286.357,255.206 286.357,273.868 286.300 C 292.531 286.242,277.380 286.195,240.200 286.195 C 203.020 286.195,187.751 286.242,206.268 286.300 M313.301 292.200 C 313.305 293.080,313.387 293.393,313.483 292.895 C 313.579 292.398,313.575 291.678,313.475 291.295 C 313.375 290.913,313.296 291.320,313.301 292.200 M361.170 315.900 L 360.200 317.000 361.400 316.000 C 362.060 315.450,362.675 314.955,362.767 314.900 C 362.858 314.845,362.755 314.800,362.536 314.800 C 362.318 314.800,361.703 315.295,361.170 315.900 M313.293 317.600 C 313.293 318.370,313.375 318.685,313.476 318.300 C 313.576 317.915,313.576 317.285,313.476 316.900 C 313.375 316.515,313.293 316.830,313.293 317.600 M358.600 317.600 C 357.940 318.037,357.580 318.392,357.800 318.388 C 358.201 318.382,360.376 316.823,360.000 316.812 C 359.890 316.808,359.260 317.163,358.600 317.600 M338.984 320.900 C 338.878 321.175,338.841 331.660,338.900 344.200 L 339.007 367.000 339.103 343.910 L 339.200 320.820 345.500 320.699 L 351.800 320.578 345.487 320.489 C 340.739 320.422,339.128 320.524,338.984 320.900 M313.301 343.000 C 313.305 343.880,313.387 344.193,313.483 343.695 C 313.579 343.198,313.575 342.478,313.475 342.095 C 313.375 341.713,313.296 342.120,313.301 343.000 M58.500 349.100 C 73.845 349.158,98.955 349.158,114.300 349.100 C 129.645 349.042,117.090 348.994,86.400 348.994 C 55.710 348.994,43.155 349.042,58.500 349.100 M206.268 349.100 C 224.786 349.157,255.206 349.157,273.868 349.100 C 292.531 349.042,277.380 348.995,240.200 348.995 C 203.020 348.995,187.751 349.042,206.268 349.100 M387.400 367.600 C 387.246 368.510,387.204 369.338,387.307 369.440 C 387.410 369.543,387.613 368.877,387.760 367.960 C 387.907 367.043,387.948 366.215,387.853 366.120 C 387.758 366.024,387.554 366.690,387.400 367.600 M24.893 368.000 C 24.893 368.770,24.975 369.085,25.076 368.700 C 25.176 368.315,25.176 367.685,25.076 367.300 C 24.975 366.915,24.893 367.230,24.893 368.000 M313.301 368.200 C 313.305 369.080,313.387 369.393,313.483 368.895 C 313.579 368.398,313.575 367.678,313.475 367.295 C 313.375 366.913,313.296 367.320,313.301 368.200 M345.633 380.900 C 345.725 380.955,346.340 381.450,347.000 382.000 L 348.200 383.000 347.230 381.900 C 346.697 381.295,346.082 380.800,345.864 380.800 C 345.645 380.800,345.542 380.845,345.633 380.900 M350.400 384.420 C 351.787 385.361,352.578 385.635,351.600 384.836 C 351.050 384.386,350.420 384.017,350.200 384.015 C 349.980 384.013,350.070 384.196,350.400 384.420 " stroke="none" fill="#db74a3" fill-rule="evenodd"></path><path id="path3" d="M37.600 132.200 L 37.600 178.800 169.400 178.800 L 301.200 178.800 301.200 132.200 L 301.200 85.600 169.400 85.600 L 37.600 85.600 37.600 132.200 M57.158 99.231 C 58.992 100.349,59.024 100.386,62.406 105.400 C 64.038 107.820,65.485 109.890,65.620 110.000 C 65.755 110.110,68.183 113.620,71.016 117.800 C 73.848 121.980,76.308 125.460,76.483 125.533 C 76.657 125.607,76.803 125.877,76.807 126.133 C 76.811 126.390,77.256 127.140,77.795 127.800 C 78.334 128.460,80.446 131.430,82.487 134.400 L 86.200 139.800 86.304 121.033 L 86.408 102.265 87.425 100.932 C 90.179 97.321,95.759 97.648,97.906 101.547 C 98.869 103.297,99.712 157.012,98.828 160.295 C 97.334 165.843,90.349 167.064,86.600 162.434 C 86.160 161.890,83.650 158.285,81.023 154.423 C 78.396 150.560,76.101 147.340,75.923 147.267 C 75.745 147.193,75.600 146.878,75.600 146.567 C 75.600 146.255,75.420 146.000,75.200 146.000 C 74.980 146.000,74.800 145.730,74.800 145.400 C 74.800 145.070,74.650 144.800,74.468 144.800 C 74.285 144.800,73.880 144.308,73.568 143.706 C 73.255 143.104,72.780 142.339,72.511 142.006 C 72.243 141.673,70.232 138.790,68.044 135.600 C 65.855 132.410,63.895 129.609,63.687 129.375 C 63.478 129.141,63.077 128.511,62.794 127.975 C 62.512 127.439,62.162 126.910,62.017 126.800 C 61.872 126.690,61.449 126.155,61.077 125.611 C 60.437 124.675,60.400 125.621,60.400 143.116 C 60.400 163.875,60.541 162.862,57.338 165.113 C 54.817 166.885,51.205 165.997,49.037 163.071 C 47.718 161.291,47.718 103.109,49.037 101.329 C 51.164 98.458,54.483 97.600,57.158 99.231 M143.701 98.854 C 147.682 100.985,148.446 105.440,145.387 108.680 L 143.573 110.600 133.887 110.800 L 124.200 111.000 124.091 118.300 L 123.982 125.600 131.597 125.600 C 138.780 125.600,142.400 126.035,142.400 126.897 C 142.400 127.064,142.630 127.200,142.911 127.200 C 144.658 127.200,146.237 132.471,145.100 134.505 C 143.104 138.076,142.173 138.369,132.400 138.494 L 124.200 138.600 124.091 146.100 L 123.982 153.600 133.397 153.600 C 142.699 153.600,143.616 153.711,144.998 155.000 C 148.251 158.036,147.855 162.693,144.137 165.131 C 142.843 165.979,142.493 166.000,129.367 166.000 C 114.881 166.000,115.080 166.027,113.000 163.798 C 111.610 162.308,111.600 162.068,111.629 132.105 C 111.662 99.258,111.493 101.261,114.389 99.300 C 115.931 98.256,141.847 97.862,143.701 98.854 M169.606 99.300 C 171.195 100.380,172.450 102.671,172.882 105.283 C 173.182 107.090,173.399 108.217,174.424 113.300 C 174.656 114.455,174.944 116.210,175.062 117.200 C 175.181 118.190,175.440 119.171,175.639 119.380 C 175.837 119.589,176.000 120.523,176.000 121.456 C 176.000 122.389,176.180 123.264,176.400 123.400 C 176.620 123.536,176.800 124.436,176.800 125.400 C 176.800 126.364,176.980 127.264,177.200 127.400 C 177.420 127.536,177.600 128.411,177.600 129.344 C 177.600 130.277,177.762 131.211,177.959 131.420 C 178.156 131.629,178.414 132.520,178.532 133.400 C 178.869 135.916,179.502 138.327,179.554 137.295 C 179.579 136.797,179.765 136.077,179.966 135.695 C 180.168 135.313,180.720 133.650,181.193 132.000 C 181.667 130.350,182.208 128.550,182.396 128.000 C 182.584 127.450,183.213 125.380,183.794 123.400 C 184.375 121.420,184.997 119.350,185.177 118.800 C 185.356 118.250,186.086 115.910,186.799 113.600 C 187.512 111.290,188.234 109.040,188.402 108.600 C 188.571 108.160,188.930 106.990,189.200 106.000 C 190.307 101.942,191.013 100.700,192.910 99.470 C 194.932 98.159,197.118 98.074,199.146 99.227 C 201.538 100.588,201.720 100.977,204.843 111.400 C 205.305 112.940,205.844 114.513,206.041 114.895 C 206.238 115.277,206.400 116.031,206.400 116.571 C 206.400 117.111,206.580 117.664,206.800 117.800 C 207.020 117.936,207.200 118.399,207.200 118.829 C 207.200 119.259,207.362 119.923,207.561 120.305 C 207.760 120.687,208.137 121.810,208.400 122.800 C 208.663 123.790,209.040 124.913,209.239 125.295 C 209.438 125.677,209.600 126.341,209.600 126.771 C 209.600 127.201,209.780 127.664,210.000 127.800 C 210.220 127.936,210.400 128.566,210.400 129.200 C 210.400 129.834,210.580 130.464,210.800 130.600 C 211.020 130.736,211.200 131.276,211.200 131.800 C 211.200 132.324,211.380 132.864,211.600 133.000 C 211.820 133.136,212.000 133.766,212.000 134.400 C 212.000 135.034,212.180 135.664,212.400 135.800 C 212.620 135.936,212.811 136.442,212.825 136.924 C 212.883 138.988,214.093 133.601,216.627 120.000 C 217.328 116.236,219.108 107.331,219.625 105.000 C 220.883 99.331,224.973 96.873,229.198 99.247 C 232.292 100.986,232.861 103.377,231.614 109.400 C 231.386 110.500,231.027 112.300,230.816 113.400 C 230.605 114.500,230.245 116.300,230.016 117.400 C 229.290 120.891,228.760 123.750,228.536 125.400 C 228.416 126.280,228.156 127.171,227.959 127.380 C 227.762 127.589,227.600 128.523,227.600 129.456 C 227.600 130.389,227.420 131.264,227.200 131.400 C 226.980 131.536,226.800 132.436,226.800 133.400 C 226.800 134.364,226.620 135.264,226.400 135.400 C 226.180 135.536,226.000 136.411,226.000 137.344 C 226.000 138.277,225.838 139.211,225.641 139.420 C 225.305 139.776,225.132 140.668,224.577 144.900 C 224.455 145.835,224.196 146.960,224.002 147.400 C 223.808 147.840,223.556 148.830,223.441 149.600 C 223.241 150.946,222.969 152.446,222.060 157.200 C 220.860 163.473,218.591 166.002,214.165 165.999 C 210.906 165.996,206.800 162.763,206.800 160.200 C 206.800 159.864,206.638 159.277,206.439 158.895 C 206.240 158.513,205.860 157.390,205.593 156.400 C 205.327 155.410,204.971 154.240,204.802 153.800 C 204.633 153.360,204.092 151.650,203.600 150.000 C 203.108 148.350,202.566 146.640,202.397 146.200 C 202.227 145.760,201.597 143.690,200.997 141.600 C 200.396 139.510,199.386 136.180,198.752 134.200 C 198.119 132.220,197.600 130.296,197.600 129.924 C 197.600 129.552,197.420 129.136,197.200 129.000 C 196.980 128.864,196.800 128.313,196.800 127.776 C 196.800 127.175,196.569 126.800,196.200 126.800 C 195.831 126.800,195.600 127.175,195.600 127.776 C 195.600 128.313,195.420 128.864,195.200 129.000 C 194.980 129.136,194.800 129.766,194.800 130.400 C 194.800 131.034,194.620 131.664,194.400 131.800 C 194.180 131.936,194.000 132.476,194.000 133.000 C 194.000 133.524,193.820 134.064,193.600 134.200 C 193.380 134.336,193.200 134.966,193.200 135.600 C 193.200 136.234,193.020 136.864,192.800 137.000 C 192.580 137.136,192.400 137.599,192.400 138.029 C 192.400 138.459,192.238 139.123,192.039 139.505 C 191.840 139.887,191.460 141.010,191.193 142.000 C 190.927 142.990,190.571 144.160,190.402 144.600 C 190.233 145.040,189.692 146.750,189.199 148.400 C 188.707 150.050,188.156 151.850,187.977 152.400 C 187.797 152.950,187.164 155.020,186.570 157.000 C 185.044 162.081,184.261 163.452,182.103 164.821 C 176.969 168.076,171.779 164.966,170.389 157.800 C 170.133 156.480,169.758 154.590,169.556 153.600 C 169.151 151.617,168.333 147.517,167.363 142.600 C 167.015 140.840,166.190 136.700,165.529 133.400 C 164.867 130.100,164.156 126.410,163.948 125.200 C 163.739 123.990,163.396 122.145,163.184 121.100 C 162.973 120.055,162.614 118.255,162.387 117.100 C 162.160 115.945,161.800 114.145,161.587 113.100 C 161.374 112.055,161.008 110.255,160.774 109.100 C 159.871 104.655,159.873 103.335,160.782 101.721 C 162.604 98.484,166.737 97.350,169.606 99.300 M273.800 99.203 C 278.207 100.292,284.135 103.310,286.500 105.668 C 292.138 111.288,284.438 120.224,278.420 115.046 C 277.355 114.129,273.185 112.000,272.455 112.000 C 272.073 112.000,271.560 111.800,271.317 111.557 C 271.050 111.290,269.248 111.113,266.800 111.113 C 264.352 111.113,262.550 111.290,262.283 111.557 C 262.040 111.800,261.574 112.000,261.248 112.000 C 260.923 112.000,260.059 112.653,259.328 113.450 C 256.869 116.135,257.551 119.667,260.800 121.068 C 261.350 121.305,262.700 121.904,263.800 122.400 C 264.900 122.896,266.250 123.480,266.800 123.697 C 267.350 123.915,268.113 124.252,268.495 124.447 C 268.877 124.641,269.445 124.800,269.757 124.800 C 270.069 124.800,271.106 125.186,272.062 125.657 C 273.018 126.128,274.250 126.689,274.800 126.903 C 275.350 127.118,276.113 127.452,276.495 127.647 C 276.877 127.841,277.462 128.000,277.795 128.000 C 278.128 128.000,278.402 128.135,278.405 128.300 C 278.407 128.465,279.172 128.960,280.104 129.400 C 282.868 130.705,287.273 135.360,288.808 138.599 C 291.373 144.008,290.695 150.890,287.063 156.343 C 284.605 160.034,279.871 163.512,275.600 164.765 C 274.610 165.056,273.278 165.452,272.640 165.647 C 269.492 166.606,259.824 165.662,256.200 164.042 C 251.622 161.994,249.221 160.673,247.632 159.325 C 247.064 158.843,245.969 157.918,245.198 157.269 C 241.022 153.755,241.185 148.591,245.550 146.139 C 248.340 144.572,249.962 144.946,253.600 147.997 C 261.145 154.324,270.452 155.301,275.638 150.311 C 279.756 146.347,278.619 142.571,272.400 139.555 C 269.492 138.144,269.452 138.128,265.000 136.458 C 261.857 135.280,257.444 133.453,254.113 131.952 C 250.866 130.489,245.974 124.360,245.994 121.780 C 245.997 121.329,245.806 120.766,245.568 120.528 C 245.115 120.075,245.260 114.807,245.787 112.600 C 248.287 102.130,261.014 96.043,273.800 99.203 " stroke="none" fill="#fbe37c" fill-rule="evenodd"></path><path id="path4" d="M264.800 6.921 C 264.800 8.072,266.512 10.313,268.054 11.181 C 269.496 11.993,269.910 12.000,314.354 12.000 C 360.433 12.000,361.035 12.019,358.800 13.400 C 358.580 13.536,358.407 14.042,358.416 14.524 C 358.433 15.518,359.600 13.184,359.600 12.154 C 359.600 11.685,352.655 11.600,314.459 11.600 L 269.318 11.600 267.959 10.697 C 267.212 10.200,266.195 8.992,265.700 8.012 C 265.205 7.032,264.800 6.541,264.800 6.921 M247.400 10.000 C 247.002 10.440,246.445 10.800,246.162 10.800 C 245.879 10.800,245.536 10.980,245.400 11.200 C 245.264 11.420,245.341 11.600,245.570 11.600 C 246.007 11.600,248.776 9.232,248.362 9.212 C 248.231 9.205,247.798 9.560,247.400 10.000 M50.486 12.103 C 47.808 12.961,43.926 17.381,44.530 18.885 C 44.660 19.208,44.749 19.136,44.768 18.692 C 44.846 16.948,47.765 13.652,50.200 12.559 C 50.662 12.352,92.039 12.115,148.000 11.998 L 245.000 11.796 148.400 11.739 C 81.730 11.699,51.393 11.812,50.486 12.103 M375.437 12.404 C 372.695 13.475,369.518 16.903,369.618 18.684 C 369.627 18.858,370.011 18.280,370.471 17.400 C 374.030 10.585,383.253 10.439,386.794 17.141 C 387.218 17.943,387.573 18.371,387.582 18.091 C 387.721 14.112,380.147 10.565,375.437 12.404 M357.414 20.500 C 357.271 22.535,357.209 53.914,357.277 90.231 L 357.400 156.262 358.521 157.732 C 361.305 161.383,368.649 160.892,368.787 157.046 C 368.794 156.851,368.424 157.170,367.965 157.754 C 365.526 160.855,361.034 160.734,358.732 157.506 L 357.800 156.200 357.800 86.500 C 357.800 48.165,357.772 16.800,357.737 16.800 C 357.703 16.800,357.558 18.465,357.414 20.500 M387.800 194.062 C 387.800 290.414,387.917 368.832,388.060 368.324 C 388.422 367.037,388.456 19.907,388.094 19.338 C 387.932 19.084,387.800 97.710,387.800 194.062 M44.190 34.200 L 44.200 49.000 182.000 49.001 L 319.800 49.002 182.200 48.801 L 44.600 48.600 44.390 34.000 L 44.180 19.400 44.190 34.200 M369.293 87.000 C 369.236 124.180,369.089 155.050,368.967 155.600 C 368.785 156.420,368.822 156.480,369.174 155.933 C 369.475 155.464,369.572 135.134,369.500 87.333 L 369.398 19.400 369.293 87.000 M321.200 49.600 C 322.742 50.094,323.564 50.094,322.800 49.600 C 322.470 49.387,321.750 49.227,321.200 49.246 L 320.200 49.280 321.200 49.600 M323.633 50.141 C 324.013 50.461,328.400 52.342,328.400 52.185 C 328.400 51.919,324.487 50.000,323.947 50.000 C 323.683 50.000,323.542 50.063,323.633 50.141 M330.884 54.373 C 332.139 55.508,333.745 57.329,334.451 58.418 C 335.157 59.508,335.814 60.320,335.911 60.223 C 336.396 59.737,331.969 54.592,329.800 53.122 C 329.140 52.674,329.628 53.237,330.884 54.373 M95.333 60.700 C 136.215 60.756,202.995 60.756,243.733 60.700 C 284.470 60.644,251.020 60.598,169.400 60.598 C 87.780 60.598,54.450 60.644,95.333 60.700 M17.500 61.429 C 16.895 61.757,16.400 62.116,16.400 62.227 C 16.400 62.338,16.805 62.208,17.300 61.940 C 17.795 61.672,18.830 61.326,19.600 61.172 C 20.963 60.899,20.968 60.891,19.800 60.862 C 19.140 60.846,18.105 61.101,17.500 61.429 M319.000 61.174 C 321.753 61.844,324.579 64.184,325.727 66.744 C 326.087 67.548,326.248 103.423,326.401 217.200 L 326.602 366.600 326.701 217.519 C 326.778 101.813,326.692 68.187,326.317 67.319 C 324.809 63.823,321.199 60.735,318.746 60.841 C 317.940 60.876,317.977 60.925,319.000 61.174 M14.034 64.256 C 13.135 65.277,12.407 66.402,12.416 66.756 C 12.425 67.129,12.698 66.895,13.063 66.200 C 13.410 65.540,14.248 64.415,14.925 63.700 C 15.603 62.985,16.047 62.400,15.912 62.400 C 15.778 62.400,14.933 63.235,14.034 64.256 M337.873 66.400 C 338.004 67.390,338.176 68.275,338.256 68.367 C 338.557 68.714,338.328 66.164,337.990 65.400 C 337.753 64.866,337.714 65.198,337.873 66.400 M11.843 68.233 C 11.709 68.581,11.600 108.381,11.600 156.678 L 11.600 244.491 10.734 246.032 C 10.189 247.002,9.262 247.868,8.234 248.367 C 7.335 248.803,6.870 249.168,7.200 249.179 C 8.353 249.214,10.374 247.619,11.181 246.037 C 11.863 244.700,12.817 67.600,12.143 67.600 C 12.111 67.600,11.976 67.885,11.843 68.233 M28.235 74.107 C 24.714 76.117,25.000 70.979,25.000 132.200 C 25.000 182.884,25.043 186.286,25.702 187.600 C 26.525 189.242,28.837 190.949,29.875 190.681 C 30.511 190.516,30.500 190.487,29.791 190.446 C 28.114 190.350,26.085 188.135,25.620 185.893 C 24.784 181.858,25.245 78.511,26.106 76.782 C 27.759 73.466,11.595 73.826,169.200 73.599 L 309.000 73.398 169.400 73.305 L 29.800 73.213 28.235 74.107 M312.412 76.800 C 312.412 77.130,312.587 77.670,312.800 78.000 C 313.145 78.533,313.188 78.533,313.188 78.000 C 313.188 77.670,313.013 77.130,312.800 76.800 C 312.455 76.267,312.412 76.267,312.412 76.800 M36.898 132.100 L 37.000 179.000 169.300 179.101 L 301.600 179.201 301.600 132.201 L 301.600 85.200 169.198 85.200 L 36.797 85.200 36.898 132.100 M301.200 132.200 L 301.200 178.800 169.400 178.800 L 37.600 178.800 37.600 132.200 L 37.600 85.600 169.400 85.600 L 301.200 85.600 301.200 132.200 M51.196 99.300 C 47.948 101.510,48.200 98.744,48.200 132.200 C 48.200 161.751,48.205 161.949,49.037 163.071 C 51.205 165.997,54.817 166.885,57.338 165.113 C 60.541 162.862,60.400 163.875,60.400 143.116 C 60.400 125.621,60.437 124.675,61.077 125.611 C 61.449 126.155,61.872 126.690,62.017 126.800 C 62.162 126.910,62.512 127.439,62.794 127.975 C 63.077 128.511,63.478 129.141,63.687 129.375 C 63.895 129.609,65.855 132.410,68.044 135.600 C 70.232 138.790,72.243 141.673,72.511 142.006 C 72.780 142.339,73.255 143.104,73.568 143.706 C 73.880 144.308,74.285 144.800,74.468 144.800 C 74.650 144.800,74.800 145.070,74.800 145.400 C 74.800 145.730,74.980 146.000,75.200 146.000 C 75.420 146.000,75.600 146.255,75.600 146.567 C 75.600 146.878,75.745 147.193,75.923 147.267 C 76.101 147.340,78.396 150.560,81.023 154.423 C 83.650 158.285,86.160 161.890,86.600 162.434 C 90.349 167.064,97.334 165.843,98.828 160.295 C 99.712 157.012,98.869 103.297,97.906 101.547 C 95.759 97.648,90.179 97.321,87.425 100.932 L 86.408 102.265 86.304 121.033 L 86.200 139.800 82.487 134.400 C 80.446 131.430,78.334 128.460,77.795 127.800 C 77.256 127.140,76.811 126.390,76.807 126.133 C 76.803 125.877,76.657 125.607,76.483 125.533 C 76.308 125.460,73.848 121.980,71.016 117.800 C 68.183 113.620,65.755 110.110,65.620 110.000 C 65.485 109.890,64.038 107.820,62.406 105.400 C 57.627 98.315,54.857 96.808,51.196 99.300 M114.389 99.300 C 111.493 101.261,111.662 99.258,111.629 132.105 C 111.600 162.068,111.610 162.308,113.000 163.798 C 115.080 166.027,114.881 166.000,129.367 166.000 C 142.493 166.000,142.843 165.979,144.137 165.131 C 147.855 162.693,148.251 158.036,144.998 155.000 C 143.616 153.711,142.699 153.600,133.397 153.600 L 123.982 153.600 124.091 146.100 L 124.200 138.600 132.400 138.494 C 142.173 138.369,143.104 138.076,145.100 134.505 C 146.237 132.471,144.658 127.200,142.911 127.200 C 142.630 127.200,142.400 127.064,142.400 126.897 C 142.400 126.035,138.780 125.600,131.597 125.600 L 123.982 125.600 124.091 118.300 L 124.200 111.000 133.887 110.800 L 143.573 110.600 145.387 108.680 C 148.446 105.440,147.682 100.985,143.701 98.854 C 141.847 97.862,115.931 98.256,114.389 99.300 M162.919 99.325 C 160.072 101.270,159.611 103.371,160.774 109.100 C 161.008 110.255,161.374 112.055,161.587 113.100 C 161.800 114.145,162.160 115.945,162.387 117.100 C 162.614 118.255,162.973 120.055,163.184 121.100 C 163.396 122.145,163.739 123.990,163.948 125.200 C 164.156 126.410,164.867 130.100,165.529 133.400 C 166.190 136.700,167.015 140.840,167.363 142.600 C 168.333 147.517,169.151 151.617,169.556 153.600 C 169.758 154.590,170.133 156.480,170.389 157.800 C 171.779 164.966,176.969 168.076,182.103 164.821 C 184.261 163.452,185.044 162.081,186.570 157.000 C 187.164 155.020,187.797 152.950,187.977 152.400 C 188.156 151.850,188.707 150.050,189.199 148.400 C 189.692 146.750,190.233 145.040,190.402 144.600 C 190.571 144.160,190.927 142.990,191.193 142.000 C 191.460 141.010,191.840 139.887,192.039 139.505 C 192.238 139.123,192.400 138.459,192.400 138.029 C 192.400 137.599,192.580 137.136,192.800 137.000 C 193.020 136.864,193.200 136.234,193.200 135.600 C 193.200 134.966,193.380 134.336,193.600 134.200 C 193.820 134.064,194.000 133.524,194.000 133.000 C 194.000 132.476,194.180 131.936,194.400 131.800 C 194.620 131.664,194.800 131.034,194.800 130.400 C 194.800 129.766,194.980 129.136,195.200 129.000 C 195.420 128.864,195.600 128.313,195.600 127.776 C 195.600 127.175,195.831 126.800,196.200 126.800 C 196.569 126.800,196.800 127.175,196.800 127.776 C 196.800 128.313,196.980 128.864,197.200 129.000 C 197.420 129.136,197.600 129.552,197.600 129.924 C 197.600 130.296,198.119 132.220,198.752 134.200 C 199.386 136.180,200.396 139.510,200.997 141.600 C 201.597 143.690,202.227 145.760,202.397 146.200 C 202.566 146.640,203.108 148.350,203.600 150.000 C 204.092 151.650,204.633 153.360,204.802 153.800 C 204.971 154.240,205.327 155.410,205.593 156.400 C 205.860 157.390,206.240 158.513,206.439 158.895 C 206.638 159.277,206.800 159.864,206.800 160.200 C 206.800 160.536,207.025 161.205,207.300 161.686 C 211.116 168.362,219.739 167.096,221.510 159.600 C 222.550 155.197,222.878 153.306,222.729 152.580 C 222.641 152.151,222.249 153.420,221.857 155.400 C 220.526 162.132,219.662 163.695,216.554 164.993 C 214.615 165.804,213.528 165.758,211.446 164.780 C 208.462 163.377,208.180 162.877,205.597 154.400 C 205.094 152.750,204.192 149.870,203.593 148.000 C 202.994 146.130,202.108 143.250,201.625 141.600 C 201.141 139.950,200.589 138.150,200.399 137.600 C 200.046 136.584,198.057 130.006,197.159 126.889 C 196.322 123.980,195.695 125.121,192.813 134.800 C 191.775 138.289,189.013 147.242,186.768 154.400 C 185.906 157.150,185.200 159.590,185.200 159.822 C 185.200 161.054,182.781 163.921,181.057 164.731 C 175.932 167.140,172.129 164.196,170.810 156.800 C 170.555 155.370,170.188 153.480,169.994 152.600 C 169.634 150.968,169.106 148.328,168.356 144.400 C 168.124 143.190,167.775 141.480,167.579 140.600 C 167.384 139.720,166.855 137.020,166.403 134.600 C 165.952 132.180,165.400 129.390,165.177 128.400 C 162.800 117.853,160.485 104.326,160.838 103.048 C 161.753 99.732,165.513 97.962,168.565 99.410 C 171.341 100.728,171.501 101.176,174.188 115.200 C 174.967 119.270,175.769 123.320,175.970 124.200 C 176.171 125.080,176.529 126.790,176.766 128.000 C 179.232 140.586,179.131 140.354,180.381 136.318 C 182.384 129.851,183.673 125.749,184.000 124.800 C 184.190 124.250,184.740 122.450,185.222 120.800 C 185.703 119.150,186.413 116.810,186.799 115.600 C 187.185 114.390,188.080 111.510,188.788 109.200 C 191.311 100.967,191.896 99.982,194.716 99.223 C 197.616 98.442,200.212 99.811,201.495 102.800 C 202.000 103.973,204.570 112.106,208.039 123.500 C 208.783 125.943,209.550 128.441,211.232 133.900 C 211.690 135.385,212.156 136.960,212.268 137.400 C 212.768 139.366,212.831 139.441,213.298 138.609 C 213.542 138.173,214.049 136.193,214.423 134.209 C 214.798 132.224,215.574 128.260,216.148 125.400 C 216.722 122.540,217.388 119.210,217.628 118.000 C 217.868 116.790,218.216 115.080,218.400 114.200 C 218.584 113.320,218.944 111.520,219.200 110.200 C 221.189 99.932,221.910 98.945,227.269 99.158 C 230.039 99.267,232.321 102.931,231.655 106.200 C 231.431 107.300,231.037 109.280,230.778 110.600 C 230.520 111.920,230.169 113.540,229.998 114.200 C 229.827 114.860,229.468 116.750,229.200 118.400 C 228.932 120.050,228.570 121.940,228.396 122.600 C 228.222 123.260,227.870 124.970,227.613 126.400 C 227.357 127.830,226.980 129.720,226.775 130.600 C 224.713 139.490,222.490 152.298,223.200 151.200 C 223.413 150.870,223.591 149.961,223.594 149.180 C 223.597 148.399,223.763 147.589,223.961 147.380 C 224.160 147.171,224.424 146.190,224.549 145.200 C 225.084 140.934,225.303 139.778,225.641 139.420 C 225.838 139.211,226.000 138.277,226.000 137.344 C 226.000 136.411,226.180 135.536,226.400 135.400 C 226.620 135.264,226.800 134.364,226.800 133.400 C 226.800 132.436,226.980 131.536,227.200 131.400 C 227.420 131.264,227.600 130.389,227.600 129.456 C 227.600 128.523,227.762 127.589,227.959 127.380 C 228.156 127.171,228.416 126.280,228.536 125.400 C 228.760 123.750,229.290 120.891,230.016 117.400 C 230.245 116.300,230.605 114.500,230.816 113.400 C 231.027 112.300,231.386 110.500,231.614 109.400 C 232.861 103.377,232.292 100.986,229.198 99.247 C 224.973 96.873,220.883 99.331,219.625 105.000 C 219.108 107.331,217.328 116.236,216.627 120.000 C 214.093 133.601,212.883 138.988,212.825 136.924 C 212.811 136.442,212.620 135.936,212.400 135.800 C 212.180 135.664,212.000 135.034,212.000 134.400 C 212.000 133.766,211.820 133.136,211.600 133.000 C 211.380 132.864,211.200 132.324,211.200 131.800 C 211.200 131.276,211.020 130.736,210.800 130.600 C 210.580 130.464,210.400 129.834,210.400 129.200 C 210.400 128.566,210.220 127.936,210.000 127.800 C 209.780 127.664,209.600 127.201,209.600 126.771 C 209.600 126.341,209.438 125.677,209.239 125.295 C 209.040 124.913,208.663 123.790,208.400 122.800 C 208.137 121.810,207.760 120.687,207.561 120.305 C 207.362 119.923,207.200 119.259,207.200 118.829 C 207.200 118.399,207.020 117.936,206.800 117.800 C 206.580 117.664,206.400 117.111,206.400 116.571 C 206.400 116.031,206.238 115.277,206.041 114.895 C 205.844 114.513,205.305 112.940,204.843 111.400 C 201.720 100.977,201.538 100.588,199.146 99.227 C 197.118 98.074,194.932 98.159,192.910 99.470 C 191.013 100.700,190.307 101.942,189.200 106.000 C 188.930 106.990,188.571 108.160,188.402 108.600 C 188.234 109.040,187.512 111.290,186.799 113.600 C 186.086 115.910,185.356 118.250,185.177 118.800 C 184.997 119.350,184.375 121.420,183.794 123.400 C 183.213 125.380,182.584 127.450,182.396 128.000 C 182.208 128.550,181.667 130.350,181.193 132.000 C 180.720 133.650,180.168 135.313,179.966 135.695 C 179.765 136.077,179.579 136.797,179.554 137.295 C 179.502 138.327,178.869 135.916,178.532 133.400 C 178.414 132.520,178.156 131.629,177.959 131.420 C 177.762 131.211,177.600 130.277,177.600 129.344 C 177.600 128.411,177.420 127.536,177.200 127.400 C 176.980 127.264,176.800 126.364,176.800 125.400 C 176.800 124.436,176.620 123.536,176.400 123.400 C 176.180 123.264,176.000 122.389,176.000 121.456 C 176.000 120.523,175.837 119.589,175.639 119.380 C 175.440 119.171,175.181 118.190,175.062 117.200 C 174.944 116.210,174.656 114.455,174.424 113.300 C 173.399 108.217,173.182 107.090,172.882 105.283 C 171.920 99.477,167.002 96.536,162.919 99.325 M260.318 98.990 C 253.149 100.964,247.245 106.493,245.787 112.600 C 245.260 114.807,245.115 120.075,245.568 120.528 C 245.806 120.766,245.997 121.329,245.994 121.780 C 245.974 124.360,250.866 130.489,254.113 131.952 C 257.444 133.453,261.857 135.280,265.000 136.458 C 273.591 139.680,275.816 140.937,277.158 143.326 C 278.630 145.946,278.221 147.825,275.638 150.311 C 270.452 155.301,261.145 154.324,253.600 147.997 C 249.962 144.946,248.340 144.572,245.550 146.139 C 241.185 148.591,241.022 153.755,245.198 157.269 C 245.969 157.918,247.064 158.843,247.632 159.325 C 249.221 160.673,251.622 161.994,256.200 164.042 C 259.824 165.662,269.492 166.606,272.640 165.647 C 273.278 165.452,274.610 165.056,275.600 164.765 C 280.942 163.198,286.503 158.448,288.672 153.600 C 291.957 146.258,290.490 138.765,284.640 133.000 C 283.077 131.460,281.036 129.840,280.104 129.400 C 279.172 128.960,278.407 128.465,278.405 128.300 C 278.402 128.135,278.128 128.000,277.795 128.000 C 277.462 128.000,276.877 127.841,276.495 127.647 C 276.113 127.452,275.350 127.118,274.800 126.903 C 274.250 126.689,273.018 126.128,272.062 125.657 C 271.106 125.186,270.069 124.800,269.757 124.800 C 269.445 124.800,268.877 124.641,268.495 124.447 C 268.113 124.252,267.350 123.915,266.800 123.697 C 266.250 123.480,264.900 122.896,263.800 122.400 C 262.700 121.904,261.350 121.305,260.800 121.068 C 257.551 119.667,256.869 116.135,259.328 113.450 C 260.059 112.653,260.923 112.000,261.248 112.000 C 261.574 112.000,262.040 111.800,262.283 111.557 C 262.550 111.290,264.352 111.113,266.800 111.113 C 269.248 111.113,271.050 111.290,271.317 111.557 C 271.560 111.800,272.073 112.000,272.455 112.000 C 273.185 112.000,277.355 114.129,278.420 115.046 C 284.438 120.224,292.138 111.288,286.500 105.668 C 281.006 100.191,268.002 96.874,260.318 98.990 M57.000 99.702 C 58.058 100.220,58.715 101.030,62.046 105.927 C 63.591 108.197,65.108 110.357,65.417 110.727 C 65.726 111.097,68.324 114.820,71.190 119.000 C 87.322 142.529,86.273 141.060,86.661 140.672 C 86.809 140.524,86.888 131.987,86.837 121.702 L 86.743 103.000 87.679 101.600 C 90.554 97.303,96.697 98.390,97.963 103.420 C 98.628 106.060,98.569 160.116,97.900 161.283 C 96.007 164.586,92.179 165.759,89.207 163.948 C 87.520 162.920,88.024 163.565,81.303 153.836 C 69.270 136.421,65.159 130.460,62.998 127.295 C 61.757 125.476,60.575 124.092,60.371 124.218 C 60.152 124.353,60.000 131.889,60.000 142.605 C 60.000 163.410,60.039 163.160,56.520 164.949 C 53.935 166.263,50.561 165.011,49.219 162.238 C 47.961 159.641,47.934 104.812,49.189 102.226 C 50.628 99.260,53.921 98.196,57.000 99.702 M144.309 99.933 C 147.504 102.213,147.538 106.298,144.384 108.952 L 143.139 110.000 134.269 110.005 C 122.233 110.013,123.600 108.931,123.600 118.447 L 123.600 126.400 131.500 126.402 C 141.890 126.405,143.575 126.949,144.717 130.670 C 146.402 136.162,143.078 137.976,131.300 137.990 L 123.600 138.000 123.600 146.000 L 123.600 154.000 132.781 154.000 C 142.343 154.000,143.350 154.148,145.001 155.799 C 148.032 158.831,147.025 163.296,142.913 165.051 C 140.560 166.055,117.525 165.829,115.359 164.780 C 111.972 163.141,112.214 165.514,112.090 132.682 C 111.963 99.237,111.842 100.229,116.200 99.083 C 119.168 98.302,143.034 99.024,144.309 99.933 M273.619 99.747 C 281.550 101.851,287.561 105.923,287.885 109.410 C 288.379 114.721,283.289 117.570,278.739 114.531 C 277.783 113.892,276.100 112.948,275.000 112.434 C 273.900 111.919,272.568 111.296,272.040 111.049 C 271.512 110.802,269.158 110.600,266.809 110.600 C 260.389 110.600,256.879 113.161,257.328 117.516 C 257.597 120.122,258.312 120.709,264.200 123.160 C 264.640 123.343,265.450 123.680,266.000 123.909 C 266.550 124.138,269.379 125.259,272.287 126.401 C 289.945 133.332,295.433 147.457,284.717 158.390 C 274.637 168.673,253.099 167.103,244.200 155.436 C 239.651 149.472,246.580 142.947,252.416 147.700 C 257.090 151.507,258.674 152.394,262.637 153.426 C 272.547 156.008,281.918 148.976,277.217 142.487 C 275.642 140.312,273.897 139.352,265.452 136.009 C 261.528 134.456,257.341 132.739,256.147 132.193 C 254.953 131.647,253.817 131.200,253.623 131.200 C 252.791 131.200,248.510 126.401,247.519 124.357 C 242.642 114.301,248.967 102.189,260.400 99.690 C 261.610 99.426,262.960 99.126,263.400 99.024 C 264.836 98.691,271.386 99.154,273.619 99.747 M360.555 176.362 C 359.871 176.779,358.881 177.724,358.355 178.460 L 357.400 179.800 357.392 240.200 L 357.384 300.600 357.592 240.200 L 357.800 179.800 358.732 178.494 C 361.034 175.266,365.526 175.145,367.965 178.246 C 368.424 178.830,368.794 179.149,368.787 178.954 C 368.697 176.445,363.238 174.726,360.555 176.362 M369.000 241.223 C 369.000 275.074,369.122 302.462,369.272 302.085 C 369.642 301.153,369.664 180.719,369.294 180.138 C 369.132 179.884,369.000 207.373,369.000 241.223 M312.509 187.059 C 311.969 188.608,310.590 189.916,309.013 190.375 C 308.003 190.669,307.953 190.734,308.714 190.764 C 310.452 190.833,313.560 187.679,313.103 186.310 C 313.014 186.041,312.746 186.378,312.509 187.059 M100.068 191.100 C 138.055 191.156,200.335 191.156,238.468 191.100 C 276.600 191.044,245.520 190.998,169.400 190.998 C 93.280 190.998,62.080 191.044,100.068 191.100 M27.304 212.203 C 26.008 213.313,25.574 214.029,25.232 215.623 C 24.605 218.547,24.627 341.358,25.255 343.853 C 25.723 345.711,27.849 348.401,28.847 348.399 C 29.151 348.398,28.846 348.059,28.168 347.646 C 25.178 345.822,25.413 351.282,25.294 280.800 C 25.219 236.501,25.317 217.175,25.624 215.693 C 26.099 213.395,27.751 211.637,29.895 211.147 L 31.000 210.895 29.972 210.847 C 29.327 210.818,28.333 211.323,27.304 212.203 M142.800 211.085 C 143.350 211.182,144.520 211.800,145.400 212.459 L 147.000 213.658 145.433 212.229 C 144.408 211.293,143.510 210.819,142.833 210.854 L 141.800 210.909 142.800 211.085 M169.692 211.840 C 167.402 213.644,166.516 216.720,167.649 218.926 C 168.222 220.041,170.041 222.000,170.503 222.000 C 170.698 222.000,170.229 221.408,169.463 220.685 C 166.218 217.625,167.742 211.864,172.000 211.091 L 173.000 210.909 172.000 210.859 C 171.450 210.831,170.411 211.273,169.692 211.840 M308.698 211.190 C 309.411 211.359,310.230 211.656,310.516 211.849 C 310.803 212.042,310.694 211.885,310.275 211.500 C 309.855 211.115,309.036 210.818,308.456 210.841 C 307.488 210.878,307.508 210.907,308.698 211.190 M311.603 212.429 C 311.601 212.554,311.953 213.364,312.384 214.229 C 312.815 215.093,313.174 215.530,313.181 215.200 C 313.189 214.870,312.837 214.060,312.400 213.400 C 311.963 212.740,311.604 212.303,311.603 212.429 M147.105 279.068 C 147.221 351.208,147.411 345.951,144.632 347.646 C 143.954 348.059,143.601 348.398,143.846 348.399 C 144.651 348.401,146.286 346.848,146.949 345.450 C 147.643 343.987,147.981 215.619,147.294 214.538 C 147.132 214.284,147.047 243.322,147.105 279.068 M312.291 219.102 C 311.912 219.961,311.152 220.905,310.602 221.199 C 310.051 221.494,309.673 221.807,309.762 221.895 C 310.378 222.512,313.444 218.932,313.123 217.970 C 313.045 217.734,312.670 218.243,312.291 219.102 M171.738 222.494 C 171.992 222.656,202.800 222.788,240.200 222.788 C 277.600 222.788,308.408 222.656,308.662 222.494 C 308.916 222.332,278.108 222.200,240.200 222.200 C 202.292 222.200,171.484 222.332,171.738 222.494 M61.900 222.700 C 75.375 222.758,97.425 222.758,110.900 222.700 C 124.375 222.642,113.350 222.594,86.400 222.594 C 59.450 222.594,48.425 222.642,61.900 222.700 M36.896 279.476 C 36.843 310.758,36.935 336.436,37.100 336.538 C 37.371 336.706,37.370 297.759,37.096 243.200 C 37.039 231.870,36.949 248.194,36.896 279.476 M135.600 279.680 C 135.490 311.074,135.536 336.624,135.701 336.459 C 135.867 336.293,135.957 310.607,135.901 279.379 L 135.800 222.600 135.600 279.680 M170.096 236.798 C 167.473 238.397,166.454 241.796,167.810 244.420 C 168.146 245.069,168.511 245.600,168.621 245.600 C 168.731 245.600,168.526 245.030,168.166 244.334 C 166.762 241.619,168.056 238.080,170.931 236.775 C 171.849 236.359,172.330 236.014,172.000 236.010 C 171.670 236.006,170.813 236.361,170.096 236.798 M308.433 236.138 C 308.525 236.215,309.230 236.573,310.000 236.934 L 311.400 237.592 310.456 236.796 C 309.936 236.358,309.231 236.000,308.889 236.000 C 308.547 236.000,308.342 236.062,308.433 236.138 M311.600 237.640 C 311.600 237.759,311.966 238.564,312.414 239.429 C 312.882 240.332,313.115 240.575,312.960 240.000 C 312.713 239.076,311.600 237.146,311.600 237.640 M312.298 244.287 C 311.871 245.254,311.050 246.162,310.108 246.708 C 309.278 247.188,308.780 247.585,309.000 247.589 C 310.473 247.618,313.511 244.334,313.114 243.143 C 313.041 242.922,312.673 243.437,312.298 244.287 M169.944 246.804 C 170.464 247.242,171.049 247.600,171.244 247.600 C 171.928 247.600,171.590 247.254,170.300 246.634 L 169.000 246.008 169.944 246.804 M206.132 247.900 C 225.014 247.957,255.794 247.957,274.532 247.900 C 293.269 247.842,277.820 247.795,240.200 247.795 C 202.580 247.795,187.249 247.842,206.132 247.900 M172.315 261.126 C 171.938 261.277,202.268 261.400,239.715 261.400 C 310.934 261.400,309.176 261.359,311.223 263.081 C 312.340 264.021,312.436 264.047,311.958 263.281 C 310.437 260.846,315.306 261.007,240.800 260.926 C 203.510 260.885,172.692 260.975,172.315 261.126 M168.713 263.100 C 167.301 264.719,166.684 267.769,167.506 269.062 C 167.668 269.316,167.800 268.506,167.800 267.262 C 167.800 265.537,168.020 264.691,168.727 263.700 C 169.722 262.305,169.714 261.953,168.713 263.100 M7.400 265.285 C 8.060 265.517,8.825 265.885,9.100 266.103 C 9.413 266.350,9.600 266.354,9.600 266.113 C 9.600 265.636,7.802 264.789,6.881 264.832 C 6.507 264.849,6.740 265.053,7.400 265.285 M10.012 266.490 C 10.006 266.650,10.359 267.370,10.799 268.090 C 11.584 269.379,11.598 270.172,11.638 318.600 C 11.661 346.073,11.836 368.242,12.034 368.800 C 12.338 369.655,12.361 369.604,12.195 368.450 C 12.088 367.707,11.999 345.118,11.998 318.250 L 11.996 269.400 11.010 267.800 C 10.468 266.920,10.019 266.331,10.012 266.490 M312.509 269.058 C 312.026 270.445,310.126 272.383,309.204 272.432 C 308.802 272.453,308.765 272.530,309.094 272.663 C 310.270 273.138,313.525 269.575,313.095 268.284 C 313.010 268.029,312.746 268.378,312.509 269.058 M169.178 271.301 C 169.950 272.140,170.919 272.789,171.378 272.775 C 172.100 272.752,172.078 272.701,171.200 272.352 C 170.650 272.133,169.660 271.470,169.000 270.878 C 168.010 269.990,168.041 270.064,169.178 271.301 M206.500 273.100 C 225.145 273.157,255.655 273.157,274.300 273.100 C 292.945 273.042,277.690 272.995,240.400 272.995 C 203.110 272.995,187.855 273.042,206.500 273.100 M205.932 286.700 C 224.924 286.757,255.884 286.757,274.732 286.700 C 293.579 286.642,278.040 286.595,240.200 286.595 C 202.360 286.595,186.939 286.643,205.932 286.700 M309.800 287.267 C 310.240 287.510,310.969 288.000,311.419 288.355 C 311.870 288.710,311.732 288.505,311.113 287.900 C 310.494 287.295,309.765 286.805,309.494 286.812 C 309.222 286.819,309.360 287.023,309.800 287.267 M168.236 289.062 C 167.151 290.658,166.846 293.241,167.606 294.400 C 167.886 294.828,167.928 294.631,167.752 293.714 C 167.408 291.917,167.860 289.901,168.845 288.844 C 169.305 288.351,169.588 287.855,169.476 287.742 C 169.363 287.630,168.805 288.224,168.236 289.062 M312.437 294.493 C 312.156 295.341,311.392 296.379,310.671 296.893 L 309.400 297.800 240.128 297.800 C 202.029 297.800,171.101 297.937,171.399 298.103 C 171.697 298.270,202.901 298.360,240.741 298.303 L 309.541 298.200 310.671 297.358 C 311.990 296.374,313.343 294.228,313.100 293.504 C 313.007 293.227,312.708 293.672,312.437 294.493 M168.615 296.166 C 168.963 296.698,169.552 297.249,169.923 297.392 C 170.320 297.544,170.113 297.145,169.424 296.426 C 168.010 294.949,167.766 294.871,168.615 296.166 M354.689 305.030 C 353.859 305.954,352.599 306.996,351.889 307.346 C 351.180 307.696,350.838 307.986,351.128 307.991 C 351.945 308.005,354.998 305.767,355.771 304.588 C 356.828 302.975,356.367 303.163,354.689 305.030 M368.200 304.800 C 368.050 305.273,368.017 305.750,368.127 305.860 C 368.237 305.970,368.450 305.673,368.600 305.200 C 368.750 304.727,368.783 304.250,368.673 304.140 C 368.563 304.030,368.350 304.327,368.200 304.800 M367.422 307.130 C 366.410 310.320,361.610 315.620,358.145 317.375 C 356.939 317.985,356.042 318.575,356.152 318.686 C 356.578 319.111,360.885 316.247,363.088 314.073 C 365.203 311.986,368.357 307.024,367.875 306.542 C 367.764 306.431,367.560 306.695,367.422 307.130 M344.200 308.400 L 338.600 308.635 344.000 308.711 C 346.970 308.753,349.670 308.613,350.000 308.400 C 350.330 308.187,350.420 308.047,350.200 308.089 C 349.980 308.131,347.280 308.271,344.200 308.400 M171.062 311.900 C 170.960 312.065,202.072 312.200,240.200 312.200 C 278.328 312.200,309.440 312.065,309.338 311.900 C 309.236 311.735,278.124 311.600,240.200 311.600 C 202.276 311.600,171.164 311.735,171.062 311.900 M169.200 313.000 C 168.922 313.335,168.879 313.600,169.102 313.600 C 169.322 313.600,169.726 313.330,170.000 313.000 C 170.278 312.665,170.321 312.400,170.098 312.400 C 169.878 312.400,169.474 312.670,169.200 313.000 M310.033 312.500 C 310.125 312.555,310.740 313.050,311.400 313.600 L 312.600 314.600 311.630 313.500 C 311.097 312.895,310.482 312.400,310.264 312.400 C 310.045 312.400,309.942 312.445,310.033 312.500 M167.443 315.833 C 167.110 316.701,167.148 318.899,167.506 319.462 C 167.668 319.716,167.800 318.861,167.800 317.562 C 167.800 314.961,167.792 314.923,167.443 315.833 M354.000 319.200 C 353.467 319.545,353.467 319.588,354.000 319.588 C 354.330 319.588,354.870 319.413,355.200 319.200 C 355.733 318.855,355.733 318.812,355.200 318.812 C 354.870 318.812,354.330 318.987,354.000 319.200 M350.600 320.000 L 349.400 320.305 350.600 320.325 C 351.260 320.335,352.160 320.189,352.600 320.000 L 353.400 319.656 352.600 319.675 C 352.160 319.686,351.260 319.832,350.600 320.000 M338.447 343.900 C 338.473 356.825,338.608 367.932,338.747 368.581 C 338.886 369.231,339.000 358.656,339.000 345.082 C 339.000 331.507,338.865 320.400,338.700 320.400 C 338.535 320.400,338.421 330.975,338.447 343.900 M311.433 321.563 C 309.913 323.243,311.235 323.214,239.738 323.105 C 201.864 323.047,170.960 323.135,171.062 323.300 C 171.441 323.913,308.729 323.657,309.921 323.041 C 310.926 322.521,312.772 320.800,312.324 320.800 C 312.214 320.800,311.813 321.144,311.433 321.563 M169.200 322.200 C 169.474 322.530,169.878 322.800,170.098 322.800 C 170.321 322.800,170.278 322.535,170.000 322.200 C 169.726 321.870,169.322 321.600,169.102 321.600 C 168.879 321.600,168.922 321.865,169.200 322.200 M171.515 337.128 C 171.138 337.278,202.036 337.400,240.177 337.400 C 278.318 337.400,309.316 337.268,309.062 337.106 C 308.481 336.736,172.447 336.758,171.515 337.128 M169.557 338.100 C 169.229 338.375,168.706 338.960,168.396 339.400 C 168.085 339.840,168.409 339.671,169.115 339.025 C 169.822 338.379,170.400 337.794,170.400 337.725 C 170.400 337.490,170.153 337.600,169.557 338.100 M310.690 338.273 C 311.179 338.673,311.937 339.720,312.374 340.600 C 312.811 341.480,313.175 341.930,313.183 341.600 C 313.205 340.651,311.732 338.495,310.721 337.999 L 309.800 337.546 310.690 338.273 M167.443 341.033 C 166.455 343.607,168.766 348.407,170.989 348.399 C 171.215 348.398,170.846 348.059,170.168 347.646 C 168.472 346.611,167.457 344.344,167.705 342.143 C 167.913 340.300,167.841 339.995,167.443 341.033 M311.780 346.432 C 311.633 346.670,310.947 347.210,310.256 347.631 C 309.565 348.052,309.222 348.398,309.494 348.399 C 310.006 348.400,312.813 346.032,312.324 346.012 C 312.172 346.005,311.927 346.195,311.780 346.432 M57.900 348.700 C 73.575 348.758,99.225 348.758,114.900 348.700 C 130.575 348.642,117.750 348.595,86.400 348.595 C 55.050 348.595,42.225 348.642,57.900 348.700 M205.932 348.700 C 224.924 348.757,255.884 348.757,274.732 348.700 C 293.579 348.642,278.040 348.595,240.200 348.595 C 202.360 348.595,186.939 348.643,205.932 348.700 M99.900 362.300 C 138.015 362.356,200.385 362.356,238.500 362.300 C 276.615 362.244,245.430 362.198,169.200 362.198 C 92.970 362.198,61.785 362.244,99.900 362.300 M27.053 363.827 C 23.573 367.307,25.278 372.960,30.120 373.997 C 34.116 374.852,308.268 374.366,310.004 373.500 C 310.776 373.115,311.653 372.395,311.954 371.900 C 312.430 371.115,312.353 371.137,311.350 372.073 C 309.167 374.109,315.184 374.032,168.200 373.912 C 29.855 373.800,29.799 373.800,28.400 372.986 C 24.460 370.697,24.811 364.826,29.000 362.965 C 30.004 362.518,30.060 362.429,29.340 362.416 C 28.867 362.407,27.838 363.042,27.053 363.827 M309.008 362.740 C 310.455 363.206,311.598 364.254,312.391 365.842 C 312.818 366.699,313.175 367.166,313.184 366.880 C 313.235 365.223,310.493 362.356,308.938 362.440 C 308.279 362.475,308.286 362.507,309.008 362.740 M326.893 368.000 C 326.893 368.770,326.975 369.085,327.076 368.700 C 327.176 368.315,327.176 367.685,327.076 367.300 C 326.975 366.915,326.893 367.230,326.893 368.000 M387.246 370.067 C 387.221 370.434,387.096 371.064,386.970 371.467 C 386.752 372.162,386.763 372.163,387.197 371.487 C 387.448 371.096,387.573 370.466,387.473 370.087 C 387.311 369.468,387.288 369.466,387.246 370.067 M12.414 370.526 C 12.373 372.586,18.655 382.679,19.470 381.863 C 19.577 381.757,18.961 380.924,18.103 380.012 C 16.131 377.919,14.218 374.776,13.211 371.975 C 12.781 370.779,12.422 370.127,12.414 370.526 M327.206 371.033 C 327.209 371.675,327.384 372.470,327.595 372.800 C 327.855 373.209,327.899 372.890,327.732 371.800 C 327.429 369.823,327.198 369.486,327.206 371.033 M339.234 370.400 C 339.246 370.730,339.411 371.360,339.600 371.800 L 339.944 372.600 339.966 371.800 C 339.978 371.360,339.813 370.730,339.600 370.400 C 339.255 369.867,339.215 369.867,339.234 370.400 M385.467 374.641 C 384.869 375.862,384.530 376.767,384.715 376.652 C 385.198 376.354,386.964 372.831,386.742 372.609 C 386.640 372.506,386.066 373.421,385.467 374.641 M340.460 374.001 C 340.690 374.661,341.041 375.302,341.239 375.424 C 341.739 375.733,341.696 375.515,340.971 374.061 C 340.175 372.466,339.914 372.435,340.460 374.001 M328.044 374.200 C 328.058 374.923,329.500 378.498,329.570 377.985 C 329.587 377.866,329.246 376.786,328.814 375.585 C 328.382 374.383,328.036 373.760,328.044 374.200 M341.908 376.600 C 342.428 377.599,344.800 380.600,344.800 380.258 C 344.800 380.035,342.233 376.506,341.702 376.000 C 341.586 375.890,341.679 376.160,341.908 376.600 M382.608 379.100 C 381.749 380.145,381.460 380.640,381.966 380.200 C 382.861 379.422,384.598 377.200,384.312 377.200 C 384.234 377.200,383.467 378.055,382.608 379.100 M346.002 381.503 C 346.005 381.855,350.209 384.949,350.913 385.115 C 351.181 385.179,350.955 384.909,350.410 384.515 C 349.866 384.122,348.651 383.216,347.710 382.503 C 346.770 381.789,346.001 381.339,346.002 381.503 M380.018 381.778 C 379.754 382.096,378.646 382.929,377.554 383.629 C 376.463 384.330,375.654 384.987,375.757 385.090 C 376.001 385.334,379.180 383.137,380.162 382.047 C 380.581 381.581,380.828 381.200,380.711 381.200 C 380.594 381.200,380.282 381.460,380.018 381.778 M331.200 381.836 C 331.200 382.039,332.194 383.511,333.409 385.105 L 335.619 388.005 183.424 387.903 C 99.717 387.846,31.538 387.922,31.915 388.072 C 32.653 388.365,336.000 388.517,336.000 388.224 C 336.000 388.067,331.762 382.045,331.362 381.633 C 331.273 381.542,331.200 381.633,331.200 381.836 M20.144 382.309 C 20.460 382.821,22.800 384.553,22.800 384.275 C 22.800 384.176,22.139 383.591,21.332 382.975 C 20.524 382.359,19.989 382.059,20.144 382.309 M23.200 384.596 C 23.200 384.870,25.649 386.084,25.832 385.901 C 25.919 385.814,25.362 385.444,24.595 385.078 C 23.828 384.712,23.200 384.495,23.200 384.596 M351.854 385.572 C 352.501 386.140,356.741 387.670,357.291 387.535 C 357.592 387.461,356.415 386.920,354.674 386.334 C 352.933 385.748,351.664 385.405,351.854 385.572 M371.800 386.435 C 370.040 387.067,368.981 387.588,369.447 387.593 C 370.326 387.600,374.315 386.115,374.980 385.533 C 375.464 385.109,375.571 385.079,371.800 386.435 M359.276 388.060 C 359.784 388.203,361.640 388.320,363.400 388.320 C 365.160 388.320,367.016 388.203,367.524 388.060 C 368.032 387.917,366.176 387.800,363.400 387.800 C 360.624 387.800,358.768 387.917,359.276 388.060 " stroke="none" fill="#b39d59" fill-rule="evenodd"></path></g></svg>